<svg xmlns="http://www.w3.org/2000/svg" xmlns:xlink="http://www.w3.org/1999/xlink" width="189.056" height="45.556" viewBox="0 0 189.056 45.556"><defs><clipPath id="a"><rect width="30.781" height="2.127" fill="none"/></clipPath></defs><g transform="translate(-290 150)"><g transform="translate(354.102 -149.549)"><path d="M204.475,3.915l-6.774.146c-2.119.073-3,.256-3.544,1.06a4.319,4.319,0,0,0-.621,1.279c-.073.292-.183.439-.4.439-.256,0-.329-.183-.329-.585,0-.584.694-3.909.767-4.2.109-.475.219-.694.438-.694a8.444,8.444,0,0,0,1.571.438c1.059.11,2.448.183,3.654.183h16.8a17.491,17.491,0,0,0,2.521-.183,8.8,8.8,0,0,1,.986-.183c.256,0,.292.219.292.767,0,.767-.11,3.288-.11,4.238-.036.365-.109.585-.329.585-.292,0-.365-.183-.4-.731l-.037-.4c-.073-.95-1.06-1.973-4.311-2.046l-5.6-.11V23.159c0,3.361,0,6.248.183,7.818.11,1.023.329,1.827,1.425,1.973.511.073,2.314.146,2.862.146.4,0,.585.11.585.293,0,.256-.292.365-.694.365-2.411,0-5.712-.11-6.735-.11-.84,0-3.142.11-4.6.11-.475,0-.731-.11-.731-.365,0-.183.146-.293.585-.293a5.958,5.958,0,0,0,1.315-.146c.731-.146.95-.95,1.06-2.009.183-1.534.183-4.421.183-7.782Z" transform="translate(-192.805 -1.358)" fill="#e2ad3a"/><path d="M255.836,34.929c0-4.713,0-5.59-.037-6.576-.073-1.06-.365-1.388-1.388-1.681a5.943,5.943,0,0,0-1.279-.109c-.329,0-.548-.11-.548-.329s.256-.292.731-.292c1.681,0,3.727.073,4.384.073,1.1,0,4.019-.073,5.006-.073,2.046,0,4.384.183,6.1,1.315a5.426,5.426,0,0,1,2.265,4.275c0,2.3-1.318,6.256-4.458,7.6,2.85,3.508,5.115,6.321,7.052,8.257a6.027,6.027,0,0,0,3.434,2.046,3.013,3.013,0,0,0,.767.073.373.373,0,0,1,.4.329c0,.256-.219.329-.621.329h-3.069a6.97,6.97,0,0,1-3.507-.621c-1.388-.694-2.594-2.156-4.384-4.567-1.279-1.681-2.631-3.763-3.033-4.238a.74.74,0,0,0-.584-.219l-2.887-.073a.231.231,0,0,0-.256.256v.438c0,2.887.037,5.3.183,6.613.11.913.256,1.5,1.242,1.644a12.167,12.167,0,0,0,1.571.109.373.373,0,0,1,.4.329c0,.219-.256.329-.658.329-1.863,0-4.531-.11-5.005-.11-.621,0-2.667.11-3.946.11-.4,0-.621-.11-.621-.329,0-.146.109-.329.511-.329a4.73,4.73,0,0,0,1.133-.109c.658-.146.84-.731.95-1.644.146-1.315.146-3.763.146-6.613Zm4.092,3.142c0,.329.073.439.292.548a8.813,8.813,0,0,0,2.448.293,3.232,3.232,0,0,0,2.266-.512c.986-.694,2.082-2.776,2.082-5.334,0-4.384-3-5.517-4.9-5.517a11.634,11.634,0,0,0-1.9.11c-.219.073-.292.183-.292.439Z" transform="translate(-232.709 -17.768)" fill="#e2ad3a"/><path d="M334.525,42.346c-.183,0-.219.037-.292.219l-1.717,4.165a5.629,5.629,0,0,0-.475,1.9c0,.548.293.877,1.279.877h.475c.4,0,.475.146.475.329,0,.256-.183.329-.512.329-1.06,0-2.557-.11-3.58-.11-.329,0-2.046.11-3.727.11-.4,0-.585-.073-.585-.329a.318.318,0,0,1,.365-.329c.292,0,.658-.037.95-.037,1.462-.219,2.009-1.169,2.667-2.74l8.4-19.547c.365-.877.621-1.242.95-1.242.475,0,.621.292.95.986.767,1.717,6.138,14.432,8.184,19.145,1.242,2.813,2.156,3.215,2.74,3.325a7.77,7.77,0,0,0,1.206.109q.438,0,.438.329c0,.256-.183.329-1.388.329-1.133,0-3.471,0-6.175-.073-.585-.037-.95-.037-.95-.256,0-.183.073-.292.4-.329a.488.488,0,0,0,.292-.694l-2.485-6.248a.305.305,0,0,0-.329-.219Zm6.869-1.717c.146,0,.183-.073.146-.183l-3.032-7.892c-.037-.109-.073-.292-.146-.292-.11,0-.146.183-.182.292l-3.106,7.855c-.073.146,0,.219.11.219Z" transform="translate(-281.627 -17.768)" fill="#e2ad3a"/><path d="M384.011,29.3c-.731-1.717-1.206-2.338-2.375-2.631a5.669,5.669,0,0,0-1.242-.11c-.293,0-.366-.146-.366-.328,0-.256.329-.293.8-.293,1.717,0,3.544.073,4.677.073.8,0,2.485-.073,4.092-.073.4,0,.768.073.768.293s-.219.328-.512.328a2.368,2.368,0,0,0-1.242.219.677.677,0,0,0-.329.621,10.224,10.224,0,0,0,.731,2.667l5.408,13.92h.109c1.388-3.215,5.517-13.226,6.284-15.272a6.422,6.422,0,0,0,.292-1.462c0-.329-.146-.439-.439-.548a4.9,4.9,0,0,0-1.279-.146c-.292,0-.548-.109-.548-.328s.292-.293.913-.293c1.608,0,3.032.073,3.434.073.548,0,2.046-.073,3.032-.073.4,0,.658.073.658.293s-.182.328-.511.328a2.554,2.554,0,0,0-1.571.365c-.4.292-.84,1.1-1.68,3.069-1.279,2.923-2.119,4.6-3.873,8.4-2.046,4.531-3.544,7.928-4.275,9.5-.8,1.79-1.1,2.265-1.534,2.265s-.694-.4-1.316-1.864Z" transform="translate(-317.782 -17.767)" fill="#e2ad3a"/><path d="M461.534,34.354c0-4.713,0-5.59-.037-6.577-.073-1.059-.365-1.388-1.388-1.681a5.918,5.918,0,0,0-1.279-.11c-.329,0-.548-.109-.548-.328s.256-.292.731-.292c1.681,0,3.727.073,4.64.073,1.023,0,8.148.037,8.769,0a13.621,13.621,0,0,0,1.352-.183,3.756,3.756,0,0,1,.512-.146c.183,0,.219.146.219.292a13.757,13.757,0,0,0-.256,2.009c-.036.328-.109,1.681-.183,2.046-.037.146-.109.512-.365.512-.219,0-.256-.146-.256-.4a2.919,2.919,0,0,0-.219-1.133c-.256-.548-.512-.986-2.119-1.133-.548-.073-4.384-.146-5.042-.146-.146,0-.219.109-.219.292v7.673c0,.183.037.329.219.329.731,0,4.9,0,5.626-.073.767-.073,1.242-.146,1.535-.475.256-.219.365-.4.512-.4a.3.3,0,0,1,.256.328c0,.183-.073.695-.256,2.265-.073.621-.146,1.863-.146,2.083,0,.255-.036.694-.329.694-.219,0-.292-.109-.292-.255-.037-.329-.037-.731-.11-1.133-.183-.621-.585-1.1-1.79-1.206-.584-.073-4.238-.146-5.042-.146-.146,0-.183.146-.183.329v2.484c0,1.06-.036,4.368,0,5.281.073,2.119,1.06,2.594,4.348,2.594a8.686,8.686,0,0,0,3.032-.4c.8-.365,1.169-1.023,1.388-2.3.073-.329.146-.475.365-.475.256,0,.292.4.292.73a21,21,0,0,1-.438,3.434c-.219.8-.511.8-1.717.8-2.411,0-4.348-.037-5.919-.11-1.571-.036-2.777-.073-3.727-.073-.365,0-1.059.037-1.827.037-.767.036-1.571.073-2.229.073-.4,0-.621-.11-.621-.329,0-.146.11-.329.511-.329a4.73,4.73,0,0,0,1.133-.109c.658-.146.841-.731.95-1.644.146-1.315.146-4.441.146-7.291Z" transform="translate(-370.018 -17.214)" fill="#e2ad3a"/><path d="M523.233,41.139c0,3.983,0,5.955.694,6.54.548.475,1.79.657,4.275.657,1.717,0,2.959-.036,3.763-.876a3.739,3.739,0,0,0,.8-1.864c.036-.292.109-.475.365-.475.219,0,.293.328.293.694a23.678,23.678,0,0,1-.475,3.581c-.219.694-.365.84-2.046.84-2.3,0-4.165-.037-5.773-.11-1.608-.036-2.96-.073-4.275-.073-.365,0-1.06.037-1.827.037-.767.036-1.571.073-2.229.073-.4,0-.621-.11-.621-.329,0-.146.109-.329.511-.329a4.73,4.73,0,0,0,1.133-.109c.658-.146.84-.731.95-1.644.146-1.315.146-3.763.146-6.613v-5.48c0-4.713,0-6.321-.036-7.307-.073-1.06-.365-1.388-1.388-1.681a4.282,4.282,0,0,0-1.06-.11q-.548,0-.548-.328c0-.219.219-.293.694-.293,1.5,0,3.544.073,4.421.073.767,0,3.4-.073,4.64-.073.475,0,.694.073.694.293s-.183.328-.585.328a7.125,7.125,0,0,0-1.242.11c-.877.146-1.133.584-1.206,1.681-.073.986-.073,2.594-.073,7.307Z" transform="translate(-408.473 -17.767)" fill="#e2ad3a"/></g><g transform="translate(363.778 -111.059)"><path d="M225.468,119.994h-2.781v1.5h3.074l-.1.647h-3.754v-4.715h3.708v.647h-2.928v1.275h2.781Z" transform="translate(-221.907 -117.325)" fill="#139bcb"/><path d="M245.423,122.141l-1.451-1.885h-.017l-1.406,1.885h-.887l1.858-2.417-1.786-2.3h.931l1.345,1.762.007,0,1.356-1.759h.87l-1.808,2.275,1.912,2.44Z" transform="translate(-235.094 -117.325)" fill="#139bcb"/><path d="M264.266,117.425h2.268c1.154,0,1.734.593,1.734,1.41,0,.935-.648,1.466-1.721,1.466h-1.5v1.839h-.783Zm.783,2.237h1.4c.609,0,1.027-.185,1.027-.815,0-.5-.329-.787-1.027-.787h-1.4Z" transform="translate(-250.183 -117.325)" fill="#139bcb"/><path d="M285.666,117.425h.776v4.065h2.8l-.112.651h-3.459Z" transform="translate(-264.468 -117.326)" fill="#139bcb"/><path d="M308.971,119.568a2.493,2.493,0,0,1-4.986,0,2.494,2.494,0,0,1,4.986,0m-4.162-.018A1.689,1.689,0,0,0,306.5,121.4a1.648,1.648,0,0,0,1.649-1.82,1.676,1.676,0,0,0-1.692-1.818,1.651,1.651,0,0,0-1.645,1.787" transform="translate(-276.696 -117.125)" fill="#139bcb"/><path d="M329.449,120.16v1.981h-.774v-4.715H331c1,0,1.636.465,1.636,1.3a1.078,1.078,0,0,1-.852,1.122c.282.084.728.308.728,1.138v.214a4.364,4.364,0,0,0,.056.946h-.8a3.5,3.5,0,0,1-.068-.966v-.157c0-.643-.247-.858-1.041-.858Zm0-.62h1.364c.694,0,1.026-.244,1.026-.767,0-.48-.335-.727-1-.727h-1.385Z" transform="translate(-293.178 -117.326)" fill="#139bcb"/><path d="M354.107,119.994h-2.781v1.5H354.4l-.1.647h-3.754v-4.715h3.708v.647h-2.928v1.275h2.781Z" transform="translate(-307.777 -117.325)" fill="#139bcb"/><path d="M383.87,118.073H382.1v-.647h4.311v.647h-1.762v4.068h-.783Z" transform="translate(-328.843 -117.326)" fill="#139bcb"/><path d="M403.985,117.425h.78V119.3h2.68v-1.874h.78v4.715h-.78v-2.194h-2.68v2.194h-.78Z" transform="translate(-343.449 -117.326)" fill="#139bcb"/><path d="M430.926,119.994h-2.781v1.5h3.074l-.1.647h-3.754v-4.715h3.708v.647h-2.928v1.275h2.781Z" transform="translate(-359.056 -117.325)" fill="#139bcb"/><path d="M460.543,122.14l-1.434-4.715h.822c.332,1.144.987,3.3,1.09,3.981h.007c.134-.715.817-2.849,1.178-3.981h.768c.326,1.053,1.042,3.4,1.149,3.96h.01c.148-.743.815-2.868,1.151-3.96h.787l-1.532,4.715h-.85c-.329-1.064-1.017-3.3-1.143-3.887h-.007c-.125.649-.78,2.7-1.157,3.887Z" transform="translate(-380.246 -117.325)" fill="#139bcb"/><path d="M492.968,119.568a2.493,2.493,0,0,1-4.986,0,2.494,2.494,0,0,1,4.986,0m-4.162-.018a1.689,1.689,0,0,0,1.688,1.851,1.648,1.648,0,0,0,1.649-1.82,1.676,1.676,0,0,0-1.692-1.818,1.651,1.651,0,0,0-1.645,1.787" transform="translate(-399.52 -117.125)" fill="#139bcb"/><path d="M513.446,120.16v1.981h-.774v-4.715H515c1,0,1.636.465,1.636,1.3a1.078,1.078,0,0,1-.852,1.122c.282.084.728.308.728,1.138v.214a4.359,4.359,0,0,0,.056.946h-.8a3.5,3.5,0,0,1-.068-.966v-.157c0-.643-.247-.858-1.041-.858Zm0-.62h1.364c.693,0,1.026-.244,1.026-.767,0-.48-.335-.727-1-.727h-1.385Z" transform="translate(-416.001 -117.326)" fill="#139bcb"/><path d="M534.543,117.425h.776v4.065h2.8l-.112.651h-3.459Z" transform="translate(-430.601 -117.326)" fill="#139bcb"/><path d="M554.023,117.426h1.984a2.226,2.226,0,0,1,2.422,2.28,2.328,2.328,0,0,1-2.438,2.435h-1.969Zm.78,4.083h1.05a1.611,1.611,0,0,0,1.748-1.781,1.564,1.564,0,0,0-1.706-1.674H554.8Z" transform="translate(-443.604 -117.326)" fill="#139bcb"/></g><g transform="translate(298.251 -106.57)" opacity="0.15"><g clip-path="url(#a)"><path d="M60.278,129.23c0,.587-6.891,1.063-15.391,1.063S29.5,129.818,29.5,129.23s6.891-1.063,15.391-1.063,15.391.476,15.391,1.063" transform="translate(-29.497 -128.167)" fill="#1a1818"/></g></g><path d="M48.6,12.221q-1.252.5-2.453.958c-21.642,8.251-30.778,6.913-34.574,3.775v0A6.906,6.906,0,0,1,9.624,14.4,20.974,20.974,0,0,1,48.6,12.221" transform="translate(283.576 -150)" fill="#f5c151"/><path d="M55.414,52.361a20.969,20.969,0,0,1-38.44,11.592,9.877,9.877,0,0,0,2.956.667c.37.028.74.044,1.116.048,11.32.114,24.961-10.163,31.581-15.8.812-.692,1.52-1.315,2.1-1.84a20.917,20.917,0,0,1,.686,5.333" transform="translate(278.669 -181.392)" fill="#139bcb"/><path d="M48.539,31.145c-.029.019-.654.455-1.754,1.151-.6.376-1.334.828-2.191,1.331-5.478,3.212-15.873,8.491-26.118,9.234-4.957.357-7.906-1.065-9.616-3.111A9.178,9.178,0,0,1,7.07,36.187,13.013,13.013,0,0,1,7.089,29.5a8.2,8.2,0,0,0,.55,4.59,6.906,6.906,0,0,0,1.95,2.551v0c3.8,3.139,12.933,4.476,34.574-3.775q1.2-.46,2.453-.958.944-.375,1.922-.771" transform="translate(285.561 -169.695)" fill="#e2ad3a"/><path d="M45.285,41.78c-.029.029-.7.689-1.887,1.745-.582.525-1.29,1.147-2.1,1.84C34.676,51,21.035,61.278,9.715,61.164c-.376,0-.746-.019-1.116-.047a9.877,9.877,0,0,1-2.956-.667C2.16,59.062-.445,55.481.064,48.795a6.46,6.46,0,0,0,2.905,5.886v0a8.7,8.7,0,0,0,3.307,1.141c5.488.838,15.73-1.407,34.748-11.69.724-.392,1.457-.794,2.207-1.208q1.01-.56,2.055-1.147" transform="translate(290 -177.889)" fill="#1487af"/><path d="M132.813,17.754l1.452,1.108-.7,1.046,1.219-.463.683,1.788a1.306,1.306,0,0,0,.522-1.308l-.182-1.081,3.668-2.483s.857.876,2.029,5.457l.588-.766-.771-5.711,1.768-1.328a3.13,3.13,0,0,0,1.294-2.4,4.134,4.134,0,0,0-2.638.636l-1.707,1.423-5.253-2.361s-.65-.046-.818.362a50.45,50.45,0,0,1,4.448,3.49l-3.192,2.879s-1.68-1.165-2.409-.289" transform="translate(201.343 -157.55)" fill="#474747"/></g></svg>