<svg xmlns="http://www.w3.org/2000/svg" width="20.279" height="20.496" viewBox="0 0 20.279 20.496"><g transform="translate(0 0)"><path d="M27.416,13.758c-.416-.465-.838-.926-1.247-1.4a.779.779,0,0,0-.63-.281q-6.371,0-12.742,0a1.4,1.4,0,0,0-.245.022.561.561,0,0,0-.474.452,1.307,1.307,0,0,0-.01.246q0,3.911,0,7.822c0,.048,0,.1,0,.144a.553.553,0,0,0,.381.532.891.891,0,0,0,.3.04q2.471,0,4.941,0h.193c.026-.028.041-.041.053-.057l3.029-3.95,2.028-2.644a1.263,1.263,0,0,1,.981-.522c.383-.019.765-.057,1.148-.087.492-.039.984-.076,1.475-.117.3-.025.6-.053.92-.081-.043-.054-.071-.092-.1-.127" transform="translate(-11.403 -11.415)" fill="#b5ecff"/><path d="M90.2,61.909c-.382.493-.759.991-1.138,1.486q-1.4,1.819-2.793,3.638L82.4,72.077a.727.727,0,0,1-.432.324.615.615,0,0,1-.519-.133l-.979-.75L75.2,67.474c-.043-.033-.085-.069-.129-.1a.6.6,0,0,1-.087-.846c.226-.285.443-.576.664-.864l3.219-4.194q1.985-2.587,3.968-5.175A.724.724,0,0,1,83.413,56c.452-.025.9-.07,1.352-.107.205-.017.41-.034.615-.049l1.845-.134c.212-.015.424-.035.7-.058a3.945,3.945,0,0,1,.585.084,1.24,1.24,0,0,1,.886.868,7.7,7.7,0,0,1,.2.857c.138.7.265,1.411.4,2.117.113.605.228,1.21.339,1.815a.627.627,0,0,1-.138.519" transform="translate(-70.733 -52.589)" fill="#f5c151"/><path d="M79.411,49.592c-.094-.546-.206-1.089-.307-1.633-.13-.7-.253-1.4-.388-2.1a9.024,9.024,0,0,0-.248-1.1,1.949,1.949,0,0,0-1.75-1.429c-.2-.022-.4-.027-.63-.042l-.819.087c-.321.028-.62.057-.92.081-.491.04-.983.078-1.475.117-.383.03-.765.068-1.148.087a1.263,1.263,0,0,0-.981.522l-2.028,2.644-3.029,3.95c-.012.016-.028.03-.053.057l-.519.671c-.05.074-.076.119-.108.161l-1.4,1.827c-.255.332-.514.661-.761,1a1.214,1.214,0,0,0-.174,1.15,1.37,1.37,0,0,0,.51.655q1.129.86,2.254,1.726,2.024,1.553,4.048,3.106a1.255,1.255,0,0,0,1.777-.213c.216-.283.437-.564.654-.847l4.407-5.746q1.414-1.845,2.831-3.688a1.286,1.286,0,0,0,.262-1.044m-.791.637c-.382.493-.759.991-1.138,1.486q-1.4,1.819-2.793,3.638L70.821,60.4a.727.727,0,0,1-.432.324.615.615,0,0,1-.519-.133l-.979-.75L63.62,55.794c-.043-.033-.085-.069-.129-.1a.6.6,0,0,1-.087-.846c.226-.285.443-.576.664-.864l3.219-4.194q1.985-2.587,3.968-5.175a.723.723,0,0,1,.579-.294c.452-.025.9-.07,1.352-.107.205-.017.41-.034.615-.049l1.845-.134c.212-.015.424-.035.7-.058a3.946,3.946,0,0,1,.585.084,1.24,1.24,0,0,1,.886.868,7.7,7.7,0,0,1,.2.857c.138.7.265,1.411.4,2.117.113.605.228,1.21.339,1.815a.627.627,0,0,1-.138.519" transform="translate(-59.153 -40.909)" fill="#cc8c00"/><path d="M16.934,2.381l-.819.087c-.043-.054-.071-.092-.1-.127-.416-.465-.838-.926-1.247-1.4a.779.779,0,0,0-.63-.281q-6.371,0-12.742,0a1.4,1.4,0,0,0-.245.022.561.561,0,0,0-.474.452,1.307,1.307,0,0,0-.01.246q0,3.911,0,7.822c0,.048,0,.1,0,.144a.553.553,0,0,0,.381.532.891.891,0,0,0,.3.04q2.471,0,4.941,0h.193l-.519.671-.251,0q-2.161,0-4.323,0a2.107,2.107,0,0,1-.449-.039A1.232,1.232,0,0,1,0,9.394c0-.062,0-.124,0-.185Q0,5.3,0,1.386A1.814,1.814,0,0,1,.05.919,1.239,1.239,0,0,1,1.23,0h.124q6.4,0,12.8,0a1.33,1.33,0,0,1,1.058.454c.15.17.3.338.453.507q.6.673,1.21,1.347a.771.771,0,0,1,.055.073" transform="translate(0 0)" fill="#139bcb"/><path d="M127.661,247.127a1.219,1.219,0,0,1-.237.749c-.16.214-.331.42-.484.64a.378.378,0,0,1-.585.078c-.534-.419-1.076-.828-1.614-1.241l-1.012-.776-.1-.077a.349.349,0,0,1-.072-.565q.242-.32.488-.637a1.184,1.184,0,0,1,.6-.411,1.165,1.165,0,0,1,1.091.18c.489.365.971.739,1.453,1.114a1.2,1.2,0,0,1,.467.946m-3.415-.993,2.316,1.775c.116-.152.23-.289.33-.435a.535.535,0,0,0-.106-.768c-.469-.369-.941-.734-1.419-1.09a.547.547,0,0,0-.814.118c-.1.123-.192.25-.306.4" transform="translate(-116.657 -231.357)" fill="#1a1818"/><path d="M156.584,197.773l.882.68.279-.355c.1-.124.188-.254.291-.372a.313.313,0,0,1,.44-.064.323.323,0,0,1,.087.454,1.444,1.444,0,0,1-.1.133l-.464.606c.281.238.583.447.884.688.1-.127.194-.242.285-.36.18-.233.359-.468.539-.7a.807.807,0,0,1,.092-.11.329.329,0,0,1,.513.4.979.979,0,0,1-.092.136c-.32.419-.646.835-.961,1.258a.372.372,0,0,1-.568.072c-.909-.707-1.826-1.4-2.739-2.1a.341.341,0,0,1-.072-.548q.5-.655,1-1.3a.574.574,0,0,1,.1-.105.325.325,0,0,1,.416.011.319.319,0,0,1,.079.391,1.594,1.594,0,0,1-.151.219c-.208.272-.418.543-.626.815-.037.048-.069.1-.113.164" transform="translate(-147.207 -185.315)" fill="#1a1818"/><path d="M202.334,167.11l-.678.885.383.56c.039.056.081.111.116.169a.334.334,0,0,1-.079.471.342.342,0,0,1-.47-.1c-.129-.177-.251-.359-.376-.539q-.825-1.19-1.648-2.381a2.226,2.226,0,0,1-.139-.227.278.278,0,0,1,.05-.324.31.31,0,0,1,.309-.122,1.324,1.324,0,0,1,.194.064l3.261,1.164a1.391,1.391,0,0,1,.171.07.317.317,0,0,1,.178.391.325.325,0,0,1-.384.23,1.082,1.082,0,0,1-.176-.055l-.712-.256m-.656-.238c-.361-.116-.682-.258-1.055-.361l.633.908.422-.547" transform="translate(-188.441 -156.392)" fill="#1a1818"/><path d="M226.92,135.065l.645-.838c.08-.1.159-.206.242-.307a.314.314,0,0,1,.337-.1.317.317,0,0,1,.231.241.3.3,0,0,1-.049.254c-.053.08-.112.156-.171.232l-.826,1.077-.038.048c-.193.236-.335.256-.577.071q-.957-.73-1.911-1.464c-.272-.209-.543-.418-.816-.626a.371.371,0,0,1-.171-.245.317.317,0,0,1,.128-.326.322.322,0,0,1,.35-.021.745.745,0,0,1,.118.081L226.7,134.9c.07.054.142.1.223.164" transform="translate(-211.499 -125.708)" fill="#1a1818"/><path d="M282.74,78.386A1.186,1.186,0,1,1,281.55,77.2a1.168,1.168,0,0,1,1.189,1.183m-1.7,0a.5.5,0,0,0,.514.523.525.525,0,0,0,.52-.506.536.536,0,0,0-.516-.535.5.5,0,0,0-.518.517" transform="translate(-264.944 -72.956)" fill="#1a1818"/><g transform="translate(2.401 2.408)"><path d="M56.815,45.63a1.352,1.352,0,0,1-.108.205c-.357.5-.718,1-1.078,1.5l-2.362,3.29a1.5,1.5,0,0,1-.124.163.329.329,0,0,1-.529-.385,1.072,1.072,0,0,1,.08-.119q1.738-2.422,3.477-4.842a.769.769,0,0,1,.091-.111.314.314,0,0,1,.36-.068.336.336,0,0,1,.194.363" transform="translate(-52.079 -45.158)" fill="#107ba1"/><path d="M44.822,43.769a1.169,1.169,0,0,0-1.178,1.177,1.182,1.182,0,0,0,1.185,1.188,1.183,1.183,0,1,0-.008-2.365m0,1.705a.534.534,0,0,1-.512-.514.515.515,0,0,1,.519-.519.494.494,0,0,1,.513.515.515.515,0,0,1-.52.518" transform="translate(-43.644 -43.769)" fill="#107ba1"/><path d="M96.7,105.95a1.182,1.182,0,1,0-.01,2.363,1.182,1.182,0,1,0,.01-2.363m0,1.7a.508.508,0,0,1-.515-.522.5.5,0,0,1,.52-.511.516.516,0,0,1-.005,1.032" transform="translate(-92.656 -102.529)" fill="#107ba1"/></g></g></svg>