<svg xmlns="http://www.w3.org/2000/svg" width="26.062" height="26.063" viewBox="0 0 26.062 26.063"><path d="M124.1,140.421a1.693,1.693,0,0,0-.1-.2l-7.407-13.407a1.675,1.675,0,0,0-.147-.237.491.491,0,0,0-.806,0,1.939,1.939,0,0,0-.157.259l-2.791,5.046c-.04.071-.082.141-.132.227l.639.981,2.846-5.15,4.189,7.579c-.133.3-.274.4-.5.35a.851.851,0,0,1-.3-.17c-.441-.344-.877-.694-1.314-1.042-.179-.142-.357-.286-.537-.427a1.434,1.434,0,0,0-1.943.079c-.272.255-.541.513-.812.77-.06.057-.122.111-.2.185l.571.879.818-.774c.092-.087.182-.178.275-.263a.446.446,0,0,1,.694-.038c.375.291.744.589,1.115.884.252.2.5.4.757.6a1.577,1.577,0,0,0,.725.343,1.449,1.449,0,0,0,1.039-.227c.055-.035.11-.073.187-.124l1.955,3.537h-6.228l0,0H115.1s0,0,0,0h-2.02l0,0h-3.957l0,0h-1.239l0,0h-2.2l0,0h-.66l-.275-.471.87,1.5h17.825c.068,0,.136,0,.2,0a.5.5,0,0,0,.449-.689" transform="translate(-98.072 -118.307)" fill="#d19618"/><path d="M6.678,203.636v0c-.35-.591-.687-1.158-1.027-1.765.152,0,.263.009.371,0a.518.518,0,0,0,.434-.761c-.029-.061-.066-.118-.1-.177q-.5-.855-1-1.711a1.252,1.252,0,0,1-.064-.163c.117-.01.21-.013.3-.028a.494.494,0,0,0,.388-.65,1.516,1.516,0,0,0-.127-.248c-.208-.36-.418-.717-.626-1.076-.038-.064-.069-.132-.106-.2L4.5,195.8c-.063-.1-.113-.179-.161-.258-.108-.182-.205-.372-.324-.546a.5.5,0,0,0-.854-.014,1.52,1.52,0,0,0-.095.15l-1.345,2.3c-.162.278-.332.552-.484.835a.506.506,0,0,0,.424.773c.071,0,.142.015.235.025-.059.106-.1.186-.149.265-.332.571-.657,1.146-1,1.711a.532.532,0,0,0,.481.831c.088,0,.175,0,.295.005C1,202.771.5,203.624,0,204.477v.305c.092.143.182.293.361.333a1.481,1.481,0,0,0,.328.021H7.549Zm-5.26.477c.047-.089.083-.163.124-.235q.614-1.053,1.229-2.1c.05-.087.092-.18.135-.272a.5.5,0,0,0-.4-.641c-.133-.01-.268-.017-.439-.027.055-.1.1-.179.142-.256q.468-.8.937-1.6a2.256,2.256,0,0,0,.11-.2.514.514,0,0,0-.391-.75c-.082-.015-.167-.014-.286-.023l1-1.722,1,1.721c-.091.006-.156.009-.221.015a.515.515,0,0,0-.437.789c.167.314.354.616.534.923l.537.921c.029.05.056.1.1.179-.158.01-.289.019-.42.024a.5.5,0,0,0-.4.7c.031.06.061.12.095.179q.254.439.511.877.378.646.756,1.294c.038.064.069.132.109.21Z" transform="translate(0 -182.334)" fill="#d19618"/><path d="M80.783,50.8q-1.887-3.642-3.776-7.282c-.031-.06-.062-.12-.1-.177a.505.505,0,0,0-.881-.008,2.49,2.49,0,0,0-.121.223L70.713,53.56c-.038.072-.08.141-.133.234L71.2,54.85l.835-1.606c.062.037.1.057.135.08.232.156.459.321.7.467a1.267,1.267,0,0,0,1.588-.179,2.459,2.459,0,0,0,.372-.51c.413-.719.814-1.446,1.221-2.169a1.319,1.319,0,0,1,.136-.214.269.269,0,0,1,.4-.048c.069.049.128.112.193.166a1.29,1.29,0,0,0,1.7-.024c.179-.168.339-.356.507-.535.073-.078.145-.157.233-.253.048.086.081.143.111.2.184.353.366.706.551,1.058a1.5,1.5,0,0,0,.148.236.467.467,0,0,0,.5.17.477.477,0,0,0,.379-.366.691.691,0,0,0-.119-.528m-2.611-1.151c-.1.108-.193.214-.288.323A.316.316,0,0,1,77.38,50a1.449,1.449,0,0,0-.622-.38,1.3,1.3,0,0,0-1.382.469,5.424,5.424,0,0,0-.335.539c-.367.648-.73,1.3-1.095,1.949-.025.045-.049.089-.075.133-.17.284-.305.319-.576.139-.253-.169-.5-.342-.78-.531,1.317-2.539,2.62-5.051,3.949-7.612l2.249,4.333-.541.607" transform="translate(-66.08 -40.329)" fill="#d19618"/><path d="M238.017,0c.078.024.156.052.235.071a3.324,3.324,0,0,1,2.119,1.46c.032.049.067.1.11.161.054.012.118.031.184.041a2.466,2.466,0,0,1,2.08,2.324.528.528,0,0,1-.588.624q-.941.006-1.883,0a.754.754,0,0,1-.272-.05.5.5,0,0,1-.3-.535.5.5,0,0,1,.442-.425,2.635,2.635,0,0,1,.28-.008h1.189a.946.946,0,0,0-.233-.423,1.357,1.357,0,0,0-.991-.5.458.458,0,0,0-.051,0,.721.721,0,0,1-.735-.466,2.2,2.2,0,0,0-2.017-1.237,2.231,2.231,0,0,0-2.147,1.394c-.211.509-.431.649-1.006.416a1.41,1.41,0,0,0-1.792.633,1.969,1.969,0,0,0-.08.188h3.323a2.5,2.5,0,0,1,.254.007.5.5,0,0,1,.115.974.792.792,0,0,1-.249.037q-1.985,0-3.97,0a1.054,1.054,0,0,1-.127,0,.512.512,0,0,1-.468-.511,2.363,2.363,0,0,1,.473-1.446,2.439,2.439,0,0,1,1.775-1.014,3.965,3.965,0,0,1,.756.054,1.146,1.146,0,0,1,.129.026c.129-.181.248-.365.384-.536a3.282,3.282,0,0,1,2.005-1.2A.788.788,0,0,0,237.1,0Z" transform="translate(-216.688)" fill="#d19618" opacity="0.2"/><path d="M0,83.6a.644.644,0,0,1,.577-.341,1.9,1.9,0,0,1,.755.2c.052.028.1.059.163.094a1.825,1.825,0,0,1,.855-.285.907.907,0,0,1,.368.057.488.488,0,0,1,.278.5.506.506,0,0,1-.377.431A1.407,1.407,0,0,1,2.4,84.3a.706.706,0,0,0-.428.2l-.093.087a.529.529,0,0,1-.786-.031A.7.7,0,0,0,.582,84.3.724.724,0,0,1,0,83.951Z" transform="translate(-0.001 -77.945)" fill="#d19618"/><path d="M30.349,0c.043.037.086.074.13.11a.49.49,0,0,1,.169.545.452.452,0,0,1-.417.354,1.036,1.036,0,0,0-.69.326.5.5,0,0,1-.726,0,1.038,1.038,0,0,0-.69-.326.452.452,0,0,1-.417-.354A.49.49,0,0,1,27.878.11c.044-.036.087-.073.13-.11h.509l.662.27L29.84,0h.509" transform="translate(-25.92)" fill="#d19618"/><path d="M164.327,392.836h3.1a1.959,1.959,0,0,1,.229,0,.506.506,0,0,1,.007,1.005,1.58,1.58,0,0,1-.2.006h-6.279a1.706,1.706,0,0,1-.2,0,.506.506,0,0,1-.007-1.006,1.82,1.82,0,0,1,.228-.006h3.127" transform="translate(-150.293 -367.79)" fill="#d19618"/><path d="M294.332,368.305h-3.1A1.772,1.772,0,0,1,291,368.3a.507.507,0,0,1,.007-1.005,1.677,1.677,0,0,1,.2,0h6.234a1.38,1.38,0,0,1,.228.009.505.505,0,0,1-.007,1,1.7,1.7,0,0,1-.254.008h-3.079" transform="translate(-272.035 -343.871)" fill="#d19618"/><path d="M45.616,367.283c.618,0,1.236,0,1.855,0a.524.524,0,0,1,.48.228.5.5,0,0,1-.337.781,1.427,1.427,0,0,1-.228.008H43.8a1.55,1.55,0,0,1-.2-.006.506.506,0,0,1,.008-1.005,1.744,1.744,0,0,1,.2,0h1.8" transform="translate(-40.406 -343.865)" fill="#d19618"/><path d="M284.637,87.162c.229-.083.422-.17.625-.222a1.513,1.513,0,0,1,.452-.036.474.474,0,0,1,.445.441.487.487,0,0,1-.341.528.28.28,0,0,1-.073.02,1.123,1.123,0,0,0-.754.366.491.491,0,0,1-.709-.054.871.871,0,0,0-.623-.3.456.456,0,0,1-.122-.033.487.487,0,0,1-.342-.614.481.481,0,0,1,.437-.363,1.615,1.615,0,0,1,.858.18c.053.026.1.056.148.081" transform="translate(-265.121 -81.356)" fill="#d19618"/><path d="M64.6,51.39c.257-.089.476-.177.7-.239a1.118,1.118,0,0,1,.377-.025.5.5,0,0,1,.451.472.511.511,0,0,1-.393.524c-.049.012-.1.011-.151.018a.806.806,0,0,0-.5.231,1.088,1.088,0,0,1-.116.1.5.5,0,0,1-.708-.024,1.053,1.053,0,0,0-.672-.317.506.506,0,0,1-.459-.519.517.517,0,0,1,.519-.49,1.653,1.653,0,0,1,.8.194c.053.026.1.056.14.076" transform="translate(-59.114 -47.86)" fill="#d19618"/><path d="M351.229,152.335a1.889,1.889,0,0,1,.907-.294.516.516,0,0,1,.544.7.469.469,0,0,1-.328.293,1.374,1.374,0,0,1-.224.045.712.712,0,0,0-.449.212c-.024.024-.048.048-.074.07a.5.5,0,0,1-.766,0,.9.9,0,0,0-.6-.286.473.473,0,0,1-.1-.026.5.5,0,0,1-.409-.578.533.533,0,0,1,.579-.424,1.844,1.844,0,0,1,.8.232c.036.021.075.038.122.061" transform="translate(-327.425 -142.346)" fill="#d19618"/><path d="M129.9,393.885a.507.507,0,1,1,.494-.531.515.515,0,0,1-.494.531" transform="translate(-121.135 -367.824)" fill="#d19618"/><path d="M329.027,57.494a.514.514,0,0,1,.521.505.511.511,0,0,1-1.022,0,.515.515,0,0,1,.5-.5" transform="translate(-307.581 -53.828)" fill="#d19618"/><path d="M116.521,198.07h1.227l-2.566-3.937-.571-.879-.178-.273-1.24-1.9v0l-.639-.981-.889-1.359a2.724,2.724,0,0,0-.156-.232.509.509,0,0,0-.814,0,2.626,2.626,0,0,0-.156.231l-5.649,8.667c-.04.059-.084.117-.143.2l.275.471h.66l4.9-7.516c.006.136.012.207.012.279q0,1.451,0,2.9a.574.574,0,0,1-.085.335q-1.288,1.966-2.57,3.938a.564.564,0,0,1-.053.062h1.239l1.976-3.033,1.976,3.033h2.02a16.672,16.672,0,0,1-.014-2.2l1.436,2.2m-4.895-7.44.031-.024,1.908,2.926a10.056,10.056,0,0,1-1.938.032Zm2.38,6.976c-.67-1.01-1.29-1.981-1.926-2.947a12.466,12.466,0,0,1,1.926-.025Z" transform="translate(-98.072 -176.298)" fill="#d19618"/></svg>