<svg xmlns="http://www.w3.org/2000/svg" width="67.537" height="72.374" viewBox="0 0 67.537 72.374"><path d="M42.089,49.447c0,.068,0,.134,0,.2v-.6c0,.132-.008.265,0,.4m11.893,4.319a13.159,13.159,0,0,0-1.843-.4,5.125,5.125,0,0,1-2.517-1.054c-.3-.247-.61-.485-.921-.715a4.978,4.978,0,0,0-3.125-1.015c-.339,0-.678,0-1.05,0-.019-.084-.041-.16-.055-.234l-.025,2.677a3.428,3.428,0,0,1,2.76.405,12.768,12.768,0,0,1,1.042.793,7.125,7.125,0,0,0,3.442,1.457c.477.078.953.177,1.424.288a4.774,4.774,0,0,1,.629.245,3.974,3.974,0,0,1,.107.879c-.1.988-.245,1.971-.382,2.955a1.031,1.031,0,0,1-.941.945c-1.21.242-2.418.5-3.606.84a14.268,14.268,0,0,0-2.153.855c-.68.318-1.331.7-1.991,1.062a6.191,6.191,0,0,0-3.331,4.276,1.275,1.275,0,0,1-.982,1.054c-.725.193-1.465.321-2.2.471-.758.158-1.533.255-2.271.475A2.666,2.666,0,0,0,34,71.956a3.169,3.169,0,0,0,.121,1.716,2.817,2.817,0,0,0,.3.74c.859,1.379,1.695,2.778,2.62,4.112A3.016,3.016,0,0,0,39.9,79.8c.943-.068,1.888-.136,2.827-.257a4.276,4.276,0,0,1,1.73.055c.764.216,1.533.415,2.34.633v-2.5c-.257-.053-.44-.074-.612-.129a10.648,10.648,0,0,0-5.036-.281c-.431.068-.869.07-1.3.125a1.07,1.07,0,0,1-1.1-.549c-.717-1.126-1.438-2.25-2.129-3.39a5.987,5.987,0,0,1-.38-1.029,7.013,7.013,0,0,1,.9-.316c1.046-.206,2.1-.355,3.142-.59a7.657,7.657,0,0,0,1.707-.6,2.966,2.966,0,0,0,1.685-2.164,4.147,4.147,0,0,1,2.287-3.018c.75-.4,1.49-.814,2.244-1.206a12.35,12.35,0,0,1,2.916-.867c.707-.168,1.422-.3,2.131-.464a3.028,3.028,0,0,0,2.4-2.273A12.85,12.85,0,0,0,56,59.2a19.708,19.708,0,0,0,.2-2.39,2.908,2.908,0,0,0-2.221-3.041M75.67,96.727a3.874,3.874,0,0,1-2.949.388,2.774,2.774,0,0,1-.337-.185c.056-.249.1-.458.152-.664a19.671,19.671,0,0,0,.442-5.858c-.068-1.286-.092-2.573-.132-3.859a12.221,12.221,0,0,0-.425-2.87c-.69-2.484-2.24-3.323-4.446-3.47-.994-.064-1.987-.113-2.983-.134a4.636,4.636,0,0,1-3.7-2.131A2.221,2.221,0,0,1,61,75.672a13.543,13.543,0,0,1,.82-1.617c.355-.635.76-1.243,1.1-1.886a3.68,3.68,0,0,0,.446-2.525,2.651,2.651,0,0,1,0-.386c.269-.279.582-.6.873-.9a36.147,36.147,0,0,0,9.559.734,2.127,2.127,0,0,0,1.41-.5,4.492,4.492,0,0,0,1.525-4.124,2.864,2.864,0,0,0-1.958-2.344,5.647,5.647,0,0,0-2.581-.251c-1.812.156-3.629.269-5.443.392a5.868,5.868,0,0,1-.672-.033,7.3,7.3,0,0,1-.111-3.4,1.994,1.994,0,0,1,.777-1.192A8.321,8.321,0,0,1,69.1,56.408l.014-2.577c-.327.132-.633.261-.945.382a12.267,12.267,0,0,0-2.755,1.467,4.644,4.644,0,0,0-1.88,3.168,9.733,9.733,0,0,0,.36,4.317,1.619,1.619,0,0,0,1.71,1.4c1.309.031,2.622-.008,3.929-.074,1.163-.06,2.32-.263,3.481-.288,1.138-.025,1.716.308,1.268,1.654a6.172,6.172,0,0,1-.411.818,1.514,1.514,0,0,1-.327.086c-1.432-.021-2.866-.016-4.3-.088-1.038-.053-2.075-.2-3.109-.325a7.952,7.952,0,0,1-1.064-.228,2.573,2.573,0,0,0-2.279.419,5.077,5.077,0,0,0-1.675,1.981,1.739,1.739,0,0,0-.136,1.407,1.356,1.356,0,0,1-.169,1.186c-.372.655-.766,1.3-1.151,1.942a8.435,8.435,0,0,0-1.142,2.813,4.3,4.3,0,0,0,.536,2.944A7.725,7.725,0,0,0,62.182,81.8a6.036,6.036,0,0,0,2.016.559c.861.125,1.742.117,2.612.173.557.035,1.112.08,1.668.131a1.637,1.637,0,0,1,1.477,1.124,8.612,8.612,0,0,1,.4,1.393,9.754,9.754,0,0,1,.154,1.447c.066,1.724.1,3.448.171,5.172A14.288,14.288,0,0,1,70.19,95.9c-.588,2.328,1.007,3.458,2.727,3.684.191.025.386.021.662.035a27.609,27.609,0,0,0,3.22-3.884,2.732,2.732,0,0,1-1.13.992M72.341,55.214s-.3-.316-.82-.781l0,1.132c.263-.113.5-.214.818-.351M55.436,81.893a18.43,18.43,0,0,0-4.383-2.566c-.6-.263-1.2-.5-1.818-.762L49.2,81.187a4.655,4.655,0,0,1,.528.148,16.771,16.771,0,0,1,4,2.209c.154.119.3.249.448.374A2.445,2.445,0,0,1,55,86.457a11.118,11.118,0,0,1-2.538,5.16c-.678.828-1.373,1.64-2.032,2.482a10.555,10.555,0,0,0-2.166,4.479c-.181.9-.3,1.818-.495,2.716a7.732,7.732,0,0,1-1.017,2.556,1.481,1.481,0,0,1-.777.736,1.424,1.424,0,0,1-.838-.865,15.761,15.761,0,0,1-1-2.488c-.411-1.543-.7-3.119-1.052-4.677a18.639,18.639,0,0,0-1.3-3.927,8.276,8.276,0,0,0-2.829-3.358c-.179-.123-.353-.257-.54-.37a3.888,3.888,0,0,1-1.884-3.045c-.14-1.229-.224-2.464-.286-3.7A6.678,6.678,0,0,0,34.274,77.6a11.628,11.628,0,0,0-2.538-1.934,20.035,20.035,0,0,1-5.055-3.9,20.793,20.793,0,0,1-4.2-7.227A13.912,13.912,0,0,0,21.2,67.8a4.768,4.768,0,0,1,.277.442,21.169,21.169,0,0,0,8.831,9.32,10.941,10.941,0,0,1,2.071,1.469,4.843,4.843,0,0,1,1.551,3.561c.047,1.212.134,2.423.286,3.625a5.987,5.987,0,0,0,2.733,4.518c.121.08.232.177.355.255a6.761,6.761,0,0,1,2.727,3.495,28.3,28.3,0,0,1,1.182,4.718,20.068,20.068,0,0,0,1.313,4.527,14.287,14.287,0,0,0,1.069,1.9,2.926,2.926,0,0,0,1.327,1.107,2.541,2.541,0,0,0,2.729-.392,5.518,5.518,0,0,0,1.438-1.812,11.434,11.434,0,0,0,1.27-4.151,9.674,9.674,0,0,1,2.351-5.375c.816-.966,1.611-1.948,2.375-2.953a11.7,11.7,0,0,0,2.371-6.39,3.45,3.45,0,0,0-.464-1.956,6.444,6.444,0,0,0-1.558-1.814M42.093,49.65v-.6c0,.132-.008.265,0,.4,0,.068,0,.134,0,.2M39.319,53.9c.723-.084,1.436-.23,2.153-.349.168-.027.333-.051.575-.088l.047-2.441c-.795.15-1.553.271-2.3.44-1.514.339-2.852-.206-4.315-.793l-2.644,1.638c1.062.36,2.139.713,3.207,1.1a7.188,7.188,0,0,0,3.279.495m2.77-4.457c0,.068,0,.134,0,.2v-.6c0,.132-.008.265,0,.4" transform="translate(-17.072 -39.495)" fill="#174791"/><path d="M63.547,79.069A33.749,33.749,0,0,1,.249,67.287,33.1,33.1,0,0,1,5.8,44.3,33.628,33.628,0,0,1,25.021,30.54v2.947a2.278,2.278,0,0,0-.072-.45,30.585,30.585,0,0,0-6.544,2.733l-2.644,1.638A31.174,31.174,0,0,0,5.406,49.629,13.912,13.912,0,0,0,4.13,52.9,31.332,31.332,0,0,0,56.508,84.716a27.608,27.608,0,0,0,3.22-3.884,31.186,31.186,0,0,0,5.353-15.419,30.587,30.587,0,0,0-.608-8.762,31.324,31.324,0,0,0-7.163-14.2c-.651-.744-1.364-1.434-2.042-2.141,0,0-.3-.316-.82-.781l0-3.057A33.441,33.441,0,0,1,66.973,57.2a32.819,32.819,0,0,1-3.427,21.869" transform="translate(0 -24.591)" fill="#174791"/><path d="M137.4,7.2c-1.258-.935-.146-2.4-.146-2.4.1-.181.164-.31.242-.427.23-.343.46-.686.7-1.021a1.18,1.18,0,0,0-.966-1.919c-.195.008-.39,0-.584,0q-2.624,0-5.248,0c-.238,0-.473-.019-.736-.033-.033-.181-.053-.323-.086-.462A1.167,1.167,0,0,0,128.29.919a2.912,2.912,0,0,0-.039.653c0,1.434,0,2.868,0,4.377V8.9c.016.222.006.44,0,.658v.6c.01.438,0,.882,0,1.377l-.047,2.441c.018.236.045.44.045.647,0,1.7,0,3.4,0,5.1a1.2,1.2,0,0,0,.845,1.294,1.126,1.126,0,0,0,1.473-.892,4.509,4.509,0,0,0,.031-.727q0-2.551,0-5.1v-.766l.025-2.677a.866.866,0,0,1-.019-.121,1.955,1.955,0,0,1,.023-.327,1.826,1.826,0,0,1,.339-.066q2.881-.006,5.76,0a5.272,5.272,0,0,0,.582-.006,1.179,1.179,0,0,0,.945-1.82c-.238-.417-.528-.807-.861-1.307m-6.75.725V3.82H135c-.292.427-.538.781-.775,1.14a1.342,1.342,0,0,0-.016,1.8c.24.358.485.713.795,1.171Z" transform="translate(-103.227 0)" fill="#8f9"/><path d="M74.113,76.062h5.968a4.521,4.521,0,0,1,.582.013,1.2,1.2,0,0,1,.912,1.971c-.421.652-.876,1.282-1.313,1.924-.122.179-.235.363-.376.582.546.8,1.1,1.594,1.626,2.406a1.884,1.884,0,0,1,.305.794,1.07,1.07,0,0,1-.993,1.206,5.118,5.118,0,0,1-.654.019q-2.659,0-5.318,0h-.807v.844q0,4.081,0,8.162a3.731,3.731,0,0,1-.1.934,1.154,1.154,0,0,1-2.187.057,2.248,2.248,0,0,1-.11-.712q-.009-9.073,0-18.146a2.179,2.179,0,0,1,.146-.777,1.168,1.168,0,0,1,2.124.043,6.685,6.685,0,0,1,.2.678M78.4,78.513H74.128a19.808,19.808,0,0,0,.028,4.054,18.606,18.606,0,0,0,4.17-.091c-.234-.347-.464-.684-.69-1.024a1.336,1.336,0,0,1,.017-1.853c.227-.337.459-.671.744-1.087" transform="translate(-57.684 -60.132)" fill="#8f9"/><path d="M190.806,34.174V32.919a31.264,31.264,0,0,0-17.883-5.877c-1.258-.935-.146-2.4-.146-2.4a36.22,36.22,0,0,1,9.436,1.44,34.589,34.589,0,0,1,8.632,3.978Z" transform="translate(-138.753 -19.84)" fill="#174791"/><path d="M276.91,9c-.514-.762-1.034-1.52-1.558-2.287.565-.828,1.114-1.631,1.662-2.431a1.349,1.349,0,0,0,.3-1.017,1.191,1.191,0,0,0-1.315-1c-1.9-.008-3.793,0-5.688,0H269.6a6.138,6.138,0,0,0-.218-.731,1.177,1.177,0,0,0-1.241-.7,1.148,1.148,0,0,0-.962,1.042,6.054,6.054,0,0,0-.023.729v8.272l-.039,4.116a.012.012,0,0,1-.008,0l-.014,2.577c.023.2.056.357.058.512.006.8-.008,1.605.008,2.406a2.283,2.283,0,0,0,.127.781,1.126,1.126,0,0,0,1.19.655,1.249,1.249,0,0,0,1.013-1.019,3.854,3.854,0,0,0,.023-.655c0-1.165,0-2.328,0-3.524l-.006-4.188a6.075,6.075,0,0,1,.082-1.385h6.076a5.8,5.8,0,0,0,.582-.006,1.158,1.158,0,0,0,.994-1.588A2.78,2.78,0,0,0,276.91,9m-7.288-.2a21.82,21.82,0,0,1-.037-4.159h4.307c-.292.434-.534.824-.807,1.188a1.341,1.341,0,0,0,.014,1.792c.273.362.51.75.8,1.179Z" transform="translate(-215.06 -0.661)" fill="#8f9"/><path d="M162.573,148.621c-.44-.725-.947-1.41-1.424-2.114-.109-.16-.214-.321-.339-.508l1.471-2.168a5.387,5.387,0,0,0,.321-.487,1.166,1.166,0,0,0-.988-1.784c-.242-.016-.487,0-.729,0H155.05c-.068-.244-.115-.452-.189-.651a1.176,1.176,0,0,0-1.106-.795,1.144,1.144,0,0,0-1.1.9,4.319,4.319,0,0,0-.084.939q-.009,4.12,0,8.242v4.14c0,1.726,0,3.452,0,5.178a3.689,3.689,0,0,0,.094.865,1.14,1.14,0,0,0,2.182.086,2.938,2.938,0,0,0,.121-.855c.01-1.436,0-2.87,0-4.3v-.789l.037-2.622v-1.442h.818l5.4,0c.121,0,.243.006.364,0a1.161,1.161,0,0,0,.986-1.823m-7.477-.536a19.969,19.969,0,0,1-.057-4.151h4.311c-.3.438-.565.842-.845,1.231a1.311,1.311,0,0,0,0,1.673c.281.392.545.793.853,1.247Z" transform="translate(-122.846 -112.815)" fill="#8f9"/></svg>