<svg xmlns="http://www.w3.org/2000/svg" width="69.43" height="66.027" viewBox="0 0 69.43 66.027"><path d="M156.8,123.18v-.874q0-6.71,0-13.42a6.782,6.782,0,0,0-.024-.743,1.268,1.268,0,0,0-1.032-1.186,3.524,3.524,0,0,0-.8-.068q-4.711-.008-9.421,0h-.806v-.8q0-6.541,0-13.082a7.156,7.156,0,0,0-.022-.744,1.27,1.27,0,0,0-1.008-1.13,3.174,3.174,0,0,0-.671-.073q-5.726-.024-11.455-.038c-1.133,0-1.638.522-1.641,1.668,0,2.169,0,4.339,0,6.507,0,.236-.019.474-.031.736h-10.11a7.188,7.188,0,0,0-.746.018,1.29,1.29,0,0,0-1.175,1.2c-.02.224-.01.451-.01.678v12.851l2.744,0v-12h9.291v12.771l2.786,1.178v-22.8h9.282v26.644a6.275,6.275,0,0,1,2.884,2.275,1.312,1.312,0,0,1-.107-.489q-.018-6.095-.007-12.192a3.366,3.366,0,0,1,.046-.367h9.272v21.036l2.793-.579v-2.9Z" transform="translate(-101.831 -78.654)" fill="#8f9"/><path d="M69.271,262.985a5.9,5.9,0,0,0-7.017-4.344c-2.136.459-4.262.965-6.393,1.448-.276.062-.556.111-.867.174l-2.793.579c-2.593,1.111-7.626,1.6-9.318.882a5.508,5.508,0,0,1-1.311-.462,3.851,3.851,0,0,0,1.372-1.5,2.441,2.441,0,0,1,.159-.329c.072-.133.14-.268.2-.4a.121.121,0,0,0,.011-.023,6.112,6.112,0,0,0-.073-5.676l0-.007a5.522,5.522,0,0,1-.243-.475,6.275,6.275,0,0,0-2.884-2.275l-9.282-3.84-2.786-1.178c-.274-.106-.52-.182-.75-.295A4.843,4.843,0,0,0,25,244.808c-1.852.034-3.7.012-5.558.009-.22,0-.44-.018-.691-.03l-2.744,0h-3c0-.409-.023-.789,0-1.164.117-1.551-.66-2.136-1.99-2.024-.242.02-.486,0-.731,0a13.744,13.744,0,0,1-2.908,0H6.708c-1.717,0-3.434.019-5.151-.007A1.514,1.514,0,0,0,0,243.158c.026,7.817.014,15.635.016,23.451,0,1.049.485,1.545,1.521,1.546q4.948.01,9.9,0a1.4,1.4,0,0,0,1.577-1.588c.005-.327,0-.656,0-1.016,1.6,0,3.085-.015,4.574.01a3.267,3.267,0,0,1,1.11.22q9.983,3.892,19.955,7.811a15.73,15.73,0,0,0,9.557.784c3.156-.749,6.294-1.568,9.436-2.365,2.51-.636,5.028-1.246,7.521-1.941a5.721,5.721,0,0,0,4.118-4.275,3.22,3.22,0,0,1,.149-.355v-2.034c-.053-.141-.121-.279-.159-.422m-59.046,2.433H2.769V244.385h7.457Zm54.1,2.059c-3.354.883-6.719,1.724-10.081,2.577-2.183.553-4.362,1.126-6.555,1.637a13.3,13.3,0,0,1-8.033-.641Q29.528,267.077,19.4,263.1a4.271,4.271,0,0,0-1.644-.323c-1.354.016-2.71.007-4.066,0-.2,0-.4-.02-.636-.033V247.6a3.162,3.162,0,0,1,.436-.054q5.863-.006,11.724,0A2.121,2.121,0,0,1,26,247.7q6.531,2.692,13.055,5.4a3.383,3.383,0,0,1,2.127,2.529,3.527,3.527,0,0,1-3.108,4.135,3.941,3.941,0,0,1-1.723-.251c-2.792-1.087-5.591-2.152-8.389-3.225-.168-.064-.336-.136-.507-.19a1.38,1.38,0,0,0-1.793.753,1.346,1.346,0,0,0,.845,1.8c.9.371,1.8.71,2.707,1.057,3.427,1.315,6.862,2.614,10.284,3.945a16.93,16.93,0,0,0,10.232.652c4.343-1.012,8.692-2,13.04-2.986a3.174,3.174,0,0,1,1.555,6.155" transform="translate(0 -208.763)" fill="#174791"/><g transform="translate(7.108)"><path d="M56.3,114.688a1.358,1.358,0,0,0-1.448.984,27.71,27.71,0,0,0-2.531,11.676c0,1.5.177,3.009.278,4.59a13.742,13.742,0,0,0,2.908,0,1.728,1.728,0,0,1-.1-.31c-.109-1.122-.259-2.243-.308-3.368a24.74,24.74,0,0,1,2.127-11.2,5.363,5.363,0,0,0,.274-.69,1.33,1.33,0,0,0-1.2-1.683" transform="translate(-52.32 -99.104)" fill="#174791"/><path d="M413.158,166.587a27.278,27.278,0,0,1-5.074,13.306c-.935,1.293-2.08,2.434-3.129,3.645-.088.1-.182.2-.281.31l-.024-4.073c.215-.216.345-.325.448-.454a25.344,25.344,0,0,0,5.46-17.014c-.068-1.257-.289-2.506-.444-3.759-.024-.2-.076-.4-.081-.6a1.3,1.3,0,0,1,1.083-1.413,1.335,1.335,0,0,1,1.589,1.03c.121.481.209.971.283,1.46a29.794,29.794,0,0,1,.171,7.563" transform="translate(-356.787 -135.25)" fill="#174791"/><path d="M136.828,0a28.376,28.376,0,0,1,9.862,1.653c.17.06.34.122.5.2a1.357,1.357,0,0,1-.945,2.543c-.539-.162-1.063-.373-1.6-.535A25.687,25.687,0,0,0,120.166,9.15a2.13,2.13,0,0,1-.809.457,1.3,1.3,0,0,1-1.451-.623,1.354,1.354,0,0,1,.191-1.627,14.1,14.1,0,0,1,1.174-1.022A28,28,0,0,1,131.831.5a25.065,25.065,0,0,1,5-.492" transform="translate(-108.834 0)" fill="#174791"/></g><g transform="translate(47.198 3.682)"><path d="M352.248,45.671a1.42,1.42,0,0,1-1.388-.732,1.214,1.214,0,0,1,.091-1.4c.4-.518.837-1.005,1.267-1.5q4.883-5.623,9.769-11.243c.074-.085.145-.174.226-.252a1.361,1.361,0,0,1,2.059,1.776c-.3.4-.639.76-.965,1.134Q358.4,39.1,353.493,44.75a3.007,3.007,0,0,1-.511.538,5.452,5.452,0,0,1-.734.384" transform="translate(-350.239 -29.689)" fill="#8f9"/><path d="M406.059,99.6a3.4,3.4,0,1,1-3.408,3.4,3.415,3.415,0,0,1,3.408-3.4m.048,2.737a.628.628,0,0,0-.678.6.673.673,0,0,0,.622.745.7.7,0,0,0,.693-.687.663.663,0,0,0-.636-.66" transform="translate(-395.15 -89.75)" fill="#8f9"/><path d="M354.229,30.518a3.4,3.4,0,1,1-3.385-3.418,3.417,3.417,0,0,1,3.385,3.418m-3.4.658a.641.641,0,0,0,.678-.664.678.678,0,0,0-.7-.656.706.706,0,0,0-.653.645.667.667,0,0,0,.676.675" transform="translate(-347.434 -27.101)" fill="#8f9"/></g><path d="M92.8,80.779a1.362,1.362,0,0,1,1.371,1.363,1.413,1.413,0,0,1-1.407,1.348,1.386,1.386,0,0,1-1.327-1.35A1.338,1.338,0,0,1,92.8,80.779" transform="translate(-79.013 -69.805)" fill="#8f9"/></svg>