<svg xmlns="http://www.w3.org/2000/svg" width="65.585" height="64.072" viewBox="0 0 65.585 64.072"><path d="M204.592,315.667c-.079-.143-.136-.234-.181-.332a4.648,4.648,0,0,0-4.376-2.869c-1.588-.052-3.178-.04-4.767-.005a4.752,4.752,0,0,0-.377,9.493q2.644.058,5.291.007a4.585,4.585,0,0,0,4.136-2.614c.091-.169.168-.346.257-.53a5.1,5.1,0,0,0,.019-3.15m-4.558,3.16q-2.419.026-4.834,0a1.6,1.6,0,0,1-1.5-1.07,1.621,1.621,0,0,1,.466-1.728,1.557,1.557,0,0,1,1.084-.37c.806.007,1.611,0,2.417,0,.783,0,1.567-.009,2.35,0a1.524,1.524,0,0,1,1.632,1.563,1.559,1.559,0,0,1-1.616,1.6" transform="translate(-157.217 -257.912)" fill="#8f9"/><path d="M11.175,160.321c0-.347-.033-.695-.051-1.044a4.331,4.331,0,0,0-3.239-3.822c-.209-.052-.415-.112-.654-.176A4.852,4.852,0,0,0,4,155.84a.5.5,0,0,1-.066.065c-.056.033-.115.061-.173.092a6.735,6.735,0,0,0-3.753,6.252q-.013,3.594,0,7.186a10.416,10.416,0,0,0,.1,1.3A6.731,6.731,0,0,0,6.7,176.408a4.3,4.3,0,0,0,4.27-3.176,7.117,7.117,0,0,0,.2-1.806c.017-3.7.01-7.4.007-11.105m-3.19,3.493v7.708a4,4,0,0,0,0,.457,1.259,1.259,0,0,1-1.272,1.274,3.651,3.651,0,0,1-3.45-2.766,4.528,4.528,0,0,1-.113-.9c-.009-2.483-.021-4.964,0-7.446a3.576,3.576,0,0,1,2.4-3.466,5.6,5.6,0,0,1,1.078-.216A1.259,1.259,0,0,1,8,159.765c-.038,1.349-.01,2.7-.01,4.05" transform="translate(0 -128.124)" fill="#174791"/><g transform="translate(15.962 15.2)"><path d="M109.566,113.96q-2.608,2.656-5.218,5.312c-.214.217-.43.434-.66.632a3.068,3.068,0,0,1-3.456.566,3.148,3.148,0,0,1-1.968-2.915c-.046-1.021-.011-2.047-.012-3.07,0-.13,0-.26,0-.431-.395-.061-.773-.122-1.153-.176a6.6,6.6,0,0,1-5.53-5.709,13.832,13.832,0,0,1-.091-1.431q-.01-6.337,0-12.674a6.781,6.781,0,0,1,1.689-4.675,6.514,6.514,0,0,1,5.019-2.264q10.124-.033,20.249,0a6.6,6.6,0,0,1,6.5,5.208,7.155,7.155,0,0,1,.189,1.615q.022,6.6,0,13.2a6.691,6.691,0,0,1-4.254,6.375,7.026,7.026,0,0,1-2.612.474q-3.919-.006-7.838,0H109.7l-.134-.031m-8.156,3.529.165.065c.168-.163.337-.324.5-.489,1.854-1.84,3.717-3.67,5.553-5.528a2.145,2.145,0,0,1,1.741-.709c.543.03,1.088.006,1.632.006q3.591,0,7.182,0a3.576,3.576,0,0,0,3.252-1.7,3.829,3.829,0,0,0,.5-2.126q-.012-6.465,0-12.93c0-.174-.006-.348-.012-.522a3.281,3.281,0,0,0-1.212-2.435,3.572,3.572,0,0,0-2.475-.816q-9.924.019-19.848.007c-.131,0-.261,0-.392,0a3.311,3.311,0,0,0-2.623,1.365,3.588,3.588,0,0,0-.7,2.323c.012,3.9,0,7.793.005,11.689,0,.609-.008,1.219.012,1.828a3.3,3.3,0,0,0,1.445,2.646,3.715,3.715,0,0,0,2.21.662c.522.011,1.045-.013,1.566.017a1.488,1.488,0,0,1,1.49,1.5c.013.2.01.392.01.587q0,1.959,0,3.918v.633" transform="translate(-91.474 -87.106)" fill="#8f9"/><path d="M179.19,154.579a2.334,2.334,0,1,1-2.333-2.335,2.383,2.383,0,0,1,2.333,2.335" transform="translate(-160.029 -140.877)" fill="#8f9"/><path d="M131.016,154.568a2.324,2.324,0,0,1,2.317-2.325,2.334,2.334,0,0,1-.016,4.668,2.328,2.328,0,0,1-2.3-2.343" transform="translate(-124.116 -140.876)" fill="#8f9"/><path d="M222.818,154.583a2.329,2.329,0,0,1-2.318,2.327,2.334,2.334,0,0,1,.015-4.668,2.327,2.327,0,0,1,2.3,2.341" transform="translate(-196.066 -140.876)" fill="#8f9"/></g><path d="M80.474,27.727a6.773,6.773,0,0,0-3.268-.557,25.578,25.578,0,0,0-51.06-.014,4.852,4.852,0,0,0-3.233.56A28.544,28.544,0,0,1,33.818,6.272,27.9,27.9,0,0,1,53.505.055,28.788,28.788,0,0,1,80.474,27.727" transform="translate(-18.914 0)" fill="#174791"/><path d="M323.018,162.391a6.661,6.661,0,0,0-3.467-5.9c-.157-.094-.321-.181-.469-.26l-.068-.037a6.772,6.772,0,0,0-3.268-.557l-.558.155a4.239,4.239,0,0,0-3.165,3.148,5.6,5.6,0,0,0-.14,1.422q-.016,5.813,0,11.627c0,.241.012.48.023.719a4.311,4.311,0,0,0,3.251,3.877c.227.056.452.119.708.185a6.891,6.891,0,0,0,3.155-.578l.332-.188a6.736,6.736,0,0,0,3.678-6.233c.005-2.46.031-4.923-.007-7.381m-3.139,7.4a3.619,3.619,0,0,1-2.054,3.443,3.119,3.119,0,0,1-1.572.352,1.166,1.166,0,0,1-1.2-1.194c-.021-.63-.009-1.262-.009-1.893v-9.994c0-.174-.005-.349.005-.522a1.185,1.185,0,0,1,1.213-1.188,3.6,3.6,0,0,1,3.5,2.775,5.291,5.291,0,0,1,.113,1.035c.01,2.4.016,4.79,0,7.186" transform="translate(-257.454 -128.468)" fill="#174791"/><path d="M285.563,277.662a9.443,9.443,0,0,1-7.327,8.751,11.527,11.527,0,0,1-2.26.258c-1.52.038-3.043.01-4.595.01a5.1,5.1,0,0,0,.019-3.15c.174,0,.366,0,.56,0,1.632-.028,3.268.019,4.893-.1a6.2,6.2,0,0,0,5.444-5.04,8.259,8.259,0,0,0,.127-1.359c.019-.977.007-1.954.007-2.951a6.891,6.891,0,0,0,3.155-.578c0,.2,0,.417,0,.632-.005,1.174.016,2.352-.023,3.527" transform="translate(-224.026 -225.778)" fill="#174791"/></svg>