<svg xmlns="http://www.w3.org/2000/svg" xmlns:xlink="http://www.w3.org/1999/xlink" width="150.169" height="147.749" viewBox="0 0 150.169 147.749"><defs><clipPath id="a"><rect width="17.792" height="17.792" transform="translate(0 0)" fill="none"/></clipPath><clipPath id="c"><rect width="8.896" height="8.896" transform="translate(0 0)" fill="none"/></clipPath></defs><g transform="translate(24.275)"><g transform="translate(-19.089 0)"><path d="M33,97.971l8.544-.107H37.369V27.558c0-.526.015-1.055-.031-1.577a2.058,2.058,0,0,0-2.027-2.007h-.038a2.159,2.159,0,0,0-2.222,1.8A9.33,9.33,0,0,0,33,27.346q-.006,34.4,0,68.8Zm114.713-58.98c-1.735-1.842-3.527-3.65-5.423-5.327a44.1,44.1,0,0,0-27.615-11.2,74.706,74.706,0,0,0-11.042.311c-4.184.4-8.359.9-12.528,1.435a94.267,94.267,0,0,1-11.438.871,51,51,0,0,1-10.42-.791A39.848,39.848,0,0,1,51.39,15.617a44.607,44.607,0,0,1-5.22-4.967C46.086,8.77,46.063,7,45.909,5.239A5.521,5.521,0,0,0,42.524.606C42.113.407,41.706.2,41.3,0H37.849c-.1.088-.192.226-.311.257C34.9.933,32.975,3.109,32.994,6.6c.015,2.391,0,4.786.012,7.181a4.57,4.57,0,0,0,.134,1.274,2.072,2.072,0,0,0,2.134,1.508,2.446,2.446,0,0,0,.725-.15,2.03,2.03,0,0,0,1.363-2.126c0-2.3,0-4.6.012-6.893a8.227,8.227,0,0,1,.123-1.57A1.9,1.9,0,0,1,39.833,4.26a1.827,1.827,0,0,1,1.785,1.865c.015.238.008.48.008.718q0,44.958-.008,89.915c0,.368-.05.733-.077,1.105l4.544-.019V97.7c0-.925,0-1.838,0-2.737l.188-4.736c-.269-1.355-.253-15.8.019-16.976.315.092.626.173.933.276a28.025,28.025,0,0,0,6.555,1.432A35.926,35.926,0,0,0,69.514,72.54,77.3,77.3,0,0,0,84.87,64.549c7.024-4.633,13.955-9.407,20.925-14.12a3.965,3.965,0,0,0,.56-.445,2.055,2.055,0,0,0,.672-1.412,2.307,2.307,0,0,0-.514-1.435,1.581,1.581,0,0,0-.127-.154,1.965,1.965,0,0,0-2.537-.464,17.238,17.238,0,0,0-1.57,1C96.626,51.369,91,55.257,85.319,59.068A90.841,90.841,0,0,1,70.1,67.635c-5.538,2.341-11.242,3.734-17.31,2.771a21.589,21.589,0,0,1-6.7-2.142V67.1q.017-24.923.038-49.842c0-.038.046-.084.081-.115a.829.829,0,0,1,.169-.088c.192.169.407.349.614.541A44.9,44.9,0,0,0,77.942,29.542a126.787,126.787,0,0,0,15.583-1.171c4.7-.553,9.384-1.155,14.113-1.474a53.561,53.561,0,0,1,11.583.457,37.924,37.924,0,0,1,17.149,7.162c.276.207.53.445.921.775a5.816,5.816,0,0,1-.76,0,24,24,0,0,0-7.718.177,48.9,48.9,0,0,0-14.328,4.817,5.92,5.92,0,0,0-.871.5,2.06,2.06,0,0,0-.633,2.783,1.754,1.754,0,0,0,.111.18,2.035,2.035,0,0,0,2.552.814c.4-.154.779-.357,1.167-.545a49.793,49.793,0,0,1,9.741-3.65q1.4-.345,2.836-.564a25.32,25.32,0,0,1,9.538.284,26.846,26.846,0,0,1,5.891,2.184,2.356,2.356,0,0,0,1.9.372,2.163,2.163,0,0,0,.99-3.642" transform="translate(-3.381)" fill="#1a1818"/><path d="M41.277,288.318c-1.121-2.944-2.226-5.9-3.412-8.812a8.276,8.276,0,0,1-.595-3.2q.029-14.934,0-29.876a19.176,19.176,0,0,0-.23-2.852,9.967,9.967,0,0,0-8.724-8.252c-.8-.073-1.6-.165-2.376-.242l-.188,4.736a5.7,5.7,0,0,1,7.081,5.419c-.081,4.786-.019,9.572-.015,14.358q0,8.469,0,16.941c0,.952.088,1.9.134,2.867a158.34,158.34,0,0,1-16.212.107,5.681,5.681,0,0,1-.253-.622,11.243,11.243,0,0,0-3.508-5.308c-2.126-1.927-4.2-3.919-6.325-5.845a5.96,5.96,0,0,1-2.2-4.494c-.015-3.589-.107-7.181.073-10.762a5.54,5.54,0,0,1,5.8-5.346c4.068-.031,8.137-.008,12.205-.008.334,0,.672.015,1.006-.008a2.057,2.057,0,0,0,2.088-1.8,8.186,8.186,0,0,0,.119-1.566c0-.353.008-.706.008-1.055l-4.544.019-8.544.107c-1.044,0-1.942.012-2.84,0a8.294,8.294,0,0,0-3.612.794,9.928,9.928,0,0,0-6.156,9.242c-.127,3.2-.008,6.413-.035,9.622a10.825,10.825,0,0,0,3.746,8.505c2.311,2.08,4.544,4.249,6.816,6.375a5.522,5.522,0,0,1,1.865,3.757c.038.572.092,1.144.1,1.716q.017,3.379,0,6.751A2.164,2.164,0,0,0,14,291.83a3.665,3.665,0,0,0,1.27.111q11.779.006,23.558,0c.288,0,.576.015.86-.012a2.089,2.089,0,0,0,1.942-2.241,4.833,4.833,0,0,0-.353-1.374m-24.264-.741V284.02h17.9c.453,1.167.9,2.311,1.382,3.558Z" transform="translate(16.95 -144.854)" fill="#1a1818"/><path d="M40.063,286.707a158.34,158.34,0,0,1-16.212.107,5.681,5.681,0,0,1-.253-.622,11.243,11.243,0,0,0-3.508-5.308c-2.126-1.927-4.2-3.919-6.325-5.845a5.96,5.96,0,0,1-2.2-4.494c-.015-3.589-.107-7.181.073-10.762a5.54,5.54,0,0,1,5.8-5.346c4.068-.031,8.137-.008,12.205-.008.334,0,.672.015,1.006-.008a2.057,2.057,0,0,0,2.088-1.8,8.185,8.185,0,0,0,.119-1.566c0-.353.008-.706.008-1.055v-.146c0-.925,0-1.838,0-2.737a5.7,5.7,0,0,1,7.081,5.419c-.081,4.786-.019,9.572-.015,14.358q0,8.469,0,16.941c0,.952.088,1.9.134,2.867" transform="translate(9.846 -152.159)" fill="#139bcb"/><path d="M158.31,62.675a5.817,5.817,0,0,1-.76,0,24,24,0,0,0-7.718.177A48.9,48.9,0,0,0,135.5,67.664a5.92,5.92,0,0,0-.871.5A2.06,2.06,0,0,0,134,70.942a1.756,1.756,0,0,0,.111.18,59.806,59.806,0,0,0-6.705,3.243,1.965,1.965,0,0,0-2.537-.464,17.24,17.24,0,0,0-1.57,1c-5.654,3.85-11.28,7.738-16.961,11.549a90.841,90.841,0,0,1-15.222,8.567c-5.538,2.341-11.242,3.734-17.31,2.771a21.589,21.589,0,0,1-6.7-2.142V94.485q.017-24.923.038-49.842c0-.038.046-.084.081-.115a.829.829,0,0,1,.169-.088c.192.169.407.349.614.541A44.9,44.9,0,0,0,98.961,56.925a126.787,126.787,0,0,0,15.583-1.171c4.7-.553,9.384-1.155,14.113-1.474a53.561,53.561,0,0,1,11.583.457A37.925,37.925,0,0,1,157.389,61.9c.276.207.53.445.921.775" transform="translate(-24.4 -27.383)" fill="#f5c151"/><path d="M45.287,13.656q0,44.958-.008,89.915c0,.368-.05.733-.077,1.105H41.031V34.371c0-.526.015-1.055-.031-1.577a2.058,2.058,0,0,0-2.027-2.007h-.038V23.378a2.446,2.446,0,0,0,.725-.15A2.03,2.03,0,0,0,41.023,21.1c0-2.3,0-4.6.012-6.893a8.227,8.227,0,0,1,.123-1.57,1.9,1.9,0,0,1,2.337-1.566,1.827,1.827,0,0,1,1.785,1.865c.015.238.008.48.008.718" transform="translate(-7.042 -6.813)" fill="#c6f0ff"/><rect width="94" height="5" rx="2.5" transform="translate(-0.499 142.749)" fill="#1a1818"/></g><g transform="translate(-24.275 15.816)"><g transform="translate(0 0)" clip-path="url(#a)"><path d="M45.049,30.288H40.366a1.11,1.11,0,0,1,0-2.219h4.683a1.11,1.11,0,1,1,0,2.219" transform="translate(-28.366 -20.283)" fill="#1a1818"/><path d="M5.793,30.288H1.11a1.11,1.11,0,0,1,0-2.219H5.793a1.11,1.11,0,1,1,0,2.219" transform="translate(0 -20.283)" fill="#1a1818"/><path d="M29.179,46.158a1.11,1.11,0,0,1-1.11-1.11V40.365a1.11,1.11,0,0,1,2.219,0v4.683a1.11,1.11,0,0,1-1.11,1.11" transform="translate(-20.283 -28.366)" fill="#1a1818"/><path d="M29.179,6.9a1.11,1.11,0,0,1-1.11-1.11V1.11a1.11,1.11,0,0,1,2.219,0V5.793a1.11,1.11,0,0,1-1.11,1.11" transform="translate(-20.283 0)" fill="#1a1818"/></g></g><g transform="translate(73.23 93.324)"><g transform="translate(0 0)" clip-path="url(#a)"><path d="M45.049,30.288H40.366a1.11,1.11,0,0,1,0-2.219h4.683a1.11,1.11,0,1,1,0,2.219" transform="translate(-28.366 -20.283)" fill="#1a1818"/><path d="M5.793,30.288H1.11a1.11,1.11,0,0,1,0-2.219H5.793a1.11,1.11,0,1,1,0,2.219" transform="translate(0 -20.283)" fill="#1a1818"/><path d="M29.179,46.158a1.11,1.11,0,0,1-1.11-1.11V40.365a1.11,1.11,0,0,1,2.219,0v4.683a1.11,1.11,0,0,1-1.11,1.11" transform="translate(-20.283 -28.366)" fill="#1a1818"/><path d="M29.179,6.9a1.11,1.11,0,0,1-1.11-1.11V1.11a1.11,1.11,0,0,1,2.219,0V5.793a1.11,1.11,0,0,1-1.11,1.11" transform="translate(-20.283 0)" fill="#1a1818"/></g></g><g transform="translate(44.507 0)"><g clip-path="url(#c)"><path d="M42.152,29.179H39.811a.555.555,0,0,1,0-1.11h2.342a.555.555,0,0,1,0,1.11" transform="translate(-33.811 -24.176)" fill="#1a1818"/><path d="M2.9,29.179H.555a.555.555,0,0,1,0-1.11H2.9a.555.555,0,1,1,0,1.11" transform="translate(0 -24.176)" fill="#1a1818"/><path d="M28.624,42.706a.555.555,0,0,1-.555-.555V39.81a.555.555,0,0,1,1.11,0v2.342a.555.555,0,0,1-.555.555" transform="translate(-24.176 -33.81)" fill="#1a1818"/><path d="M28.624,3.451a.555.555,0,0,1-.555-.555V.555a.555.555,0,0,1,1.11,0V2.9a.555.555,0,0,1-.555.555" transform="translate(-24.176 0)" fill="#1a1818"/></g></g></g></svg>