<svg id="icon-discovery" xmlns="http://www.w3.org/2000/svg" xmlns:xlink="http://www.w3.org/1999/xlink" width="80.106" height="77.247" viewBox="0 0 80.106 77.247">
  <defs>
    <clipPath id="clip-path">
      <rect id="Rectangle_36" data-name="Rectangle 36" width="80.106" height="77.247" fill="currentColor"/>
    </clipPath>
  </defs>
  <g id="Group_52" data-name="Group 52" clip-path="url(#clip-path)">
    <path id="Path_42" data-name="Path 42" d="M0,156.767c.114-.135.218-.28.343-.4a1.206,1.206,0,0,1,2,.377,1.411,1.411,0,0,1,.135.445c.079,1.089.17,2.178.207,3.269a1.209,1.209,0,0,1-1.078,1.3,1.256,1.256,0,0,1-1.313-1.076c-.069-.3-.081-.616-.135-.922-.039-.218-.1-.432-.159-.647v-2.346" transform="translate(0 -116.257)" fill="currentColor"/>
    <path id="Path_43" data-name="Path 43" d="M79.673,16.272,81,11.932c-.669-.643-1.366-1.3-2.053-1.975-1.024-1-2.035-2.016-3.066-3.009a2.121,2.121,0,0,0-.651-.386c-.525-.221-1.076-.385-1.591-.628a1.057,1.057,0,0,1-.618-1.081A1.139,1.139,0,0,1,73.687,3.8a3.748,3.748,0,0,1,.443-.157l.9.191a3.142,3.142,0,0,0,.186-.445A4.636,4.636,0,0,1,79.744.005,3.8,3.8,0,0,1,82.386,1.18c1.174,1.22,2.325,2.463,3.485,3.7l1.05,1.115c.651-.184,1.3-.357,1.938-.551,3.6-1.087,7.2-2.166,10.789-3.28a1.494,1.494,0,0,1,1.693.4c.833.862,1.689,1.7,2.541,2.546a1.281,1.281,0,0,1,.45.956,1.168,1.168,0,0,1-.634,1.084q-1.462.821-2.923,1.643Q97.336,10.71,93.9,12.629c-.133.074-.257.165-.45.29l4.527,4.791,4.165-1.253a1.714,1.714,0,0,1,1.174.62c.6.651,1.227,1.278,1.822,1.934a1.171,1.171,0,0,1-.294,2.009c-1.349.782-2.73,1.51-4.095,2.264a7.183,7.183,0,0,0-1.6.942,6.26,6.26,0,0,0-.906,1.535c-.71,1.3-1.412,2.605-2.119,3.907a3.118,3.118,0,0,1-.239.4,1.145,1.145,0,0,1-1.871.161c-.695-.669-1.368-1.36-2.046-2.046a1.4,1.4,0,0,1-.373-1.562c.326-.956.581-1.936.864-2.907.072-.247.131-.5.207-.785L87.87,18.4,85.8,22.129a28.513,28.513,0,0,1,5.27,23.8A27.694,27.694,0,0,1,80.16,62.781,28.766,28.766,0,0,1,39.639,22.895,27.867,27.867,0,0,1,58.3,11.325a28.278,28.278,0,0,1,21.373,4.947m4.841,8.174c-.41.742-.785,1.425-1.164,2.106-.391.7-.758,1.424-1.185,2.107a1.153,1.153,0,0,1-1.91.221c-.9-.871-1.764-1.776-2.682-2.625a1.5,1.5,0,0,1-.429-1.629c.107-.4.247-.792.367-1.189.481-1.583.96-3.167,1.447-4.775a25.926,25.926,0,0,0-10.515-4.8l.477.747a7.787,7.787,0,0,1,.667,7.518,15.527,15.527,0,0,1-3.1,4.648c-2.169,2.331-4.619,4.362-7,6.465-1.326,1.171-2.6,2.407-3.835,3.675a9.11,9.11,0,0,0-1.284,1.849,2.071,2.071,0,0,0,.242,2.407,2.664,2.664,0,0,0,.6.613,20.114,20.114,0,0,0,1.842,1.161c1.3.7,2.644,1.334,3.947,2.035a7.834,7.834,0,0,1,2.247,1.793,2.215,2.215,0,0,1-.356,3.3,3.235,3.235,0,0,1-.828.423,13.021,13.021,0,0,1-4.415.811,17.564,17.564,0,0,1-5.613-.745,21.556,21.556,0,0,1-7.1-3.981c-1.5-1.212-2.911-2.526-4.394-3.756-.8-.662-1.65-1.265-2.506-1.853a1.112,1.112,0,0,0-1.188-.22A26.268,26.268,0,0,0,58.346,65.489a24.735,24.735,0,0,0,10.545-.254,13,13,0,0,1,.207-4.574,11.158,11.158,0,0,1,1.579-3.449,23.3,23.3,0,0,1,4.34-4.785A36.06,36.06,0,0,0,80.629,46.9a10.729,10.729,0,0,0,2.177-4.354c.162-.786.265-1.585.4-2.378a7.123,7.123,0,0,1,.581-2.087,6.777,6.777,0,0,1,2.353-2.558c.816-.552,1.67-1.047,2.51-1.568-.147-2.186-2.162-6.973-4.132-9.511m-47.6,13.666a6.685,6.685,0,0,1,3,1.155c.817.6,1.61,1.235,2.388,1.886,1.435,1.2,2.827,2.463,4.283,3.643a19.376,19.376,0,0,0,5.354,3.148,11.749,11.749,0,0,0,3.383.844,31.981,31.981,0,0,0,3.515,0,6.518,6.518,0,0,0,2.357-.6,4.449,4.449,0,0,0-1.62-1.264c-1.333-.7-2.693-1.349-4.033-2.036a9.746,9.746,0,0,1-2.649-1.9A4.167,4.167,0,0,1,51.881,38.4,8.7,8.7,0,0,1,53.3,35.906a31.419,31.419,0,0,1,4.339-4.267c2.393-2.052,4.8-4.086,6.98-6.37a11.965,11.965,0,0,0,2.65-4.1,5.65,5.65,0,0,0,.192-3.509,8.82,8.82,0,0,0-2.788-4.2A26.137,26.137,0,0,0,36.916,38.112m53.34-25.364a1.509,1.509,0,0,1,.878-1.35c.185-.094.365-.2.547-.3q4.544-2.5,9.086-5c.145-.08.28-.178.415-.265l-1.157-1.192c-.2.043-.4.074-.594.133-1.416.423-2.829.853-4.244,1.279-2.656.8-5.319,1.576-7.965,2.406a1.505,1.505,0,0,1-1.736-.485C84.426,6.826,83.339,5.7,82.265,4.566c-.483-.511-.96-1.028-1.442-1.54A1.614,1.614,0,0,0,79.9,2.49,2.1,2.1,0,0,0,77.659,3.7a1.7,1.7,0,0,0,.458,2.178c.073.074.16.133.236.2q2.327,2.2,4.654,4.408a1.421,1.421,0,0,1,.577.981,3.109,3.109,0,0,1-.185.9q-1.459,4.84-2.93,9.676c-.291.962-.58,1.924-.828,2.745l1.225,1.251c.082-.12.193-.261.28-.415.634-1.135,1.261-2.273,1.895-3.408q1.748-3.133,3.5-6.262a1.1,1.1,0,0,1,1.359-.627,1.649,1.649,0,0,1,.653.394c2.08,1.933,4.146,3.881,6.225,5.815a1.542,1.542,0,0,1,.383,1.772c-.37,1.158-.708,2.327-1.07,3.526l.556.587c.11-.157.193-.254.253-.364.732-1.348,1.477-2.689,2.183-4.05a2.138,2.138,0,0,1,.964-.969c1.039-.536,2.058-1.111,3.085-1.67l1.262-.689-.476-.626c-1.369.4-2.666.769-3.951,1.172a1.138,1.138,0,0,1-1.151-.263,5.133,5.133,0,0,1-.441-.443c-1.873-1.994-3.751-3.983-5.612-5.989a4.625,4.625,0,0,1-.509-.792m-1.17,23.758a8.051,8.051,0,0,0-2.454,1.73,3.583,3.583,0,0,0-.934,1.686c-.136.633-.238,1.276-.318,1.919a11.736,11.736,0,0,1-1.528,4.54,25.51,25.51,0,0,1-5.246,6.054c-1.3,1.16-2.637,2.291-3.873,3.52a12.682,12.682,0,0,0-2.9,4.127,7.363,7.363,0,0,0-.5,4.48c13.1-4.251,19.438-17.432,17.749-28.056" transform="translate(-25.471 -0.001)" fill="currentColor"/>
    <path id="Path_44" data-name="Path 44" d="M104.312,288.1c1.236.271,2.4.521,3.557.783a1.481,1.481,0,0,1,.941.494,1.081,1.081,0,0,1,.211,1.154,1.15,1.15,0,0,1-1.021.823,2.677,2.677,0,0,1-.775-.032c-.981-.23-1.958-.483-2.932-.739a1.789,1.789,0,0,1-.565-.239,1.186,1.186,0,0,1,.017-1.974,4.139,4.139,0,0,1,.566-.27" transform="translate(-76.922 -214.727)" fill="currentColor"/>
    <path id="Path_45" data-name="Path 45" d="M285.513,153.2c0-.546-.039-1.095.009-1.636.074-.828.4-1.189,1.078-1.322a1.15,1.15,0,0,1,1.371.932,3.324,3.324,0,0,1,.034.621c-.012.806-.022,1.611-.054,2.416a5.275,5.275,0,0,1-.127.922,1.3,1.3,0,0,1-1.268,1.039,1.175,1.175,0,0,1-1.1-1.113c-.054-.616-.011-1.239-.011-1.859h.068" transform="translate(-212.734 -111.96)" fill="currentColor"/>
    <path id="Path_46" data-name="Path 46" d="M153.237,7.818c.977.122,1.956.228,2.93.372a1.2,1.2,0,0,1,1.05,1.094,1.247,1.247,0,0,1-.9,1.3,1.844,1.844,0,0,1-.69.068c-.98-.094-1.958-.209-2.936-.325a2.664,2.664,0,0,1-.527-.133,1.288,1.288,0,0,1-.8-1.215,1.186,1.186,0,0,1,1.018-1.111,7.682,7.682,0,0,1,.857-.006c0-.013,0-.027.005-.04" transform="translate(-112.806 -5.827)" fill="currentColor"/>
    <path id="Path_47" data-name="Path 47" d="M119.693,8.321a3.569,3.569,0,0,1,.877.228,1.119,1.119,0,0,1,.573,1.19,1.1,1.1,0,0,1-.788.971,9.815,9.815,0,0,1-1.444.3c-.717.115-1.437.214-2.157.3a1.232,1.232,0,0,1-1.4-.955,1.175,1.175,0,0,1,.934-1.472c1.118-.224,2.25-.375,3.4-.562" transform="translate(-85.956 -6.202)" fill="currentColor"/>
    <path id="Path_48" data-name="Path 48" d="M82.883,20.144a5.44,5.44,0,0,1-.563-.21,1.189,1.189,0,0,1-.128-2.1,14.4,14.4,0,0,1,3.493-1.473,1.157,1.157,0,0,1,1.479.783,1.127,1.127,0,0,1-.662,1.469c-1.2.538-2.425,1.027-3.619,1.528" transform="translate(-60.833 -12.155)" fill="currentColor"/>
    <path id="Path_49" data-name="Path 49" d="M.994,124.014c.191-1.093.36-2.191.582-3.278A1.174,1.174,0,0,1,2.7,119.723a1.165,1.165,0,0,1,1.226.76,1.249,1.249,0,0,1,.08.6c-.189,1.172-.385,2.343-.618,3.507a1.16,1.16,0,0,1-1.159.957,1.1,1.1,0,0,1-1.193-1.063c-.013-.154,0-.31,0-.466l-.039-.008" transform="translate(-0.741 -89.229)" fill="currentColor"/>
    <path id="Path_50" data-name="Path 50" d="M6.96,191.138a1.531,1.531,0,0,1,1.22,1.124c.286.888.614,1.762.912,2.647a2.251,2.251,0,0,1,.134.679,1.223,1.223,0,0,1-2.161.75,2.47,2.47,0,0,1-.319-.617q-.468-1.278-.908-2.566c-.387-1.137-.083-1.688,1.122-2.018" transform="translate(-4.233 -142.457)" fill="currentColor"/>
    <path id="Path_51" data-name="Path 51" d="M213.551,272.946a.949.949,0,0,1-.493.882c-1,.606-2,1.209-3.029,1.754a1.2,1.2,0,0,1-1.657-.528,1.15,1.15,0,0,1,.485-1.606c.9-.567,1.829-1.086,2.748-1.621a1.779,1.779,0,0,1,.289-.113,1.182,1.182,0,0,1,1.658,1.231" transform="translate(-155.186 -202.442)" fill="currentColor"/>
    <path id="Path_52" data-name="Path 52" d="M239.042,253.419a1.141,1.141,0,0,1-1.114-.642,1.118,1.118,0,0,1,.058-1.184,1.9,1.9,0,0,1,.354-.414c.666-.661,1.338-1.315,2-1.978a1.455,1.455,0,0,1,1.1-.5,1.212,1.212,0,0,1,1,1.814,3.692,3.692,0,0,1-.433.549c-.669.657-1.351,1.3-2.026,1.953a1.157,1.157,0,0,1-.935.4" transform="translate(-177.222 -185.36)" fill="currentColor"/>
    <path id="Path_53" data-name="Path 53" d="M28.153,61.661a3.188,3.188,0,0,1-.416-.113,1.177,1.177,0,0,1-.674-1.6,2,2,0,0,1,.266-.475c.627-.8,1.248-1.6,1.9-2.376A1.214,1.214,0,0,1,30.47,56.6a1.317,1.317,0,0,1,.972.927,1.3,1.3,0,0,1-.355,1.219c-.385.524-.8,1.023-1.208,1.532q-.243.306-.483.613a1.688,1.688,0,0,1-1.242.766" transform="translate(-20.093 -42.164)" fill="currentColor"/>
    <path id="Path_54" data-name="Path 54" d="M43.3,252.23a1.433,1.433,0,0,1,.939.4c.8.7,1.6,1.405,2.38,2.125A1.339,1.339,0,0,1,47,256.241a1.221,1.221,0,0,1-1.268.709,1.448,1.448,0,0,1-.693-.306c-.843-.729-1.688-1.46-2.478-2.245a1.206,1.206,0,0,1,.118-1.895,3.2,3.2,0,0,1,.62-.274" transform="translate(-31.423 -187.99)" fill="currentColor"/>
    <path id="Path_55" data-name="Path 55" d="M141.843,293.509c.52,0,1.04-.01,1.56,0a1.173,1.173,0,0,1,1.226.967,1.205,1.205,0,0,1-.923,1.408.871.871,0,0,1-.222.07c-1.195.019-2.39.059-3.584.034a1.244,1.244,0,0,1-1.019-1.046,1.209,1.209,0,0,1,.658-1.22,2.372,2.372,0,0,1,.822-.184c.492-.029.988-.008,1.482-.008v-.025" transform="translate(-103.5 -218.752)" fill="currentColor"/>
    <path id="Path_56" data-name="Path 56" d="M74.668,278.29a4.39,4.39,0,0,1-.655-.222q-1.314-.683-2.611-1.4a2.01,2.01,0,0,1-.491-.378,1.254,1.254,0,0,1-.121-1.515,1.241,1.241,0,0,1,1.374-.453,1.586,1.586,0,0,1,.293.1q1.409.753,2.814,1.514a1.226,1.226,0,0,1,.68,1.06,1.246,1.246,0,0,1-1.282,1.291" transform="translate(-52.612 -204.415)" fill="currentColor"/>
    <path id="Path_57" data-name="Path 57" d="M11.105,91.894a1.243,1.243,0,0,1-1.23-1.585,30.159,30.159,0,0,1,1.467-3.256,1.138,1.138,0,0,1,1.845-.333,1.421,1.421,0,0,1,.38.723,1.354,1.354,0,0,1-.09.755c-.425,1-.876,1.992-1.334,2.979a1.249,1.249,0,0,1-1.039.716" transform="translate(-7.31 -64.382)" fill="currentColor"/>
    <path id="Path_58" data-name="Path 58" d="M265.785,221.031c-.22.414-.422.831-.656,1.228-.368.624-.775,1.226-1.131,1.856a1.621,1.621,0,0,1-1.306.923,2.8,2.8,0,0,1-.323-.1,1.2,1.2,0,0,1-.644-1.834c.2-.363.437-.7.651-1.058.308-.509.6-1.026.917-1.531a1.451,1.451,0,0,1,.856-.745,1.187,1.187,0,0,1,1.46.721c.063.14.1.294.176.544" transform="translate(-194.913 -163.76)" fill="currentColor"/>
    <path id="Path_59" data-name="Path 59" d="M24.416,227.948a1.247,1.247,0,0,1-.678,1.223,1.1,1.1,0,0,1-1.242-.09,1.468,1.468,0,0,1-.331-.322c-.61-.9-1.228-1.8-1.807-2.718a1.191,1.191,0,0,1,.04-1.392,1.071,1.071,0,0,1,1.15-.483,1.676,1.676,0,0,1,.772.458,7.561,7.561,0,0,1,.721,1.009c.363.537.735,1.068,1.073,1.621a4.316,4.316,0,0,1,.3.7" transform="translate(-15.02 -167.05)" fill="currentColor"/>
    <path id="Path_60" data-name="Path 60" d="M284.507,119.152a1.272,1.272,0,0,1-.955,1.286,1.2,1.2,0,0,1-1.426-.795,7.051,7.051,0,0,1-.28-1.045c-.156-.706-.293-1.417-.449-2.123a1.334,1.334,0,0,1,.331-1.3,1.2,1.2,0,0,1,2.012.5c.333,1.136.518,2.315.766,3.475" transform="translate(-209.696 -85.574)" fill="currentColor"/>
    <path id="Path_61" data-name="Path 61" d="M278.87,192.005a1.237,1.237,0,0,1-1.154-1.624c.337-.975.6-1.975.9-2.963a1.664,1.664,0,0,1,.13-.282,1.2,1.2,0,0,1,1.5-.632,1.221,1.221,0,0,1,.807,1.42c-.3,1.095-.636,2.18-1,3.254a1.111,1.111,0,0,1-1.179.826" transform="translate(-206.942 -138.953)" fill="currentColor"/>
    <path id="Path_62" data-name="Path 62" d="M176.067,290.044a1.267,1.267,0,0,1-1.448-.927,1.21,1.21,0,0,1,.643-1.369,2,2,0,0,1,.433-.17c.95-.256,1.9-.51,2.853-.754a1.244,1.244,0,0,1,1.053.1,1.2,1.2,0,0,1,.575,1.194,1.079,1.079,0,0,1-.766.985c-.737.242-1.492.43-2.24.64-.423.118-.846.233-1.1.3" transform="translate(-130.114 -213.721)" fill="currentColor"/>
    <path id="Path_63" data-name="Path 63" d="M56.589,34.227a1.3,1.3,0,0,1-.458.855c-.314.27-.649.515-.976.769-.45.35-.9.7-1.354,1.044a3.825,3.825,0,0,1-.585.379,1.153,1.153,0,0,1-1.469-.3,1.267,1.267,0,0,1-.038-1.515,1.665,1.665,0,0,1,.325-.331c.8-.613,1.606-1.228,2.422-1.824a1.205,1.205,0,0,1,1.742.11,4.09,4.09,0,0,1,.391.809" transform="translate(-38.366 -24.59)" fill="currentColor"/>
  </g>
</svg>
