<svg id="icon-adventure" xmlns="http://www.w3.org/2000/svg" xmlns:xlink="http://www.w3.org/1999/xlink" width="85.3" height="81.777" viewBox="0 0 85.3 81.777">
  <defs>
    <clipPath id="clip-path">
      <rect id="Rectangle_37" data-name="Rectangle 37" width="85.3" height="81.777" fill="currentColor" />
    </clipPath>
  </defs>
  <g id="Group_53" data-name="Group 53" clip-path="url(#clip-path)">
    <path id="Path_64" data-name="Path 64" d="M460.753,253.395a2.165,2.165,0,0,1-2.272,1.166c-.91-.057-1.826-.012-2.766-.012-.64.813-1.275,1.614-1.9,2.42a1.794,1.794,0,0,1-1.058.753A1.662,1.662,0,0,1,451,255.136c.315-.455.674-.88,1.014-1.317.442-.569.9-1.127,1.322-1.709a2.04,2.04,0,0,1,1.84-.919c1.08.035,2.165.055,3.242-.005a2.4,2.4,0,0,1,2.338,1.043Z" transform="translate(-375.453 -209.253)" fill="currentColor" />
    <path id="Path_65" data-name="Path 65" d="M46.175,77.02c-.2-.7-.394-1.381-.585-2.065-.112-.4-.245-.8-.317-1.2a1.657,1.657,0,0,1,3.081-1.079,4.011,4.011,0,0,1,.289.774c.356,1.191.7,2.384,1.064,3.613.532.051,1.053.08,1.567.155a4.5,4.5,0,0,1,1.69,8.334c-.206.132-.422.247-.669.391l5.764,19.751a54.254,54.254,0,0,0,7.341.083l1.653-2.1c.223-.283.434-.578.672-.848a1.672,1.672,0,0,1,2.312-.3,1.647,1.647,0,0,1,.349,2.3c-.939,1.272-1.925,2.51-2.913,3.745a1.859,1.859,0,0,1-1.564.627c-2.388-.008-4.775,0-7.163,0H52.466c-1.122,1.058-2.253,2.12-3.378,3.189-2.456,2.332-4.919,4.657-7.355,7.01a2.7,2.7,0,0,1-2.009.805c-7.774-.015-15.548,0-23.321-.018a2.847,2.847,0,0,0-1.628.468q-5.877,3.778-11.78,7.517a5.132,5.132,0,0,1-.647.374,1.61,1.61,0,0,1-2.053-.582,1.655,1.655,0,0,1,.268-2.188,4.18,4.18,0,0,1,.543-.382q6.383-4.072,12.764-8.147a2.453,2.453,0,0,1,1.406-.423c.5.009.993,0,1.556,0a3.926,3.926,0,0,0-.087-.524,5.94,5.94,0,0,1,.33-4.6c1.154-2.365,2.28-4.745,3.457-7.1a5.463,5.463,0,0,0,.59-2.137q.19-3.032.38-6.064c.015-.243,0-.487,0-.685-1.365-.227-2.668-.448-3.973-.66a4.4,4.4,0,0,1-3.564-5.011q.733-4.257,1.461-8.515c.244-1.419.514-2.834.737-4.256a2.691,2.691,0,0,1,1.029-2.088,6.209,6.209,0,0,1,.493-4.776A5.7,5.7,0,0,1,20.579,67.9c2.049-.832,5.265-.564,7.276,2.852l1.174-.693a8.114,8.114,0,1,1,10.259,1.2,3.338,3.338,0,0,0,.288.361c1.783,1.711,3.576,3.411,5.35,5.131a1.051,1.051,0,0,0,1.25.276M35.821,84.71c-.754-.654-1.466-1.27-2.176-1.889a5.825,5.825,0,0,1-.547-.51,1.606,1.606,0,0,1-.256-1.852,1.624,1.624,0,0,1,1.638-.9,1.794,1.794,0,0,1,1.106.512c.9.78,1.817,1.546,2.707,2.338a1.669,1.669,0,0,0,1.2.446c3.523-.016,7.045-.008,10.568-.011a4.44,4.44,0,0,0,.745-.053,1.124,1.124,0,0,0-.085-2.243c-.221-.018-.443-.01-.665-.01-1.609,0-3.218-.017-4.826.007a2.654,2.654,0,0,1-2.015-.791c-2.068-2.011-4.186-3.97-6.25-5.986a4.492,4.492,0,0,0-3.214-1.318,9.633,9.633,0,0,0-1.241.1,4.876,4.876,0,0,0-4.7,4.545c-.438,2.787-.942,5.565-1.415,8.346-.184,1.079-.364,2.158-.547,3.247,3.367.019,7.887-1.591,9.971-3.971m-2.784,16.1c-.047.233-.086.364-.1.5-.1,1.271-.225,2.54-.278,3.813a5.067,5.067,0,0,1-.516,2.072c-1.426,2.907-2.832,5.823-4.243,8.736-.129.267-.242.541-.38.851a3.854,3.854,0,0,0,.4.047c3.688,0,7.377,0,11.066.01a1.376,1.376,0,0,0,1.028-.434c1.478-1.424,2.971-2.832,4.456-4.248.158-.151.3-.318.481-.509a6.42,6.42,0,0,1-2.444-1.871c-1.319-1.678-2.711-3.3-3.952-5.037a8.384,8.384,0,0,0-4.066-3.24,15.346,15.346,0,0,1-1.451-.688m2.608-11.573c-.165.073-.266.107-.356.16a20.419,20.419,0,0,1-8.907,2.687c-.38.029-.756.1-1.149.149-.046.318-.081.562-.116.805a2.634,2.634,0,0,0,2.344,3.209c1.364.236,2.736.428,4.095.69a9.064,9.064,0,0,1,2.489.612c1.433.724,2.9,1.384,4.328,2.114a3.506,3.506,0,0,1,1.09.864c1.146,1.392,2.245,2.823,3.365,4.235.828,1.043,1.635,2.1,2.5,3.114a2.316,2.316,0,0,0,2.8.595,2.378,2.378,0,0,0,1.389-2.348,2.706,2.706,0,0,0-.709-1.644c-1.777-2.238-3.6-4.439-5.31-6.729a7.819,7.819,0,0,0-3.385-2.678c-1.3-.537-2.55-1.212-3.822-1.826a1.622,1.622,0,0,1-.99-1.751c.026-.275.069-.549.111-.823.07-.459.146-.917.23-1.434m18.919,16.488L48.882,86.251H39.589l-.77,4.454c.264.136.5.266.746.385,1.319.64,2.634,1.29,3.963,1.909a3.446,3.446,0,0,1,1.287,1.016q3.294,4.18,6.605,8.347a6.236,6.236,0,0,1,1.449,3.207c.008.072.084.137.165.259.358,0,.743.006,1.128,0a2.293,2.293,0,0,0,.4-.1M24.733,98.965a1.855,1.855,0,0,0-.061.295c-.069,1.191-.143,2.382-.2,3.573a6.735,6.735,0,0,1-.691,2.794c-1.209,2.4-2.36,4.827-3.532,7.245a6.66,6.66,0,0,0-.336.759,2.418,2.418,0,0,0,4.481,1.795c1.6-3.227,3.157-6.473,4.719-9.718a2.374,2.374,0,0,0,.195-.8c.073-.8.124-1.6.172-2.407s.083-1.6.127-2.455c-.838-.151-1.656-.273-2.461-.451s-1.594-.413-2.415-.63M34.85,59.7a4.663,4.663,0,0,0-4.686,4.7,4.731,4.731,0,0,0,9.463,0,4.664,4.664,0,0,0-4.777-4.7M19.369,78.692c-.084.41-.157.73-.214,1.052q-.717,4.085-1.428,8.172c-.151.872-.323,1.743-.411,2.621-.077.768.18,1.063.925,1.22s1.519.3,2.281.439c.912.168,1.326-.141,1.49-1.086.429-2.48.864-4.958,1.289-7.438.232-1.356.447-2.716.683-4.147l-4.613-.833M22.7,75.8a2.336,2.336,0,0,0,2.318-2.49,2.376,2.376,0,0,0-2.4-2.428,2.343,2.343,0,0,0-2.318,2.49A2.377,2.377,0,0,0,22.7,75.8" transform="translate(0 -46.926)" fill="currentColor" />
    <path id="Path_66" data-name="Path 66" d="M355.355,40.714c1-.116,1.876-.284,2.75-.3a6.286,6.286,0,0,1,6.19,5.722,6.392,6.392,0,0,1-4.974,6.9,6.814,6.814,0,0,1-1.315.163c-2.911.014-5.825.077-8.734-.013a7.347,7.347,0,0,1-6.8-4.413,7.606,7.606,0,0,1,5.439-10.72,7.486,7.486,0,0,1,6.988,2.176c.1.1.189.2.283.3l.17.18m-1.788,9.145c1.275,0,2.55.007,3.826,0a5.832,5.832,0,0,0,1.072-.1,3.032,3.032,0,0,0,1.2-5.456,2.952,2.952,0,0,0-3.359-.1c-.235.145-.45.329-.7.451a1.618,1.618,0,0,1-2.072-.5,5.83,5.83,0,0,1-.374-.645,4.286,4.286,0,1,0-7.149,4.675,4.441,4.441,0,0,0,3.64,1.671c1.3.009,2.606,0,3.909,0" transform="translate(-284.693 -31.569)" fill="currentColor" />
    <path id="Path_67" data-name="Path 67" d="M36.014,37.492a5.994,5.994,0,0,1-6.065,6.087,6.089,6.089,0,1,1,0-12.178,5.99,5.99,0,0,1,6.061,6.091m-6.087,2.7a2.664,2.664,0,0,0,2.739-2.724,2.722,2.722,0,0,0-2.774-2.706,2.763,2.763,0,0,0-2.7,2.7,2.7,2.7,0,0,0,2.736,2.731" transform="translate(-19.853 -26.159)" fill="currentColor" />
    <path id="Path_68" data-name="Path 68" d="M53.515,2.31a5.528,5.528,0,0,1-.373,1.2,1.49,1.49,0,0,1-1.54.764,1.573,1.573,0,0,1-1.41-1.115,3.316,3.316,0,0,1-.031-1.957A1.617,1.617,0,0,1,51.83,0,1.6,1.6,0,0,1,53.362,1.27c.072.292.09.6.153,1.039" transform="translate(-41.678 0)" fill="currentColor" />
    <path id="Path_69" data-name="Path 69" d="M49.838,113.005a5.978,5.978,0,0,1,.361-1.219,1.626,1.626,0,0,1,2.963.37,5.382,5.382,0,0,1,.038,1.794,1.533,1.533,0,0,1-1.562,1.319A1.6,1.6,0,0,1,50,114.031a10.07,10.07,0,0,1-.159-1.026" transform="translate(-41.519 -92.456)" fill="currentColor" />
    <path id="Path_70" data-name="Path 70" d="M.073,30.517a1.616,1.616,0,0,1,2.257-1.37,5.627,5.627,0,0,1,1.216.7,1.6,1.6,0,0,1,.408,2.145,1.625,1.625,0,0,1-2.075.687,6.743,6.743,0,0,1-1.146-.654,1.612,1.612,0,0,1-.66-1.5" transform="translate(-0.06 -24.174)" fill="currentColor" />
    <path id="Path_71" data-name="Path 71" d="M100.19,30.7c.176,1.212-2.194,2.564-3.2,1.965a1.689,1.689,0,0,1-.259-2.832,5.381,5.381,0,0,1,1.219-.689A1.65,1.65,0,0,1,100.19,30.7" transform="translate(-80.035 -24.184)" fill="currentColor" />
    <path id="Path_72" data-name="Path 72" d="M.061,86.887c0-.209,0-.265,0-.32-.1-1.077,2.19-2.462,3.273-1.77a1.634,1.634,0,0,1,.389,2.557,4.482,4.482,0,0,1-1.707.962A1.558,1.558,0,0,1,.061,86.887" transform="translate(-0.048 -70.488)" fill="currentColor" />
    <path id="Path_73" data-name="Path 73" d="M97.723,84.556A3.1,3.1,0,0,1,99.79,85.84a1.5,1.5,0,0,1-.086,1.794,1.422,1.422,0,0,1-1.668.634,5.473,5.473,0,0,1-1.7-.979,1.407,1.407,0,0,1-.29-1.758,1.662,1.662,0,0,1,1.677-.976" transform="translate(-79.865 -70.442)" fill="currentColor" />
    <path id="Path_74" data-name="Path 74" d="M429.563,301.822a1.662,1.662,0,1,1-3.321-.079,1.661,1.661,0,0,1,3.321.079" transform="translate(-355.096 -250.05)" fill="currentColor" />
  </g>
</svg>
