<svg id="icon-mountain-bike" xmlns="http://www.w3.org/2000/svg" xmlns:xlink="http://www.w3.org/1999/xlink" width="74.567" height="74.57" viewBox="0 0 74.567 74.57">
  <defs>
    <clipPath id="clip-path">
      <rect id="Rectangle_35" data-name="Rectangle 35" width="74.567" height="74.57" fill="currentColor"/>
    </clipPath>
  </defs>
  <g id="Group_50" data-name="Group 50" clip-path="url(#clip-path)">
    <path id="Path_38" data-name="Path 38" d="M0,35.366c.31-.339.609-.69.932-1.016,1.1-1.106,2.2-2.2,3.3-3.3a4.256,4.256,0,0,1,2.475-1.277,3.914,3.914,0,0,1,2.952.739,7.91,7.91,0,0,1,.928.819q2.793,2.778,5.573,5.57c.171.171.307.378.505.626.27-.258.459-.433.642-.616q7.069-7.065,14.138-14.131A8.588,8.588,0,0,1,33.331,21.3a6.234,6.234,0,0,1,6.765.654c.348.3.7.6,1.029.926q6.5,6.495,13,13c.186.186.381.363.6.569.389-.342.752-.657,1.11-.976a4.486,4.486,0,0,1,5.7-.03c.186.157.37.316.542.487q4.026,4.021,8.049,8.045a1.76,1.76,0,0,1,.657,1.324,1.427,1.427,0,0,1-2.14,1.226,3.742,3.742,0,0,1-.721-.609q-3.823-3.812-7.64-7.629a4.691,4.691,0,0,0-.836-.7,1.388,1.388,0,0,0-1.519.009,3.076,3.076,0,0,0-.568.451Q50.773,44.621,44.2,51.2c-.083.083-.155.178-.287.331.287.014.495.032.7.033.948,0,1.9.008,2.845,0a4.355,4.355,0,0,1,.728,8.648,2.267,2.267,0,0,1-1.286-.059A1.553,1.553,0,0,1,46,58.769a1.524,1.524,0,0,1,1.137-1.357c.212-.051.428-.086.639-.139a1.375,1.375,0,0,0,.067-2.684,1.607,1.607,0,0,0-.424-.1c-.8-.01-1.6,0-2.453,0a30.961,30.961,0,0,0,1.005,10.488,4.8,4.8,0,0,0,.519,0A13.048,13.048,0,0,1,58.317,69.6a12.625,12.625,0,0,1,2.99,6.527,13.347,13.347,0,0,1-9.241,14.85,8.929,8.929,0,0,1-2.716.431c-5.4-.021-10.8-.01-16.2-.01-.926,0-1.382-.353-1.474-1.135a1.485,1.485,0,0,1,1.279-1.6,3.962,3.962,0,0,1,.655-.026q2.626,0,5.253,0h.879a13.859,13.859,0,0,1-4.5-6.887h-.736c-2.213,0-4.426-.005-6.639,0A2.485,2.485,0,0,1,26.3,81.3l-.207.632a13.329,13.329,0,0,1-10.416,9.426,2.009,2.009,0,0,1-.435.035c-4.839,0-9.678,0-14.557,0L0,90.814V89.5a1.826,1.826,0,0,1,1.792-.873c.435.027.873,0,1.31,0H4.817c-.588-.607-1.125-1.128-1.624-1.683a13.352,13.352,0,0,1-3-5.892c-.061-.251-.127-.5-.191-.751V76.076c.04-.057.107-.11.117-.173a12.754,12.754,0,0,1,3.5-6.9,13.173,13.173,0,0,1,10.719-4.107c.16.01.322,0,.5,0l.428-1.947c-.18-.016-.274-.03-.369-.033-.994-.038-1.989-.057-2.982-.118a3.972,3.972,0,0,1-2.247-.942c-1.834-1.47-2.075-3.462-1.759-5.6A1.3,1.3,0,0,1,9.16,55.216c.484-.033.972-.021,1.458-.022.774,0,1.548,0,2.3,0,.058-.122.094-.184.118-.251a1.84,1.84,0,0,0,.079-.28,5.181,5.181,0,0,1,1.533-2.828c2.2-2.17,4.371-4.364,6.556-6.546,1-1,1.981-2.009,3.006-2.977a6.624,6.624,0,0,1,4.7-1.831H30a5.955,5.955,0,0,1,1.643-4.154,5.6,5.6,0,0,1,4.165-1.8,5.782,5.782,0,0,1,5.63,4.237,5.6,5.6,0,0,1-.082,3.5,5.943,5.943,0,0,1-3.705,3.67l4.022,3.56c1.1-.941,10.564-10.469,10.891-10.968-.124-.136-.248-.282-.383-.417Q45.5,31.427,38.822,24.749a6.276,6.276,0,0,0-.536-.494,3.2,3.2,0,0,0-3.012-.584,4.189,4.189,0,0,0-1.79,1.2Q18.164,40.2,2.842,55.516c-.189.189-.379.377-.581.552a1.467,1.467,0,0,1-1.227.315A1.57,1.57,0,0,1,0,55.648V54.189c.275-.266.553-.527.823-.8q6.63-6.628,13.258-13.258c.183-.183.36-.374.544-.567-.109-.123-.17-.2-.238-.267Q11.345,36.256,8.3,33.213a2.892,2.892,0,0,0-.324-.293,1.193,1.193,0,0,0-1.361-.032,4.486,4.486,0,0,0-.6.524c-1.087,1.08-2.167,2.166-3.253,3.247a4.66,4.66,0,0,1-.543.484,1.458,1.458,0,0,1-1.868-.119C.228,36.914.116,36.8,0,36.68V35.366M43.889,68.745a10.429,10.429,0,0,0-3.989,3.11A10.429,10.429,0,0,0,47.338,88.6a9.769,9.769,0,0,0,6.854-1.94A10.13,10.13,0,0,0,58.386,76.53a9.85,9.85,0,0,0-2.938-5.721,10.385,10.385,0,0,0-7.131-3.024,4.781,4.781,0,0,0-1.5.187,3.418,3.418,0,0,0,.061.393q.887,3.146,1.78,6.29c.3,1.048.605,2.094.874,3.149a1.458,1.458,0,0,1-2.781.875,6.128,6.128,0,0,1-.194-.624q-1.242-4.4-2.483-8.808c-.045-.158-.114-.308-.186-.5m-29.769-.839a10.274,10.274,0,0,0-9.757,4.886A10.422,10.422,0,0,0,17.546,87.711c3.537-1.568,5.887-5.335,5.886-8.008h-.786c-3.013,0-6.026-.025-9.038.013a1.621,1.621,0,0,1-1.708-2.2c.541-2.135,1.013-4.288,1.508-6.434.244-1.056.475-2.115.713-3.175m3.906-15.378,6.01,1.657a5.108,5.108,0,0,1,.43-.564q2.466-2.483,4.946-4.952a4.808,4.808,0,0,1,.661-.567,1.341,1.341,0,0,1,1.5-.076,6.977,6.977,0,0,1,.668.438q4.6,3.332,9.2,6.667c.149.108.315.192.5.306V53.71c-.188-.178-.359-.349-.54-.509q-3.487-3.1-6.977-6.194c-1.036-.918-2.058-1.855-3.124-2.737a3.721,3.721,0,0,0-3.069-.788,4.449,4.449,0,0,0-2.489,1.4q-3.348,3.354-6.7,6.7c-.292.291-.605.56-1.022.944M16.09,55.054a3.3,3.3,0,0,0,.24,2.576,4.232,4.232,0,0,0,1.919,2.017c2.338,1.335,4.66,2.7,7,4.026a2.2,2.2,0,0,1,1.135,1.512q.817,3.649,1.647,7.294c.117.512.257,1.018.393,1.554.538,0,1.022.014,1.506,0a5.017,5.017,0,0,0,1.417-.072c-.057-.4-.1-.758-.161-1.116-.369-2.271-.774-4.536-1.1-6.813a8.12,8.12,0,0,0-2.369-4.794q-1.87-1.84-3.708-3.713a1.981,1.981,0,0,0-.913-.551c-2.311-.631-4.621-1.265-7-1.918M30.528,59.89c2.254.126,10.877.069,11.475-.076v-.646l-10.858-7.86L26.557,55.9l3.972,3.992m1.886,3.066c.958,3.849,1.294,7.762,2.058,11.632l.68.369a13.677,13.677,0,0,1,7.957-9.139l-.669-2.861ZM23.539,76.723a10.373,10.373,0,0,0-2.993-5.938,7.283,7.283,0,0,0-3.57-2.125c-.592,2.669-1.26,5.329-1.837,8.063ZM38.711,40.35a2.818,2.818,0,0,0-2.845-2.885,2.9,2.9,0,0,0-2.91,2.907,2.93,2.93,0,0,0,2.859,2.888,2.888,2.888,0,0,0,2.9-2.91M17.727,65.613a14.665,14.665,0,0,1,6.965,5.444L23.56,66.106l-5.268-3.04c-.166.678-.324,1.305-.471,1.935-.043.184-.058.376-.093.611m16.943,13.1a3.1,3.1,0,0,0-2.717-1.757c-.872-.045-1.749-.014-2.623-.007a2.73,2.73,0,0,0-.433.065v1.7ZM10.8,58.15a1.748,1.748,0,0,0,1.375,1.717,17.722,17.722,0,0,0,1.981.015l-.839-1.733Z" transform="translate(0 -16.835)" fill="currentColor"/>
    <path id="Path_39" data-name="Path 39" d="M296.849,0a3.805,3.805,0,0,0,.546.135,7.113,7.113,0,0,1,5.448,3.336A19.439,19.439,0,0,1,303.8,5.3c.439.075.921.125,1.387.243a4.705,4.705,0,0,1,3.444,5.161,4.773,4.773,0,0,1-4.552,4.164c-.1.006-.194.007-.292.007q-6.347,0-12.695,0a4.686,4.686,0,0,1-2.97-1.021,4.485,4.485,0,0,1,.6-7.391c.188-.109.387-.2.588-.3.169-.505.305-1.021.51-1.507A7.433,7.433,0,0,1,295.219.194c.186-.046.389-.018.579-.049.207-.033.409-.1.613-.145Zm.581,11.938v.009c1.992,0,3.984,0,5.975,0a4.053,4.053,0,0,0,.936-.1,1.745,1.745,0,0,0,1.374-1.519,1.709,1.709,0,0,0-.837-1.732,1.958,1.958,0,0,0-1.807-.138A1.459,1.459,0,0,1,301.1,7.22c-.038-.214-.074-.429-.113-.644a4.291,4.291,0,0,0-3.564-3.489,4.369,4.369,0,0,0-4.67,2.24,5.254,5.254,0,0,0-.566,1.94c-.132.95-.394,1.265-1.3,1.516-.163.046-.331.078-.49.135a1.567,1.567,0,0,0-1,1.542,1.464,1.464,0,0,0,1.191,1.372,4.736,4.736,0,0,0,.935.1c1.967.009,3.935,0,5.9,0" transform="translate(-234.105)" fill="currentColor"/>
    <path id="Path_40" data-name="Path 40" d="M394.974,169.808a1.453,1.453,0,0,1-2.905-.013,1.453,1.453,0,1,1,2.905.013" transform="translate(-320.418 -137.581)" fill="currentColor"/>
    <path id="Path_41" data-name="Path 41" d="M143.009,395.669a1.283,1.283,0,0,1-1.443-1.315,1.543,1.543,0,0,1,1.456-1.44,1.46,1.46,0,0,1,1.45,1.488c-.011.842-.5,1.267-1.463,1.266" transform="translate(-115.695 -321.109)" fill="currentColor"/>
  </g>
</svg>
