<svg id="icon-beaches" xmlns="http://www.w3.org/2000/svg" xmlns:xlink="http://www.w3.org/1999/xlink" width="80" height="80" viewBox="0 0 80 80">
  <defs>
    <clipPath id="clip-path">
      <rect id="Rectangle_38" data-name="Rectangle 38" width="80" height="80" fill="currentColor"/>
    </clipPath>
  </defs>
  <g id="Group_54" data-name="Group 54" clip-path="url(#clip-path)">
    <path id="Path_75" data-name="Path 75" d="M69.966,75.949a22.2,22.2,0,0,1,8.046.547A12.444,12.444,0,0,1,82.2,78.418a5.33,5.33,0,0,1,2.234,3.089,3.918,3.918,0,0,1,.1.982A1.269,1.269,0,0,1,83.3,83.782c-.22.017-.443.005-.664.005H70.089a45.3,45.3,0,0,1,3.85,18.632c.691.378,1.358.708,1.992,1.094a21.009,21.009,0,0,1,8.094,9.315c.141.3.274.6.39.914a1.309,1.309,0,0,1-1.293,1.924c-2.38.018-4.76.006-7.14.006q-1.743,0-3.487,0c-.208,0-.416.019-.7.033.395.418.754.757,1.066,1.135a4.254,4.254,0,0,1,.023,5.624,8.663,8.663,0,0,1-3.565,2.494,18.253,18.253,0,0,1-7.284,1.336,1.324,1.324,0,1,1-.015-2.644,17.654,17.654,0,0,0,5.771-.989,12.14,12.14,0,0,0,1.785-.861,4.789,4.789,0,0,0,1.088-.884,1.614,1.614,0,0,0,.007-2.5,6.742,6.742,0,0,0-1.578-1.188,12.168,12.168,0,0,0-4.738-1.384c-1.291-.127-2.595-.17-3.893-.171q-26.608-.016-53.216-.007H6.223v-2.54s.017-.019.037-.037a.247.247,0,0,1,.063-.05.213.213,0,0,1,.082-.012H38.6c.6-.663,1.148-1.322,1.754-1.921a20.685,20.685,0,0,1,9.561-5.221,23.8,23.8,0,0,1,6.06-.826,1.516,1.516,0,0,0,.964-.394,17.14,17.14,0,0,1,6.517-3.145c.536-.125,1.083-.2,1.625-.3.293-.055.585-.113.938-.181a36.836,36.836,0,0,0-2.628-12.975A4.207,4.207,0,0,1,60.1,89.08a4.109,4.109,0,0,1-2.873-1.848c-.343.376-.625.71-.932,1.019q-2.665,2.677-5.341,5.343c-.157.156-.307.32-.477.461a1.3,1.3,0,0,1-1.924-.1,4.427,4.427,0,0,1-1.191-2.845,7.737,7.737,0,0,1,.613-3.645c.459-1.06,1.031-2.071,1.557-3.1.085-.167.189-.325.336-.577h-8.62c-.194,0-.388.01-.581,0a1.288,1.288,0,0,1-1.281-1.344,4.107,4.107,0,0,1,.95-2.678,8.648,8.648,0,0,1,3.676-2.611,17.522,17.522,0,0,1,6.041-1.306,19.5,19.5,0,0,1,5.039.3,3.33,3.33,0,0,0,.589,0c-.091-.721-.207-1.417-.263-2.116a18.848,18.848,0,0,1,1.9-10.859,7.143,7.143,0,0,1,2.02-2.39,4.137,4.137,0,0,1,2.447-.9,1.311,1.311,0,0,1,1.505,1.452c.013,1.494,0,2.989,0,4.483q0,2.449,0,4.9c0,.153.02.305.029.432,1.137-1,2.217-2.025,3.381-2.946a14.531,14.531,0,0,1,5.349-2.735,6.363,6.363,0,0,1,3.6-.072,5.553,5.553,0,0,1,1.661.891,1.319,1.319,0,0,1,.133,2.148c-.205.225-.428.433-.643.648q-3.082,3.082-6.163,6.165c-.193.193-.378.395-.673.7M81.035,113a1.732,1.732,0,0,0-.057-.241c-.045-.1-.1-.2-.15-.3a17.55,17.55,0,0,0-5.69-6.266,13.44,13.44,0,0,0-13.026-1.418,16.786,16.786,0,0,0-8.531,8c-.029.053,0,.136,0,.221ZM64.014,81.082h17.16a6.433,6.433,0,0,0-2.3-1.456,15.8,15.8,0,0,0-4.662-1.061,17.12,17.12,0,0,0-7.967,1.09,6.121,6.121,0,0,0-2.231,1.427m-21.264,0H59.917a6.375,6.375,0,0,0-2.3-1.456,16.141,16.141,0,0,0-4.579-1.054,17.6,17.6,0,0,0-7.277.788,7.316,7.316,0,0,0-3.013,1.722M66.675,89.2a43.671,43.671,0,0,1,2.1,11.9c.479.064.862.105,1.241.168s.784.151,1.183.229c.216-3.328-1.195-11.17-2.386-13.429L66.675,89.2M62.188,78.96c.837-.532,1.688-1.068,2.533-1.613a1.982,1.982,0,0,0,.3-.284q4.37-4.369,8.736-8.742a4.075,4.075,0,0,0,.329-.442c-4.925.2-11.348,6.824-11.9,11.08m-2.523-1.437c.25-.609.508-1.182.718-1.772a3.459,3.459,0,0,0,.249-1.105c.018-3.593.012-7.186.009-10.779,0-.173-.028-.345-.053-.642a7.477,7.477,0,0,0-1.633,2.8,18.025,18.025,0,0,0-.38,10.435,1.209,1.209,0,0,0,1.09,1.066m-6.31,30.5c-3.865.188-9.337,2.82-10.923,4.96h7.894l3.03-4.96M50.092,90.551a93.385,93.385,0,0,0,6.682-6.763H53.4c-1.941,1.981-3.468,5.122-3.308,6.763m10.517-6.756a1.323,1.323,0,1,0,1.352,1.292,1.39,1.39,0,0,0-1.352-1.292M67.275,85.1a1.322,1.322,0,1,0-1.309,1.336A1.387,1.387,0,0,0,67.275,85.1" transform="translate(-4.842 -46.597)" fill="currentColor"/>
    <path id="Path_76" data-name="Path 76" d="M72.5,35.916a6.646,6.646,0,1,1-6.677,6.592A6.672,6.672,0,0,1,72.5,35.916m3.959,6.638A3.981,3.981,0,1,0,72.5,46.538a4.039,4.039,0,0,0,3.958-3.983" transform="translate(-51.222 -27.947)" fill="currentColor"/>
    <path id="Path_77" data-name="Path 77" d="M40.683,347.3h8.7a5.937,5.937,0,0,1,.662.01,1.325,1.325,0,0,1-.021,2.632,6.335,6.335,0,0,1-.663.009H31.793a4.811,4.811,0,0,1-.745-.02,1.328,1.328,0,0,1,.021-2.614,4.694,4.694,0,0,1,.662-.016h8.951" transform="translate(-23.318 -270.246)" fill="currentColor"/>
    <path id="Path_78" data-name="Path 78" d="M18.7,216.39a3.925,3.925,0,0,1,4.561-.4,3.756,3.756,0,0,1,2.005,3.394,1.283,1.283,0,0,1-1.23,1.387,1.3,1.3,0,0,1-1.411-1.209c-.014-.081-.007-.167-.023-.247a1.4,1.4,0,0,0-1.3-1.187,1.381,1.381,0,0,0-1.322,1.157c-.034.161-.014.334-.055.493a1.339,1.339,0,0,1-2.6-.033c-.05-.213-.044-.442-.108-.65a1.292,1.292,0,0,0-2.5.014,4.107,4.107,0,0,0-.08.488A1.328,1.328,0,0,1,12,219.351a3.993,3.993,0,0,1,3.683-3.882,4.088,4.088,0,0,1,2.583.706c.113.076.23.145.348.213.021.012.054,0,.09,0" transform="translate(-9.337 -167.643)" fill="currentColor"/>
    <path id="Path_79" data-name="Path 79" d="M66.522,180.571a4.019,4.019,0,0,1,3.868-.8,3.953,3.953,0,0,1,2.767,3.73,1.327,1.327,0,0,1-2.646.191c-.019-.108-.012-.222-.038-.328a1.315,1.315,0,0,0-2.6.038c-.034.161-.015.334-.055.493a1.339,1.339,0,0,1-2.6-.02c-.05-.213-.043-.442-.107-.65a1.29,1.29,0,0,0-2.5,0c-.063.208-.054.437-.1.65a1.322,1.322,0,0,1-1.417,1.016,1.3,1.3,0,0,1-1.205-1.248,4,4,0,0,1,3.675-4.055,4.252,4.252,0,0,1,2.965.98" transform="translate(-46.59 -139.737)" fill="currentColor"/>
    <path id="Path_80" data-name="Path 80" d="M91.778,325.995c-2.154,0-4.307.007-6.461,0a1.328,1.328,0,0,1-.311-2.636,5.4,5.4,0,0,1,.662-.011H98.01a4.984,4.984,0,0,1,.662.013,1.327,1.327,0,0,1-.02,2.626,6.127,6.127,0,0,1-.745.012h-6.13" transform="translate(-65.259 -251.606)" fill="currentColor"/>
    <path id="Path_81" data-name="Path 81" d="M186.284,326c-1.739,0-3.478.01-5.216,0a1.324,1.324,0,0,1-.2-2.639,4.929,4.929,0,0,1,.5-.007h10.019c.994.012,1.534.48,1.57,1.306a1.4,1.4,0,0,1-1.535,1.36c-1.128-.063-2.262-.015-3.394-.015h-1.739" transform="translate(-139.809 -251.612)" fill="currentColor"/>
    <path id="Path_82" data-name="Path 82" d="M6.644,326c-1.739,0-3.478-.029-5.216.013A1.4,1.4,0,0,1,0,324.715a1.318,1.318,0,0,1,1.176-1.359,5.252,5.252,0,0,1,.579-.008h9.771c.166,0,.332-.008.5,0a1.292,1.292,0,0,1,1.257,1.36,1.264,1.264,0,0,1-1.254,1.277c-1.02.031-2.042.01-3.063.01H6.644" transform="translate(0 -251.61)" fill="currentColor"/>
    <path id="Path_83" data-name="Path 83" d="M153.694,349.912c-.854,0-1.709.012-2.563,0a1.311,1.311,0,0,1-1.421-1.366,1.4,1.4,0,0,1,1.424-1.3q2.561.067,5.125,0a1.4,1.4,0,0,1,1.422,1.3,1.321,1.321,0,0,1-1.425,1.365h-2.563" transform="translate(-116.497 -270.21)" fill="currentColor"/>
    <path id="Path_84" data-name="Path 84" d="M48.713,98.14a1.49,1.49,0,0,1-1.235-.712,1.132,1.132,0,0,1,.066-1.391,28.723,28.723,0,0,1,2.278-2.271,1.214,1.214,0,0,1,1.655.151,1.2,1.2,0,0,1,.177,1.651c-.723.825-1.531,1.578-2.331,2.332a1.66,1.66,0,0,1-.611.24" transform="translate(-36.785 -72.76)" fill="currentColor"/>
    <path id="Path_85" data-name="Path 85" d="M128.112,96.668a1.467,1.467,0,0,1-.775,1.3,1.2,1.2,0,0,1-1.4-.148c-.731-.67-1.443-1.366-2.1-2.1a1.255,1.255,0,0,1,.1-1.79,1.241,1.241,0,0,1,1.728-.087c.741.658,1.433,1.374,2.108,2.1a2.36,2.36,0,0,1,.337.724" transform="translate(-96.108 -72.783)" fill="currentColor"/>
    <path id="Path_86" data-name="Path 86" d="M51.986,20.577A1.328,1.328,0,0,1,49.952,21.8a18.194,18.194,0,0,1-2.286-2.264,1.225,1.225,0,0,1,.132-1.658,1.25,1.25,0,0,1,1.723-.146c.782.692,1.5,1.456,2.217,2.222a1.611,1.611,0,0,1,.248.624" transform="translate(-36.884 -13.578)" fill="currentColor"/>
    <path id="Path_87" data-name="Path 87" d="M126.741,17.4a1.465,1.465,0,0,1,1.3.772,1.2,1.2,0,0,1-.144,1.4,28.148,28.148,0,0,1-2.106,2.1,1.226,1.226,0,0,1-1.723-.1,1.24,1.24,0,0,1-.1-1.785c.641-.719,1.338-1.391,2.045-2.045a2.4,2.4,0,0,1,.724-.34" transform="translate(-96.21 -13.539)" fill="currentColor"/>
    <path id="Path_88" data-name="Path 88" d="M89.825,110.372c0-.44-.021-.881,0-1.32a1.281,1.281,0,0,1,1.345-1.263,1.262,1.262,0,0,1,1.288,1.234c.034.934.033,1.871,0,2.806a1.271,1.271,0,0,1-1.343,1.264,1.286,1.286,0,0,1-1.293-1.318c-.02-.467,0-.935,0-1.4" transform="translate(-69.891 -83.875)" fill="currentColor"/>
    <path id="Path_89" data-name="Path 89" d="M140.336,62.476c-.44,0-.882.022-1.32,0a1.282,1.282,0,0,1-1.257-1.352A1.258,1.258,0,0,1,139,59.839c.934-.032,1.871-.032,2.806,0a1.318,1.318,0,0,1,.017,2.632c-.493.03-.99.006-1.485.006" transform="translate(-107.197 -46.545)" fill="currentColor"/>
    <path id="Path_90" data-name="Path 90" d="M32.688,59.856c.44,0,.881-.02,1.32,0a1.282,1.282,0,0,1,1.264,1.344,1.263,1.263,0,0,1-1.234,1.288c-.934.034-1.871.033-2.806,0a1.268,1.268,0,0,1-1.263-1.343,1.283,1.283,0,0,1,1.315-1.294c.467-.02.935,0,1.4,0" transform="translate(-23.32 -46.571)" fill="currentColor"/>
    <path id="Path_91" data-name="Path 91" d="M92.449,2.614c0,.468.02.936,0,1.4a1.319,1.319,0,0,1-2.638-.008q-.039-1.361,0-2.723A1.269,1.269,0,0,1,91.128,0a1.284,1.284,0,0,1,1.317,1.294c.022.439,0,.88,0,1.32" transform="translate(-69.867 0)" fill="currentColor"/>
  </g>
</svg>
