<svg xmlns="http://www.w3.org/2000/svg" width="136.303" height="55.909" viewBox="0 0 136.303 55.909">
  <g id="logo" transform="translate(0 0)">
    <g id="Group_2" data-name="Group 2" transform="translate(0 0)">
      <path id="Path_15" data-name="Path 15" d="M326.366,16.527a1.264,1.264,0,0,1-.274-.7,4.625,4.625,0,0,0-1.8-3.369,5,5,0,0,0-4.465-1.148c-.678.163-1.358.316-2.046.423a6.51,6.51,0,0,1-2.211.345,2.978,2.978,0,0,1-.2-.578c-.229-1.661-.733-3.267-1.057-4.91-.292-1.47-.686-2.92-1-4.386A2.83,2.83,0,0,0,309.842.079c-1.182.267-2.361.538-3.552.77-1.366.267-2.715.613-4.084.874a2.687,2.687,0,0,0-2.214,3.315c.32.952.424,1.953.692,2.92.214.77.377,1.557.547,2.338.282,1.3.547,2.594.883,3.878a1.138,1.138,0,0,1-.041.89c-.89.2-1.834.429-2.787.61a8.344,8.344,0,0,0-2.654.792,4.853,4.853,0,0,0-2.189,2.36,4.347,4.347,0,0,0-.449,2.625c.262,1.2.5,2.405.82,3.589.3,1.087.468,2.2.761,3.288a17.561,17.561,0,0,0,.625,2.3,1.387,1.387,0,0,0,.787-.333,21.36,21.36,0,0,1,2.347-1.164,18.869,18.869,0,0,1,4.717-1.181,4.44,4.44,0,0,1,2.966.654,19.54,19.54,0,0,1,4.744,4.5c.741.866,1.432,1.773,2.111,2.682a.55.55,0,0,0,.613.258c.9-2.078,2.08-4.294,2.957-5.86a.283.283,0,0,1-.025-.02c.379-.693.783-1.365,1.205-2.023.009-.015.016-.027.022-.036l.017-.027c.685-1.069,1.413-2.106,2.136-3.145a60.9,60.9,0,0,1,3.881-4.875,62.87,62.87,0,0,1,4.493-4.457c1.5-1.423,3.293-2.512,4.864-3.866a43.879,43.879,0,0,0-7.671,4.794m-12.589-4.02c-1.5.514-3.173.694-4.789,1.09s-3.3.634-4.942,1.093a1.028,1.028,0,0,1-.413-.685c-.195-1.339-.583-2.637-.859-3.958-.231-1.1-.551-2.187-.725-3.3-.1-.611-.265-1.214-.409-1.819a1.883,1.883,0,0,1-.042-.746.919.919,0,0,1,.742-.851c1.354-.327,2.724-.58,4.075-.907a22.566,22.566,0,0,0,2.866-.652,4.379,4.379,0,0,1,1.223-.193,1.11,1.11,0,0,1,1.2.959c.34,1.408.636,2.829.982,4.234.215.872.345,1.761.63,2.625.246.752.279,1.569.544,2.335a.991.991,0,0,1-.086.776" transform="translate(-248.093 -0.001)" fill="#174791"/>
      <path id="Path_16" data-name="Path 16" d="M346.91,167.182c-.125-.738-.34-1.459-.5-2.191-.243-1.1-.536-2.191-.758-3.291-.337-1.666-.778-3.307-1.11-4.975-.4-2.009-.911-4-1.372-5.994-.321-1.387-.653-2.773-.956-4.163a2.959,2.959,0,0,0-.465-1.389c-1.5,1.44-5.441,9.028-6.59,12.713l-.663,2.036c-.65,1.979-.968,4.026-1.453,6.006l-7.256,3.731a46.1,46.1,0,0,0-14.716-13.9.817.817,0,0,0-.075.628c.324.928.37,1.92.667,2.848.29.91.423,1.851.646,2.771.395,1.627.724,3.273,1.11,4.9.265,1.119.5,2.243.777,3.36.321,1.307.535,2.64.959,3.925a4.779,4.779,0,0,0,2.388,2.729,4.883,4.883,0,0,0,3.381.509,1.476,1.476,0,0,1,.951.069,2.614,2.614,0,0,1,.167.3,2.476,2.476,0,0,1,.126.434c.184.959.421,1.1,1.425.9.485-.1.923-.321,1.422-.38.675-.08.841-.348.666-.976a1.572,1.572,0,0,1-.1-1.206c.867-.246,1.775-.417,2.678-.622,1.433-.325,2.872-.621,4.313-.914q.456-.093.9-.208c.9-.226,1.814-.395,2.72-.589a6.678,6.678,0,0,0,1.656-.369.667.667,0,0,1,.764.087,5.424,5.424,0,0,0,.586,1.613,6.455,6.455,0,0,0,3.064-.551c.24-.7-.067-1.359-.037-2.056a5.554,5.554,0,0,0,3.477-1.833,4.559,4.559,0,0,0,1.2-3.957" transform="translate(-262.467 -123.313)" fill="#8f9"/>
      <path id="Path_17" data-name="Path 17" d="M765.3,200.617a8.244,8.244,0,0,0-2.511-4.475,9.226,9.226,0,0,0-4.6-2.35,16.423,16.423,0,0,0-3.632-.209,10.206,10.206,0,0,0-5.034,1.562l-.047.028a7.5,7.5,0,0,0-1.792,1.5l-.009.01a7.633,7.633,0,0,0-1.963,3.762,9.83,9.83,0,0,0,.32,5.4,8.487,8.487,0,0,0,4.012,4.512,11.868,11.868,0,0,0,4.327,1.292,11.207,11.207,0,0,0,4.962-.56,8.891,8.891,0,0,0,6.194-8.023,9.934,9.934,0,0,0-.225-2.444m-9.793,6.778a4.764,4.764,0,1,1,4.7-4.764,4.73,4.73,0,0,1-4.7,4.764" transform="translate(-629.234 -164.414)" fill="#1a1818"/>
      <path id="Path_18" data-name="Path 18" d="M563.749,203.876H550.426a3.03,3.03,0,0,0,.767,1.629,4.852,4.852,0,0,0,3.61,1.642,6.028,6.028,0,0,0,4.684-1.384.5.5,0,0,1,.209-.095,1.622,1.622,0,0,1,.253-.023c.834.8,1.684,1.6,2.508,2.428.3.3.263.585-.075.93a6.851,6.851,0,0,1-2.2,1.5,12.434,12.434,0,0,1-6.275.931,11.761,11.761,0,0,1-5.346-1.816,8.042,8.042,0,0,1-2.707-2.951,8.955,8.955,0,0,1-.871-6.262,8.558,8.558,0,0,1,2.769-4.667,10.627,10.627,0,0,1,3.81-2.089,4.525,4.525,0,0,1,.99-.189,13.282,13.282,0,0,1,4.637.146,8.744,8.744,0,0,1,5.918,4.559,10.068,10.068,0,0,1,.893,5.258.584.584,0,0,1-.25.451m-13.356-3.214h8.337a3.821,3.821,0,0,0-3.6-3.268c-2.511-.2-4.458,1.086-4.742,3.268" transform="translate(-459.812 -164.213)" fill="#1a1818"/>
      <path id="Path_19" data-name="Path 19" d="M202.881,200.794a2.417,2.417,0,0,0-1.117-2.327,4.473,4.473,0,0,0-2.328-.723,9.526,9.526,0,0,0-5.3,1.388.657.657,0,0,1-.434.16,33.671,33.671,0,0,1-1.925-3.517,4.2,4.2,0,0,1,1.619-1.021,13.715,13.715,0,0,1,4.7-1.16,27.512,27.512,0,0,1,3.335.031,7.7,7.7,0,0,1,5.176,2.246,5.845,5.845,0,0,1,1.749,3.984c.079,3.686.036,7.374.041,11.061a.533.533,0,0,1-.1.357,17.769,17.769,0,0,1-4.855-.027c-.207-.493-.035-1.029-.131-1.61a4.484,4.484,0,0,0-.506.411,4.892,4.892,0,0,1-2.239,1.272,8.941,8.941,0,0,1-4.445.231,6.416,6.416,0,0,1-4.056-2.28,4.877,4.877,0,0,1-.988-3.538c.228-2.5,2.51-4.064,4.558-4.471a36.961,36.961,0,0,1,6.8-.376.529.529,0,0,0,.436-.092m-.113,3.281c-1.674.081-3.32-.172-4.954.281a1.784,1.784,0,0,0-.9,2.887,3.653,3.653,0,0,0,2.1.813,3.39,3.39,0,0,0,1.658-.271c1.8-.515,2.6-1.7,2.09-3.71" transform="translate(-161.265 -164.404)" fill="#1a1818"/>
      <path id="Path_20" data-name="Path 20" d="M12.725,186.766a27.621,27.621,0,0,1,1.281,3.517,2.145,2.145,0,0,1-1.061.7,9.516,9.516,0,0,1-4.419.482,8.089,8.089,0,0,1-2.789-.822,5.262,5.262,0,0,1-2.665-3.521A15.045,15.045,0,0,1,2.8,183.4c-.012-1.481,0-2.961,0-4.442a1.834,1.834,0,0,0-.095-.842c-.836-.18-1.7.046-2.5-.131a.5.5,0,0,1-.2-.435c0-.979-.016-1.958,0-2.936.009-.546.131-.656.7-.671.646-.017,1.293,0,2.059,0,.024-1.375.048-2.685.073-4.1,1.844-.009,3.592-.018,5.4.008.164,1.373-.017,2.674.125,4.064H12.57a10.8,10.8,0,0,1,.1,4.086c-1.389.147-2.813-.021-4.2.089-.211.174-.161.387-.161.581,0,2.133-.071,4.269.021,6.4.066,1.516.736,2.178,2.188,2.139a3.148,3.148,0,0,0,1.776-.441c.083-.057.189-.082.433.007" transform="translate(0 -144.248)" fill="#1a1818"/>
      <path id="Path_21" data-name="Path 21" d="M689.055,174.526a2.446,2.446,0,0,1-.111-1q0-11.062,0-22.125c0-.15-.007-.3,0-.451.037-.5.208-.715.7-.723,1.4-.023,2.8-.011,4.207-.006a.518.518,0,0,1,.573.57c0,.2,0,.4,0,.6q0,11.025,0,22.05a2.131,2.131,0,0,1-.143,1.081,39.065,39.065,0,0,1-5.231,0" transform="translate(-581.504 -127.592)" fill="#1a1818"/>
      <path id="Path_22" data-name="Path 22" d="M113.195,211.38a18.388,18.388,0,0,1-5.272.059c-.172-.549-.212-16.522-.043-17.33a23.927,23.927,0,0,1,4.628-.156.593.593,0,0,1,.55.306c-.011.435-.253.946.188,1.426a7.3,7.3,0,0,1,5.778-1.883.549.549,0,0,1,.181.468c0,1.229.012,2.458,0,3.687-.007.553-.125.655-.691.673-.493.016-.987.013-1.48.009a3.512,3.512,0,0,0-2.457.962,3.762,3.762,0,0,0-1.265,2.724c-.047,2.708-.028,5.417-.038,8.126a2.707,2.707,0,0,1-.078.928" transform="translate(-90.966 -164.578)" fill="#1a1818"/>
      <g id="Group_3" data-name="Group 3" transform="translate(0 22.625)">
        <path id="Path_23" data-name="Path 23" d="M765.3,200.617a8.244,8.244,0,0,0-2.511-4.475,9.226,9.226,0,0,0-4.6-2.35,16.423,16.423,0,0,0-3.632-.209,10.206,10.206,0,0,0-5.034,1.562l-.047.028a7.5,7.5,0,0,0-1.792,1.5l-.009.01a7.633,7.633,0,0,0-1.963,3.762,9.83,9.83,0,0,0,.32,5.4,8.487,8.487,0,0,0,4.012,4.512,11.868,11.868,0,0,0,4.327,1.292,11.207,11.207,0,0,0,4.962-.56,8.891,8.891,0,0,0,6.194-8.023,9.934,9.934,0,0,0-.225-2.444m-9.793,6.778a4.764,4.764,0,1,1,4.7-4.764,4.73,4.73,0,0,1-4.7,4.764" transform="translate(-629.234 -187.039)" fill="#00255a"/>
        <path id="Path_24" data-name="Path 24" d="M563.749,203.876H550.426a3.03,3.03,0,0,0,.767,1.629,4.852,4.852,0,0,0,3.61,1.642,6.028,6.028,0,0,0,4.684-1.384.5.5,0,0,1,.209-.095,1.622,1.622,0,0,1,.253-.023c.834.8,1.684,1.6,2.508,2.428.3.3.263.585-.075.93a6.851,6.851,0,0,1-2.2,1.5,12.434,12.434,0,0,1-6.275.931,11.761,11.761,0,0,1-5.346-1.816,8.042,8.042,0,0,1-2.707-2.951,8.955,8.955,0,0,1-.871-6.262,8.558,8.558,0,0,1,2.769-4.667,10.627,10.627,0,0,1,3.81-2.089,4.525,4.525,0,0,1,.99-.189,13.282,13.282,0,0,1,4.637.146,8.744,8.744,0,0,1,5.918,4.559,10.068,10.068,0,0,1,.893,5.258.584.584,0,0,1-.25.451m-13.356-3.214h8.337a3.821,3.821,0,0,0-3.6-3.268c-2.511-.2-4.458,1.086-4.742,3.268" transform="translate(-459.812 -186.837)" fill="#00255a"/>
        <path id="Path_25" data-name="Path 25" d="M202.881,200.794a2.417,2.417,0,0,0-1.117-2.327,4.473,4.473,0,0,0-2.328-.723,9.526,9.526,0,0,0-5.3,1.388.657.657,0,0,1-.434.16,33.671,33.671,0,0,1-1.925-3.517,4.2,4.2,0,0,1,1.619-1.021,13.715,13.715,0,0,1,4.7-1.16,27.512,27.512,0,0,1,3.335.031,7.7,7.7,0,0,1,5.176,2.246,5.845,5.845,0,0,1,1.749,3.984c.079,3.686.036,7.374.041,11.061a.533.533,0,0,1-.1.357,17.769,17.769,0,0,1-4.855-.027c-.207-.493-.035-1.029-.131-1.61a4.484,4.484,0,0,0-.506.411,4.892,4.892,0,0,1-2.239,1.272,8.941,8.941,0,0,1-4.445.231,6.416,6.416,0,0,1-4.056-2.28,4.877,4.877,0,0,1-.988-3.538c.228-2.5,2.51-4.064,4.558-4.471a36.961,36.961,0,0,1,6.8-.376.529.529,0,0,0,.436-.092m-.113,3.281c-1.674.081-3.32-.172-4.954.281a1.784,1.784,0,0,0-.9,2.887,3.653,3.653,0,0,0,2.1.813,3.39,3.39,0,0,0,1.658-.271c1.8-.515,2.6-1.7,2.09-3.71" transform="translate(-161.265 -187.029)" fill="#00255a"/>
        <path id="Path_26" data-name="Path 26" d="M12.725,186.766a27.621,27.621,0,0,1,1.281,3.517,2.145,2.145,0,0,1-1.061.7,9.516,9.516,0,0,1-4.419.482,8.089,8.089,0,0,1-2.789-.822,5.262,5.262,0,0,1-2.665-3.521A15.045,15.045,0,0,1,2.8,183.4c-.012-1.481,0-2.961,0-4.442a1.834,1.834,0,0,0-.095-.842c-.836-.18-1.7.046-2.5-.131a.5.5,0,0,1-.2-.435c0-.979-.016-1.958,0-2.936.009-.546.131-.656.7-.671.646-.017,1.293,0,2.059,0,.024-1.375.048-2.685.073-4.1,1.844-.009,3.592-.018,5.4.008.164,1.373-.017,2.674.125,4.064H12.57a10.8,10.8,0,0,1,.1,4.086c-1.389.147-2.813-.021-4.2.089-.211.174-.161.387-.161.581,0,2.133-.071,4.269.021,6.4.066,1.516.736,2.178,2.188,2.139a3.148,3.148,0,0,0,1.776-.441c.083-.057.189-.082.433.007" transform="translate(0 -166.872)" fill="#00255a"/>
        <path id="Path_27" data-name="Path 27" d="M689.055,174.526a2.446,2.446,0,0,1-.111-1q0-11.062,0-22.125c0-.15-.007-.3,0-.451.037-.5.208-.715.7-.723,1.4-.023,2.8-.011,4.207-.006a.518.518,0,0,1,.573.57c0,.2,0,.4,0,.6q0,11.025,0,22.05a2.131,2.131,0,0,1-.143,1.081,39.065,39.065,0,0,1-5.231,0" transform="translate(-581.504 -150.217)" fill="#00255a"/>
        <path id="Path_28" data-name="Path 28" d="M113.195,211.38a18.388,18.388,0,0,1-5.272.059c-.172-.549-.212-16.522-.043-17.33a23.927,23.927,0,0,1,4.628-.156.593.593,0,0,1,.55.306c-.011.435-.253.946.188,1.426a7.3,7.3,0,0,1,5.778-1.883.549.549,0,0,1,.181.468c0,1.229.012,2.458,0,3.687-.007.553-.125.655-.691.673-.493.016-.987.013-1.48.009a3.512,3.512,0,0,0-2.457.962,3.762,3.762,0,0,0-1.265,2.724c-.047,2.708-.028,5.417-.038,8.126a2.707,2.707,0,0,1-.078.928" transform="translate(-90.966 -187.202)" fill="#00255a"/>
      </g>
    </g>
  </g>
</svg>
