<svg id="mission-icon" xmlns="http://www.w3.org/2000/svg" width="108.9" height="116.698" viewBox="0 0 108.9 116.698">
  <path id="Path_179" data-name="Path 179" d="M953.511,367.3a12.068,12.068,0,0,1,6.294,3.315c.356-.117.7-.211,1.028-.342a17.457,17.457,0,0,1,23.246,12.166,20.194,20.194,0,0,1,.44,5.782,3.2,3.2,0,0,1-.129.713,1.946,1.946,0,0,1-2.276,1.519,2.034,2.034,0,0,1-1.574-2.265,12.243,12.243,0,0,0-.817-6.419,13.3,13.3,0,0,0-10.717-8.6,12.939,12.939,0,0,0-8.094,1.38c-.217.107-.424.238-.646.333a1.867,1.867,0,0,1-2.4-.514c-.2-.2-.371-.428-.557-.642a7.739,7.739,0,0,0-5.516-2.684c-1.611-.118-2.135-.665-2.241-2.24a11.669,11.669,0,0,0-6.253-10.018c-.652-.363-1.293-.728-1.469-1.51a1.869,1.869,0,0,1,.633-1.973,1.817,1.817,0,0,1,2.035-.309,15.542,15.542,0,0,1,8.732,11.52,3.106,3.106,0,0,0,.126.467,2.809,2.809,0,0,0,.161.318" transform="translate(-875.653 -273.794)" fill="currentColor" class="text-light" />
  <path id="Path_180" data-name="Path 180" d="M679.636,377.647a13.456,13.456,0,0,1,3.034-6.5,13.248,13.248,0,0,1,10.311-4.83,1.935,1.935,0,1,1,.156,3.865,11.858,11.858,0,0,0-3.547.709,9.693,9.693,0,0,0-6.211,8.655,4.568,4.568,0,0,0,.063.966,1.981,1.981,0,0,1-.847,2.113,1.9,1.9,0,0,1-2.267-.061,16.312,16.312,0,0,0-5.2-2.228,15.58,15.58,0,0,0-18.919,16.622,2.792,2.792,0,0,1-.224,1.395,1.788,1.788,0,0,1-1.8,1,1.85,1.85,0,0,1-1.625-1.1,2.691,2.691,0,0,1-.266-1.047,19.355,19.355,0,0,1,4.471-14.2,19.015,19.015,0,0,1,11.252-6.661,18.663,18.663,0,0,1,10.38.858c.376.143.759.269,1.24.439" transform="translate(-652.239 -282.669)" fill="currentColor" class="text-light" />
  <path id="Path_181" data-name="Path 181" d="M815.544,448.382c1-.883,1.838-1.649,2.706-2.375a13.585,13.585,0,0,1,21.973,7.35,27.511,27.511,0,0,1,.346,2.879,1.968,1.968,0,0,1-1.824,2.15,1.923,1.923,0,0,1-2.06-2.033,10.159,10.159,0,0,0-1.853-5.549,9.667,9.667,0,0,0-16.341.955c-.158.281-.282.586-.466.848a1.886,1.886,0,0,1-2.847.477c-.294-.213-.557-.469-.838-.7a7.742,7.742,0,0,0-12.17,3.378c-.108.3-.177.62-.271.929a2.045,2.045,0,0,1-2.43,1.649,2.016,2.016,0,0,1-1.389-2.59,10.583,10.583,0,0,1,2.033-4.359,11.612,11.612,0,0,1,10.758-4.613A10.507,10.507,0,0,1,815,448.094c.244.135.494.261.545.288" transform="translate(-764.724 -341.702)" fill="currentColor" class="text-light" />
  <path id="Path_182" data-name="Path 182" d="M1064.927,185.969q0,6.431,0,12.861a9.3,9.3,0,0,1-.013.97,1.941,1.941,0,0,1-3.856.012,7.924,7.924,0,0,1-.012-.849q0-12.982,0-25.965a8.059,8.059,0,0,1,.011-.849,1.941,1.941,0,0,1,3.856-.012,9.043,9.043,0,0,1,.013.97q0,6.43,0,12.861" transform="translate(-967.695 -131.511)" fill="currentColor" class="text-light" />
  <path id="Path_183" data-name="Path 183" d="M707.274,184.162q0,5.4,0,10.8a8.837,8.837,0,0,1-.013.97,1.941,1.941,0,0,1-3.856-.019,8.28,8.28,0,0,1-.011-.849q0-11.039,0-22.078a7.768,7.768,0,0,1,.012-.848,1.941,1.941,0,0,1,3.856.02,8.055,8.055,0,0,1,.012.849q0,5.58,0,11.16" transform="translate(-691.709 -131.511)" fill="currentColor" class="text-light" />
  <path id="Path_184" data-name="Path 184" d="M737.452,269.2q0-5.52,0-11.039a8.293,8.293,0,0,1,.011-.849,1.941,1.941,0,0,1,3.857-.021,7.677,7.677,0,0,1,.013.848q0,11.039,0,22.078a8.01,8.01,0,0,1-.012.849,1.941,1.941,0,0,1-3.856.02,9.151,9.151,0,0,1-.013-.97q0-5.459,0-10.917" transform="translate(-717.99 -197.223)" fill="currentColor" class="text-light" />
  <path id="Path_185" data-name="Path 185" d="M1030.863,269.24q0,5.459,0,10.917a7.943,7.943,0,0,1-.015.97,1.946,1.946,0,0,1-3.849.02,6.481,6.481,0,0,1-.015-.848q0-11.1,0-22.2a6.891,6.891,0,0,1,.014-.848,1.946,1.946,0,0,1,3.849-.019,7.453,7.453,0,0,1,.017.969q0,5.52,0,11.039" transform="translate(-941.409 -197.225)" fill="currentColor" class="text-light" />
  <path id="Path_188" data-name="Path 188" d="M705.365,306.678a1.938,1.938,0,1,1-1.944,1.869,1.9,1.9,0,0,1,1.944-1.869" transform="translate(-691.733 -236.651)" fill="currentColor" class="text-light" />
  <g id="Group_134" data-name="Group 134" transform="translate(46.679 73.912)">
    <path id="Path_186" data-name="Path 186" d="M856.671,337.314q0-5.52,0-11.039a8.156,8.156,0,0,1,.011-.849,1.941,1.941,0,0,1,3.856-.007,7.705,7.705,0,0,1,.012.848q0,11.039,0,22.078a7.925,7.925,0,0,1-.012.849,1.941,1.941,0,0,1-3.856.007,9.4,9.4,0,0,1-.012-.97q0-5.459,0-10.917" transform="translate(-856.664 -323.702)" fill="currentColor" class="text-secondary" />
    <path id="Path_187" data-name="Path 187" d="M911.638,331.478c0,1.9.013,3.8-.005,5.695a1.936,1.936,0,1,1-3.867.1c-.031-1.615-.008-3.231-.008-4.846,0-2.221-.013-4.443.005-6.664a1.936,1.936,0,1,1,3.866-.1c.031,1.615.008,3.231.009,4.846q0,.485,0,.969" transform="translate(-896.085 -323.694)" fill="currentColor" class="text-secondary" />
    <path id="Path_189" data-name="Path 189" d="M909.727,408.865a1.938,1.938,0,1,1-1.932,1.881,1.9,1.9,0,0,1,1.932-1.881" transform="translate(-896.119 -389.417)" fill="currentColor" class="text-secondary" />
  </g>
  <g id="Group_133" data-name="Group 133" transform="translate(31.096 0)">
    <path id="Path_178" data-name="Path 178" d="M796.444,41.833a53.176,53.176,0,0,1-.272-10.239,49.343,49.343,0,0,1,6.1-20.252A47.427,47.427,0,0,1,810.023.976a3.527,3.527,0,0,1,1.387-.9,1.831,1.831,0,0,1,1.95.689c1.31,1.488,2.692,2.92,3.907,4.483a48.7,48.7,0,0,1,9.514,21.383,47.157,47.157,0,0,1,.747,10.752c-.066,1.412-.237,2.818-.372,4.371.765.773,1.6,1.646,2.468,2.486a17.711,17.711,0,0,1,4.394,6.613,16.764,16.764,0,0,1,1.1,5.922c-.017,4.859-.005,9.718-.005,14.577,0,.243.013.487-.008.728a1.92,1.92,0,0,1-2.609,1.71,9.305,9.305,0,0,1-1.094-.52c-3.289-1.643-6.577-3.287-9.919-4.959a27.91,27.91,0,0,1-19.365,0c-2.159,1.078-4.361,2.18-6.565,3.278-1.41.7-2.825,1.4-4.233,2.1a1.927,1.927,0,0,1-2.719-1,2.722,2.722,0,0,1-.14-.947c-.005-5.264-.1-10.531.035-15.791a16.288,16.288,0,0,1,4.672-10.9c1.05-1.121,2.189-2.158,3.276-3.221M819.5,57.4c-1.649.283-3.223.652-4.818.8a38.649,38.649,0,0,1-4.971.09,1.879,1.879,0,0,1-1.811-1.923,1.909,1.909,0,0,1,2.123-1.961c1.615-.044,3.237-.042,4.843-.191a17.092,17.092,0,0,0,5.6-1.461c.241-.846.468-1.66.7-2.472a57.09,57.09,0,0,0,2.252-10.647,45.221,45.221,0,0,0-8.444-30.9c-.97-1.33-2.047-2.583-3.11-3.915-.224.2-.351.293-.453.408a43.624,43.624,0,0,0-5.874,8.309,45.256,45.256,0,0,0-5.5,19.418,42.115,42.115,0,0,0,1.014,12.04c.777,3.256,1.7,6.479,2.59,9.707a9.343,9.343,0,0,1,.37,2.624c-.024,2.187-.011,4.374,0,6.562,0,.313.049.625.075.934a23.448,23.448,0,0,0,15.42-.008ZM797.288,46.571c-.258.2-.389.293-.5.4a13.759,13.759,0,0,0-4.445,10.264c-.024,3.561-.007,7.123,0,10.685,0,.254.054.508.09.834l7.69-3.851c0-2.688,0-5.316,0-7.942a1.819,1.819,0,0,0-.071-.477c-.9-3.259-1.811-6.516-2.756-9.913m33.839,22.167a2.17,2.17,0,0,0,.1-.418c0-3.924.053-7.85-.032-11.773a13.2,13.2,0,0,0-3.133-8.221c-.5-.611-1.094-1.146-1.756-1.832-.476,1.7-.9,3.2-1.316,4.7a42.657,42.657,0,0,0-1.462,5.485,43.351,43.351,0,0,0-.079,5.7c0,.526-.007,1.052,0,1.578.005.317.033.633.052.971l7.627,3.811" transform="translate(-788.421 0)" fill="currentColor" class="text-secondary" />
    <g id="Group_132" data-name="Group 132" transform="translate(19.478 27.247)">
      <path id="Path_190" data-name="Path 190" d="M875.562,123.2a1.94,1.94,0,1,1,2.036-1.777,1.908,1.908,0,0,1-2.036,1.777" transform="translate(-873.724 -119.327)" fill="currentColor" class="text-secondary" />
      <path id="Path_191" data-name="Path 191" d="M875.65,157.273a1.938,1.938,0,1,1,1.958-1.858,1.894,1.894,0,0,1-1.958,1.858" transform="translate(-873.731 -145.618)" fill="currentColor" class="text-secondary" />
    </g>
  </g>
</svg>