<svg xmlns="http://www.w3.org/2000/svg" width="278" height="30" viewBox="0 0 278 30"><path d="M0,3A3,3,0,0,1,3,0H43a3,3,0,0,1,3,3V27a3,3,0,0,1-3,3H3a3,3,0,0,1-3-3Z" fill="rgba(198,198,198,0.99)" opacity="0.5"/><path d="M20.669,19.908H17.837L19.609,9.563h2.832Z" fill="#00579f"/><path d="M30.935,9.815a7.339,7.339,0,0,0-2.54-.44c-2.8,0-4.766,1.409-4.778,3.423-.023,1.486,1.41,2.311,2.482,2.807,1.1.506,1.468.837,1.468,1.288-.011.693-.885,1.013-1.7,1.013a5.913,5.913,0,0,1-2.657-.55l-.373-.165-.4,2.322a9.065,9.065,0,0,0,3.159.551c2.971,0,4.906-1.387,4.929-3.533.011-1.178-.745-2.08-2.377-2.818-.99-.473-1.6-.793-1.6-1.277.012-.44.513-.891,1.631-.891a5.055,5.055,0,0,1,2.11.4l.256.11.385-2.234Z" fill="#00579f"/><path d="M34.7,16.243c.233-.594,1.131-2.895,1.131-2.895-.012.022.233-.605.373-.991l.2.891s.536,2.476.653,2.994Zm3.5-6.681H36a1.407,1.407,0,0,0-1.48.858l-4.207,9.487H33.29l.594-1.552H37.52c.081.363.338,1.552.338,1.552H40.48L38.2,9.563Z" fill="#00579f"/><path d="M15.472,9.563,12.7,16.617l-.3-1.431A8.057,8.057,0,0,0,8.48,10.85L11.02,19.9h2.995L18.467,9.563Z" fill="#00579f"/><path d="M10.123,9.563H5.567l-.047.209c3.554.859,5.908,2.928,6.875,5.415L11.4,10.432C11.242,9.771,10.741,9.584,10.123,9.563Z" fill="#faa61a"/><path d="M58,3a3,3,0,0,1,3-3h40a3,3,0,0,1,3,3V27a3,3,0,0,1-3,3H61a3,3,0,0,1-3-3Z" fill="rgba(198,198,198,0.99)" opacity="0.5"/><path d="M81,22.037a8.777,8.777,0,0,1-5.817,2.208A9.11,9.11,0,0,1,66.214,15a9.11,9.11,0,0,1,8.968-9.245A8.777,8.777,0,0,1,81,7.963a8.777,8.777,0,0,1,5.817-2.209A9.11,9.11,0,0,1,95.785,15a9.11,9.11,0,0,1-8.968,9.245A8.776,8.776,0,0,1,81,22.037Z" fill="#ed0006" fill-rule="evenodd"/><path d="M81,22.037A9.432,9.432,0,0,0,81,7.963a8.777,8.777,0,0,1,5.817-2.209A9.11,9.11,0,0,1,95.785,15a9.11,9.11,0,0,1-8.968,9.245A8.777,8.777,0,0,1,81,22.037Z" fill="#f9a000" fill-rule="evenodd"/><path d="M81,7.963a9.432,9.432,0,0,1,0,14.073A9.432,9.432,0,0,1,81,7.963Z" fill="#ff5e00" fill-rule="evenodd"/><path d="M116,3a3,3,0,0,1,3-3h40a3,3,0,0,1,3,3V27a3,3,0,0,1-3,3H119a3,3,0,0,1-3-3Z" fill="rgba(198,198,198,0.99)" opacity="0.5"/><path d="M120.322,8.95h-1.9v6.875h1.9a3.443,3.443,0,0,0,2.372-.788A3.482,3.482,0,0,0,123.9,12.4a3.371,3.371,0,0,0-3.583-3.45Zm1.525,5.175a2.434,2.434,0,0,1-1.78.55h-.351v-4.55h.351a2.382,2.382,0,0,1,1.78.55,2.346,2.346,0,0,1,.714,1.713A2.4,2.4,0,0,1,121.847,14.125ZM124.5,8.95h1.295v6.875H124.5V8.95Zm4.467,2.638c-.775-.3-1-.5-1-.863,0-.437.412-.763.968-.763a1.287,1.287,0,0,1,1.041.563l.678-.913a2.874,2.874,0,0,0-1.961-.762,1.994,1.994,0,0,0-2.082,1.975c0,.95.424,1.438,1.634,1.887a6.3,6.3,0,0,1,.9.387.844.844,0,0,1,.388.713.96.96,0,0,1-1.005.975,1.549,1.549,0,0,1-1.417-.912l-.835.837a2.557,2.557,0,0,0,2.3,1.312,2.185,2.185,0,0,0,2.3-2.262c.024-1.113-.423-1.613-1.9-2.175Zm2.324.813a3.5,3.5,0,0,0,3.51,3.587,3.455,3.455,0,0,0,1.623-.4V14.013a2.045,2.045,0,0,1-1.562.75,2.216,2.216,0,0,1-2.24-2.375,2.252,2.252,0,0,1,2.179-2.363,2.115,2.115,0,0,1,1.623.775V9.225a3.229,3.229,0,0,0-1.6-.425,3.563,3.563,0,0,0-3.535,3.6Zm15.446,1.175L144.956,8.95h-1.417L146.36,16h.7l2.869-7.05h-1.4l-1.792,4.625Zm3.789,2.25h3.68V14.663h-2.385v-1.85h2.3V11.65h-2.3V10.125H154.2V8.95h-3.68v6.875Zm8.825-4.838c0-1.288-.86-2.025-2.361-2.025h-1.924v6.875h1.295V13.075h.169l1.792,2.762h1.6l-2.094-2.9a1.827,1.827,0,0,0,1.525-1.95Zm-2.615,1.138h-.375V10.038h.4c.811,0,1.247.35,1.247,1.025s-.436,1.063-1.271,1.063Z" fill="#231f20"/><path d="M140.4,16.075A3.492,3.492,0,0,0,142.913,15a3.749,3.749,0,0,0,0-5.181,3.47,3.47,0,0,0-5.018,0,3.749,3.749,0,0,0,0,5.181A3.494,3.494,0,0,0,140.4,16.075Z" fill="#fff"/><path d="M140.4,16.075A3.492,3.492,0,0,0,142.913,15a3.749,3.749,0,0,0,0-5.181,3.47,3.47,0,0,0-5.018,0,3.749,3.749,0,0,0,0,5.181A3.494,3.494,0,0,0,140.4,16.075Z" fill="#fff" opacity="0.65"/><path d="M160.269,9.382c0-.125-.085-.187-.218-.187h-.194v.6H160V9.557l.169.238h.17l-.194-.25a.151.151,0,0,0,.121-.162Zm-.242.087H160V9.307h.024c.073,0,.109.025.109.075S160.1,9.47,160.027,9.47Z" fill="#231f20"/><path d="M160.075,8.97a.525.525,0,1,0,.509.525A.52.52,0,0,0,160.075,8.97Zm0,.962a.439.439,0,1,1,.4-.437A.425.425,0,0,1,160.075,9.933Z" fill="#231f20"/><path d="M161.971,15.938S149.619,25.61,127.04,30h32.437a2.359,2.359,0,0,0,1.756-.815,2.992,2.992,0,0,0,.737-1.971l.03-4.24-.029-7.035Z" fill="#f48120"/><path d="M174,3a3,3,0,0,1,3-3h40a3,3,0,0,1,3,3V27a3,3,0,0,1-3,3H177a3,3,0,0,1-3-3Z" fill="rgba(198,198,198,0.99)" opacity="0.5"/><path d="M202.932,10.375a2.95,2.95,0,0,0-.727-2.875c-.726-.875-2.057-1.25-3.752-1.25H193.49a.774.774,0,0,0-.727.625L190.948,19.5c0,.25.121.5.363.5h3.268l.484-4.25L197.242,13l5.69-2.625Z" fill="#003087"/><path d="M202.932,10.375l-.242.25c-.606,3.5-2.663,4.75-5.569,4.75H195.79a.775.775,0,0,0-.727.625l-.726,4.875-.242,1.25c0,.25.121.5.363.5H197a.559.559,0,0,0,.6-.5V22l.485-3v-.125c0-.25.363-.5.605-.5h.363c2.542,0,4.479-1,4.963-4a3.509,3.509,0,0,0-.484-3A1.263,1.263,0,0,0,202.932,10.375Z" fill="#3086c8"/><path d="M202.205,10.125a.436.436,0,0,0-.363-.125.435.435,0,0,1-.363-.125,4.4,4.4,0,0,0-1.332-.125h-3.631c-.121,0-.242,0-.242.125-.243.125-.364.25-.364.5l-.847,5.5V16a.685.685,0,0,1,.726-.625h1.574c3.026,0,4.963-1.25,5.568-4.75v-.25a.909.909,0,0,0-.6-.25Z" fill="#012169"/><path d="M232,3a3,3,0,0,1,3-3h40a3,3,0,0,1,3,3V27a3,3,0,0,1-3,3H235a3,3,0,0,1-3-3Z" fill="rgba(198,198,198,0.99)" opacity="0.5"/><path d="M260.86,15.867h1.626c.027,0,.053,0,.08.005s.065.009.1.015l.01,0a.617.617,0,0,1,.135.05.72.72,0,0,1,.269.23.806.806,0,0,1,.134.308.9.9,0,0,1-.081.594.748.748,0,0,1-.241.269.687.687,0,0,1-.216.1l-.01,0a.309.309,0,0,1-.043.008,1.045,1.045,0,0,1-.134.012H260.86V15.867Zm2.163-1.8a.848.848,0,0,1-.054.505.662.662,0,0,1-.269.3.626.626,0,0,1-.214.083h-.007a.372.372,0,0,1-.047.007q-.054.006-.108.007H260.86V13.5h1.491q.054,0,.108.01l.02,0,.007,0a.655.655,0,0,1,.161.054.751.751,0,0,1,.134.086.707.707,0,0,1,.134.149A.737.737,0,0,1,263.023,14.065Zm3.332-7.617h.011V21.535a3.287,3.287,0,0,1-.2,1.122,3.1,3.1,0,0,1-.3.6q-.025.041-.054.081l-.027.038c-.026.037-.053.073-.08.108l-.027.035-.027.032-.053.064-.028.03-.026.03-.027.028-.027.028c-.044.045-.088.088-.134.129l-.027.024-.027.024-.027.023-.027.022-.027.021-.027.021-.026.02-.028.021-.026.02-.027.019-.027.018-.054.036-.027.017-.026.017-.027.016-.027.016-.027.015-.027.016-.027.015-.027.014-.026.014-.028.014-.026.014-.027.012-.027.013-.027.012-.027.012-.027.011-.027.011-.026.01-.028.01-.026.01-.027.01-.027.01-.027.009-.027.009-.027.008-.026.008-.027.008-.027.007-.027.007-.027.007-.027.006-.027.007-.026.006-.028.005-.026.006-.027,0-.027,0-.027,0-.027,0-.027,0-.027,0-.026,0-.027,0-.027,0-.027,0-.027,0-.027,0-.027,0H259.5V18.4h4.41l.027,0h.027l.027,0,.027,0,.027,0,.027,0,.026,0,.028,0,.026,0,.027,0,.027,0,.027-.005.027,0,.027-.005.027,0,.026-.007.027-.006.027-.007.027-.007q.054-.014.108-.032l.026-.009.081-.03.027-.012.027-.011.027-.012a1.716,1.716,0,0,0,.457-.31,1.53,1.53,0,0,0,.188-.228,1.433,1.433,0,0,0,.188-.441,1.487,1.487,0,0,0,.038-.346,1.512,1.512,0,0,0-.038-.335,1.272,1.272,0,0,0-.242-.5,1.326,1.326,0,0,0-.242-.239,1.523,1.523,0,0,0-.269-.17c-.026-.013-.053-.026-.08-.038l-.027-.012-.027-.011-.027-.01c-.035-.014-.071-.027-.107-.038l-.028-.009c-.053-.017-.106-.031-.161-.043l-.026-.006-.027-.005-.027-.005-.027-.005-.027-.005-.027,0-.027,0-.026,0-.028,0-.026,0-.027,0-.027,0-.025,0V15.4l.025,0,.027-.005.027-.005.026-.005.028-.006.026-.007a1.794,1.794,0,0,0,.3-.1,1.531,1.531,0,0,0,.322-.2,1.334,1.334,0,0,0,.376-.493,1.351,1.351,0,0,0,.108-.422,1.523,1.523,0,0,0,0-.286,1.456,1.456,0,0,0-.08-.358,1.2,1.2,0,0,0-.269-.424,1.253,1.253,0,0,0-.161-.141,1.406,1.406,0,0,0-.243-.146,1.71,1.71,0,0,0-.214-.086l-.027-.009-.054-.016-.027-.007-.053-.014-.028-.006-.026-.006-.027,0-.027-.005-.027-.005-.027-.005-.027,0-.027,0-.026,0-.027,0-.027,0-.027,0-.027,0-.027,0-.027,0H263.7l-.027,0-.027,0-.027,0h-.027l-.027,0H259.5V9.466a3.263,3.263,0,0,1,.273-1.3,3.173,3.173,0,0,1,.161-.314l.054-.088.027-.042.054-.079.027-.038.027-.036c.017-.024.035-.047.053-.07l.027-.033.027-.032q.039-.047.081-.092l.027-.029.026-.029.027-.027.027-.027.027-.026c.035-.034.071-.066.107-.1l.028-.023.026-.023.054-.043.027-.02.027-.02.027-.02.027-.019.026-.018.027-.018.027-.018.027-.017.027-.017.027-.016.027-.016.027-.016.026-.015.027-.015.027-.015.027-.013.027-.014.027-.013.027-.013.026-.013.027-.012.027-.012.027-.012.027-.011.027-.011.027-.01.026-.011.028-.01.026-.009.027-.01.027-.009.027-.009.027-.008.027-.008.027-.008.026-.007.027-.007.027-.007.027-.006.027-.006.027-.005.026-.006.028,0,.026-.005.027,0,.027,0,.027,0,.027,0,.027,0,.027,0,.026,0,.028,0,.026,0,.027,0,.027,0,.027,0h4.192Z" fill="#54b230" fill-rule="evenodd"/><path d="M244.094,16.918V9.465a3.256,3.256,0,0,1,.273-1.3,3.092,3.092,0,0,1,.214-.4l.027-.042.027-.04.027-.039.026-.037.027-.036.054-.07.027-.032.027-.033.026-.031.054-.06.027-.029.026-.028.028-.027.026-.027.027-.026.027-.025.027-.025c.043-.04.088-.078.134-.115l.027-.021c.035-.028.071-.054.107-.08l.027-.019.027-.018.026-.018.027-.017.027-.017.027-.016.027-.016.027-.015.026-.016.027-.015.027-.014.027-.014.027-.014.026-.013.027-.013.027-.012.027-.013.027-.011.027-.011.026-.011.027-.011.027-.01.027-.01L246,6.6l.027-.01.026-.009.027-.009.027-.009.027-.008.027-.008.027-.008.026-.007.027-.007.027-.007.027-.006.026-.006.028-.005.026-.006.027-.005.027-.005.027,0,.026,0,.028,0,.026,0,.027,0,.027,0,.027,0,.026,0,.027,0,.027,0,.027,0h.027l.027,0h4.18V21.534a3.25,3.25,0,0,1-.157,1,3.052,3.052,0,0,1-.456.889l-.027.036c-.017.023-.035.046-.053.068l-.027.033-.027.031-.027.031c-.035.039-.07.078-.107.115l-.027.027-.027.026-.027.026-.026.025-.027.024-.027.023-.027.024-.026.022-.028.022-.026.021-.027.021-.027.02-.027.02-.026.019-.028.019-.026.018-.027.018-.027.017-.027.017-.026.017-.054.032-.027.015-.027.015-.027.015-.026.014-.027.014-.027.014-.027.013-.027.013-.027.013-.026.011-.027.012-.027.011-.027.011-.027.01-.026.01-.027.01-.027.01-.027.009-.027.009-.027.009-.026.008-.027.008-.027.008-.027.007-.027.007-.027.007-.026.006-.027.007-.027.006-.027.005-.027.005-.027,0-.026,0-.027,0-.027,0-.027,0-.027,0-.027,0-.026,0-.027,0-.027,0-.027,0-.027,0-.027,0h-4.215V18.193l.058.017.027.007.027.007.026.007.027.007.027.007.027.007.027.007.027.007.026.007.027.006.027.007.027.006.027.006.026.006.027.006.027.006.027.006.027.005.027.006.026.005.027.006.027.006.027,0,.027.006.027,0,.026,0,.027.005.027,0,.027.005.026,0,.028.005.026,0,.027,0,.027.005.027,0,.026,0,.028,0,.026,0,.027,0,.027,0,.027,0,.026,0,.028,0,.026,0,.027,0,.027,0,.027,0,.026,0,.027,0,.027,0,.027,0,.027,0,.027,0,.026,0,.027,0,.027,0,.027,0,.027,0,.026,0,.027,0,.027,0,.027,0,.027,0,.027,0,.026,0,.027,0,.027,0,.027,0,.027,0,.027,0,.026,0,.027,0,.027,0,.027,0,.027,0,.027,0,.026,0,.027,0,.027,0,.027,0h.054l.026,0h.027l.027,0h.939l.027,0h.026l.027,0,.027,0,.027,0h.026l.028,0,.026,0,.027,0,.027,0,.027,0,.026,0,.028,0,.026,0,.027,0,.027,0,.027,0,.026,0,.027,0,.027,0,.027,0,.027,0,.027,0,.026,0,.027,0,.027,0,.027,0,.027,0,.027-.005.026,0,.027-.005.027,0,.027,0,.027-.005.026-.005.027-.006.027-.006.027-.006.027-.006.027-.007.026-.007.027-.007.027-.007.027-.007.027-.007.027-.007.026-.007.027-.008.027-.007.027-.009.027-.008.027-.009.026-.009.027-.009.027-.009.027-.01.027-.01.027-.01.026-.01.027-.011.027-.01.027-.011.027-.012.027-.011.026-.013.027-.012.027-.013.027-.014.027-.014.026-.014.027-.014.027-.015.027-.015.027-.015.08-.05.027-.017.027-.018.027-.019.027-.019.026-.02.027-.021.027-.021.027-.022c.027-.023.054-.046.08-.07l.027-.025.027-.027.027-.027.054-.058.026-.03.027-.033a1.887,1.887,0,0,0,.268-.437,1.986,1.986,0,0,0,.108-.3,2.249,2.249,0,0,0,.053-.245,3.09,3.09,0,0,0,.041-.508V12.6h-2.375l-.02,3.5a1.956,1.956,0,0,1-.033.358,1.666,1.666,0,0,1-.081.279,1.406,1.406,0,0,1-.161.3,1.241,1.241,0,0,1-.241.253,1.265,1.265,0,0,1-.322.187c-.044.018-.089.033-.134.047l-.027.008a1.5,1.5,0,0,1-.161.036l-.027,0-.053.008-.027,0-.027,0-.027,0-.053,0h-.349l-.027,0-.027,0-.026,0-.027,0-.027,0-.027,0-.027,0-.027,0-.026,0-.027,0-.027,0-.027,0-.027,0-.027,0-.026,0-.027,0-.027,0-.027,0-.027,0-.027-.005-.026,0-.027-.005-.027-.006-.027-.006-.027-.006-.026-.006-.027-.007-.027-.006-.027-.007-.027-.007-.027-.007-.026-.007-.027-.007-.027-.007-.027-.007-.026-.007-.028-.008-.026-.008-.027-.008-.027-.009-.027-.008-.026-.009-.028-.008-.026-.009-.027-.009-.027-.01-.027-.009-.026-.01-.028-.01-.026-.01-.027-.01-.027-.01-.027-.01-.026-.01-.027-.011-.027-.01-.027-.011-.027-.011-.027-.011-.026-.011-.027-.012-.027-.011-.027-.011-.027-.012-.027-.012-.026-.012-.027-.012-.027-.013-.027-.012-.027-.013-.026-.013-.027-.012-.027-.013-.027-.013L244.259,17l-.027-.014-.026-.013-.027-.014-.027-.014-.058-.03Z" fill="#006cb9" fill-rule="evenodd"/><path d="M251.854,13.364q-.03.026-.057.052V9.466a3.256,3.256,0,0,1,.271-1.3,3.1,3.1,0,0,1,.215-.4l.027-.042.027-.04.027-.039.026-.038.028-.036c.017-.024.035-.047.053-.07l.027-.033.027-.032c.034-.041.07-.081.107-.12l.027-.029.027-.027.026-.027.027-.026.027-.025.027-.025c.052-.047.106-.092.161-.135l.08-.061.027-.019.027-.019.027-.018.027-.018.026-.017.027-.017.027-.016.027-.016.027-.015.027-.016.026-.015.027-.015.027-.014.027-.014.027-.013.027-.013.026-.013.027-.012.027-.012.027-.011.027-.011.027-.011.026-.01.027-.01.027-.01.027-.01.027-.009.027-.009.026-.009.027-.008.027-.008.027-.007.027-.007.026-.007.027-.006L254,6.514l.027-.006.027-.006.027-.005.026-.005.027-.005.027,0,.027,0,.027,0,.027,0,.026,0,.027,0,.027,0,.027,0,.027,0,.027,0,.026,0h4.235V21.535a3.281,3.281,0,0,1-.157,1,3.213,3.213,0,0,1-.242.556c-.017.031-.035.062-.053.092l-.027.044c-.043.067-.087.133-.134.2l-.027.036-.027.035-.027.033-.027.033-.027.031-.026.031-.027.03c-.026.029-.053.057-.08.085l-.028.027-.026.026-.027.026-.027.025-.027.024-.026.024-.028.023-.026.022-.027.022-.027.021-.027.021-.026.02-.028.02-.026.019-.027.019-.027.018-.027.018-.026.017-.027.017-.027.017-.027.016-.027.016-.027.015-.026.015-.027.015-.027.014-.027.014-.027.014L257,24.3l-.026.013-.027.012-.027.012-.027.012-.027.011-.026.011-.027.01-.027.01-.027.01-.027.01-.027.009-.026.008-.027.009-.027.008-.027.008-.027.008-.027.007-.026.007-.027.007-.027.006-.027.007-.027.006-.027.005-.026.005-.027,0-.027.005-.027,0-.026,0-.028,0-.026,0-.027,0-.027,0-.027,0-.026,0-.028,0-.026,0-.027,0H251.8V17.586q.054.05.111.1l.027.022.026.021.054.042.027.02.026.019.028.019.026.018.027.018.027.018.027.017.026.017.028.017.026.016.027.016.027.015.027.015.026.015.028.014.026.014.027.014.027.013.027.013.026.013.027.013.027.012.027.012.027.012.027.011.026.012.027.011.027.011.027.01.027.011.027.01.026.01.027.01.027.01.027.009.027.01.026.009.027.008.027.009.027.008.027.008.027.008.026.008.027.008.027.007.027.008.027.007.027.007.026.007.027.007.027.007.027.006.027.007.027.006.026.006.027.006.027.006.027.006.027.005.027.005.026.005.027.005.027,0,.027.005.027,0,.027,0,.026,0,.027,0,.027,0,.027,0,.027,0,.026,0,.027,0,.027,0,.027,0,.027,0,.027,0,.026,0,.027,0,.027,0,.027,0,.027,0,.027,0,.026,0,.027,0,.027,0,.027,0,.027,0,.027,0,.026,0,.027,0,.027,0,.027,0h.026l.028,0h.026l.027,0h1.154l.026,0h.027l.027,0,.027,0,.026,0,.028,0,.026,0,.027,0,.027,0,.027,0,.026,0,.028,0,.026,0,.027,0,.027,0,.027,0,.026,0,.028,0,.026,0,.027,0,.027,0,.027,0,.026,0,.027,0,.027,0,.027,0,.027,0,.027,0,.026,0,.027,0,.027,0,.027,0,.027,0,.027,0,.026,0,.027-.005.027,0,.027,0,.027-.005.027,0,.026,0,.027-.005.027,0,.027-.005.027,0,.026,0,.027-.005.027,0,.027-.005.027,0,.027-.005.026-.006.027-.005.027-.005.027-.006.027-.006.027-.006.026-.005.027-.006.027-.006.027-.006.026-.005.028-.006.026-.006.027-.006.027-.007.027-.006.026-.007.028-.006.026-.007.027-.007.027-.006.027-.007.026-.007.028-.007.026-.007.027-.007.027-.007.027-.007V16.918l-.027.014-.027.014-.027.015-.026.014-.028.014-.026.014-.027.014-.027.013-.027.014-.026.013-.028.014-.026.013-.027.012-.027.013-.027.013-.026.012-.028.013-.026.012-.027.012-.027.011-.027.011-.026.012-.027.011-.027.011-.027.011-.027.01-.027.01-.026.01-.027.01-.027.01-.027.01-.027.01-.027.01-.026.009-.027.01-.027.009-.027.009-.027.009-.026.008-.027.009-.027.008-.027.008-.027.008-.027.007-.026.007-.027.007-.027.007-.027.007-.027.007-.027.007-.026.007-.027.007-.027.007-.027.006-.027.006-.027.006-.026.006-.027,0-.027.006-.027,0-.026.005-.028,0-.026.005-.027,0-.027,0-.027,0-.026,0-.028,0-.026,0-.027,0-.027,0-.027,0-.026,0-.028,0-.026,0-.027,0-.027,0-.027,0h-.026l-.027,0-.027,0-.027,0h-.027l-.027,0h-.321l-.027,0-.027,0-.027,0-.027,0-.027,0-.026,0-.027,0-.027,0-.027,0-.027,0-.027,0-.026,0-.027,0-.027-.005-.027,0-.026-.006-.028-.007-.026-.006-.027-.007-.027-.007-.027-.007-.026-.007-.028-.008-.026-.008-.027-.009-.054-.018-.026-.01-.028-.01-.026-.01-.027-.011-.027-.012-.027-.012-.026-.013-.027-.014-.027-.014-.054-.029-.027-.015-.026-.017q-.042-.025-.081-.052l-.027-.019-.027-.02-.053-.042-.027-.022L254,17.106l-.027-.024c-.027-.026-.054-.052-.08-.08-.009-.01-.019-.019-.027-.029a1.631,1.631,0,0,1-.134-.17,1.75,1.75,0,0,1-.161-.285,1.932,1.932,0,0,1-.107-.3,2.029,2.029,0,0,1-.054-.244,3.084,3.084,0,0,1,0-.95,2.509,2.509,0,0,1,.08-.333,2.084,2.084,0,0,1,.108-.266,1.805,1.805,0,0,1,.188-.3,1.533,1.533,0,0,1,.161-.18l.026-.026L254,13.9c.035-.031.07-.06.107-.087l.027-.02.027-.018.054-.036.027-.017.026-.016.027-.015.054-.03.027-.014.027-.014.026-.012.027-.012.027-.012.027-.011.026-.01.028-.01.026-.01.081-.028.026-.008.028-.008.026-.007.027-.008.027-.007.027-.007.026-.006.028-.007.026-.005.027-.005.027-.005.027-.005.026,0,.027,0,.027,0,.027,0,.027,0,.027,0,.026,0,.027,0,.027,0,.027,0,.027,0,.027,0h.026l.027,0h.268l.027,0h.027l.027,0,.027,0,.027,0h.01l.016,0,.027,0,.027,0,.027,0,.026,0,.028,0,.026,0,.027,0,.027,0,.027,0,.026,0,.028,0,.026,0,.027,0,.027,0,.027,0,.026,0,.028.005.026.005.027.005.027.005.027,0,.026.006.027.006.027.006.027.006.027.006.027.006.026.007.027.007.027.007.027.007.027.007.027.008.026.007.027.008.027.008.027.008.027.009.027.008.026.009.027.009.027.009.027.009.027.009.026.01.027.01.027.01.027.01.027.01.027.01.026.01.027.011.027.01.027.011.027.012.027.011.026.012.027.011.027.012.027.012.026.012.028.012.026.012.027.013.027.012.027.013.026.013.028.013.026.014.027.014.027.014.027.014.026.014.028.014.026.014.027.014.027.015.027.014V12.807l-.027-.007-.027-.007-.027-.007-.026-.007-.028-.007-.026-.006-.027-.007-.027-.007-.027-.007-.026-.006-.028-.007-.026-.006-.027-.006-.027-.007-.027-.006-.026-.006-.028-.006-.026-.005-.027-.006-.027-.006-.027-.005-.026-.006-.027-.006-.027-.005-.027-.006-.027-.005-.027-.005-.026-.006-.027,0-.027-.005-.027-.005-.027-.005L257,12.61l-.026-.005-.027-.005-.027-.005-.027-.005-.027,0-.026-.005-.027,0-.027,0-.027,0-.027,0-.027,0-.026,0-.027,0-.027,0-.027,0-.027,0-.027,0-.026,0-.027,0-.027,0-.027,0-.027,0-.027,0-.026,0-.027,0-.028,0-.026,0-.027,0-.027,0-.027,0-.026,0-.028,0-.026,0-.027,0-.027,0-.027,0-.026,0-.028,0-.026,0-.027,0-.027,0-.027,0-.026,0-.027,0-.027,0-.027,0-.027,0-.027,0h-.026l-.027,0-.027,0h-.885l-.026,0h-.081l-.027,0-.027,0-.026,0-.028,0-.026,0-.027,0-.027,0-.027,0-.026,0-.027,0-.027,0-.027,0-.027,0-.027,0-.026,0-.027,0-.027,0-.027,0-.027,0-.027,0-.026,0-.027,0-.027,0-.027,0-.027,0-.027,0-.026,0-.027,0-.027,0-.027,0-.027,0-.026,0-.027.005-.027.005-.027,0-.027.005-.027.005-.026.005-.027.006-.027.005-.027.006-.027.005-.027.006-.026.006-.027.007-.027.006-.027.007-.027.007-.027.007-.026.007-.027.007-.027.007-.027.007-.027.008-.027.008-.026.008-.027.008-.027.008-.027.009-.027.009-.027.009-.026.009-.027.01-.027.009-.027.01-.027.01-.026.01-.027.01-.027.01-.027.01-.027.011-.027.011-.026.011-.027.012-.027.012-.027.012-.027.012-.027.012-.026.013-.027.013-.027.014-.027.014-.026.014-.028.015-.026.015-.027.015-.027.015-.027.016-.026.016-.028.017-.026.017-.027.017-.027.017-.027.018-.026.019-.028.019-.026.02-.027.02-.054.041-.026.021c-.028.022-.054.045-.081.068Z" fill="#e10238" fill-rule="evenodd"/></svg>