<svg id="vision-icon" xmlns="http://www.w3.org/2000/svg" width="116.694" height="116.698" viewBox="0 0 116.694 116.698">
  <path id="Path_171" data-name="Path 171" d="M162.862,112.661Q151.206,92.47,139.553,72.277a7.061,7.061,0,0,0-.484-.772,2.255,2.255,0,0,0-3.555-.123,6.4,6.4,0,0,0-.694,1.034q-9.95,17.239-19.9,34.479c-1,1.735-2.009,3.468-3,5.176h-45c4.106-7.108,8.159-14.127,12.221-21.163a22.534,22.534,0,0,1-5.151-.311c-.212.381-.372.676-.541.968q-6,10.388-12,20.779a9.816,9.816,0,0,0-.587,1.1,2.257,2.257,0,0,0,2.048,3.226c.3.014.607,0,.911,0q48.243,0,96.483,0a4.926,4.926,0,0,0,1.023-.016,3.3,3.3,0,0,0,1.251-.459,5.887,5.887,0,0,0,.922-1.114V113.72c-.212-.354-.432-.7-.637-1.059m-45.622-.585,19.987-34.628,20,34.628ZM105.213,45.8c.2.349.317.546.432.74q6.47,11.039,12.945,22.076a7.365,7.365,0,0,0,.758,1.133,2.3,2.3,0,0,0,2.7.493,2.215,2.215,0,0,0,1.089-2.706,8.724,8.724,0,0,0-.754-1.521c-4.576-7.821-9.131-15.653-13.767-23.439a7.333,7.333,0,0,1-1.183-4.38c.1-1.546.021-3.1.021-4.681.4-.194.733-.361,1.073-.523Q120.9,27.1,133.257,21.213a14.543,14.543,0,0,0,1.518-.767,2.227,2.227,0,0,0,.064-3.866,8.634,8.634,0,0,0-1.206-.633L108.4,3.918c-.3-.144-.6-.3-.9-.459-.023-.466-.043-.879-.059-1.292A2.118,2.118,0,0,0,106.4.379c-.187-.121-.37-.253-.555-.379h-1.368c-.66.5-1.388.957-1.523,1.872a8.4,8.4,0,0,0-.059,1.247q-.007,18.228,0,36.452a3.23,3.23,0,0,1-.409,1.729q-4.809,8.255-9.574,16.534c-.146.253-.315.491-.484.751a29.838,29.838,0,0,1,4.249,1.941c2.859-4.9,5.619-9.8,8.535-14.728m2.3-37.19c6.914,3.288,13.732,6.533,20.768,9.88l-20.768,9.894Z" transform="translate(-46.805)" fill="currentColorr" class="text-white" />
  <path id="Path_172" data-name="Path 172" d="M63.637,261.783a6.478,6.478,0,0,0-.742-.861c-1.336-1.347-2.683-2.685-4.026-4.03a38.908,38.908,0,0,0-6.428-5.24c-.824-.532-1.674-1.025-2.569-1.571a29.837,29.837,0,0,0-4.249-1.941c-.416-.139-.774-.251-1.128-.377a36.95,36.95,0,0,0-11.237-2.1,37.746,37.746,0,0,0-14.481,2.4,35.774,35.774,0,0,0-11.524,6.935c-2.169,1.957-4.2,4.069-6.284,6.117a4.235,4.235,0,0,0-.575.7,2.035,2.035,0,0,0-.037,2.352,5.29,5.29,0,0,0,.719.877c1.416,1.429,2.834,2.859,4.268,4.27a37.013,37.013,0,0,0,20.363,10.529c.466.075.927.2,1.477.315a22.533,22.533,0,0,0,5.151.311c.808-.071,1.564-.121,2.313-.21,1.69-.206,3.391-.358,5.062-.664a33.7,33.7,0,0,0,6.085-1.8,34.3,34.3,0,0,0,10.218-6.067c2.487-2.167,4.775-4.562,7.14-6.866a3.46,3.46,0,0,0,.555-.717,2.047,2.047,0,0,0-.073-2.354M5.581,263.027c3.427-3.642,6.974-7.021,11.721-9.3-3.521,6.288-3.516,12.362,0,18.578-4.715-2.222-8.266-5.633-11.723-9.277m26.451,12.744A12.769,12.769,0,1,1,44.8,262.982a12.625,12.625,0,0,1-12.769,12.789m14.714-3.453c3.507-6.209,3.53-12.305,0-18.58,4.745,2.251,8.289,5.654,11.718,9.287-3.453,3.647-7,7.033-11.723,9.293" transform="translate(0 -189.554)" fill="currentColor" class="text-primary" />
  <path id="Path_173" data-name="Path 173" d="M341,327.729a2.262,2.262,0,0,1-2.236,2.232A2.267,2.267,0,1,1,341,327.729" transform="translate(-259.635 -251.118)" fill="currentColor" class="text-primary" />
  <path id="Path_174" data-name="Path 174" d="M134.667,176.31c0,.911.017,1.821-.007,2.731a6.877,6.877,0,0,1-.162,1.347,2.211,2.211,0,0,1-4.329,0,6.12,6.12,0,0,1-.166-1.345q-.027-2.732,0-5.463a5.942,5.942,0,0,1,.173-1.344,2.233,2.233,0,0,1,4.316,0,6.6,6.6,0,0,1,.168,1.346c.025.91.008,1.821.008,2.731" transform="translate(-100.307 -131.626)" fill="currentColor" class="text-primary" />
  <path id="Path_175" data-name="Path 175" d="M80.062,202.362a2.245,2.245,0,0,1-3.447,1.969,5.031,5.031,0,0,1-.793-.641q-2.1-2.083-4.19-4.185a2.942,2.942,0,0,1-.967-1.626,2.245,2.245,0,0,1,3.4-2.3,2.181,2.181,0,0,1,.465.325c1.616,1.605,3.235,3.206,4.828,4.834a2.075,2.075,0,0,1,.7,1.624" transform="translate(-54.502 -150.643)" fill="currentColor" class="text-primary" />
  <path id="Path_176" data-name="Path 176" d="M177.956,197.717a2.205,2.205,0,0,1-.743,1.467c-1.57,1.6-3.136,3.2-4.755,4.747a2.285,2.285,0,0,1-3.008.3,2.239,2.239,0,0,1-.6-3.026,3.578,3.578,0,0,1,.482-.63q2.287-2.3,4.589-4.591a2.42,2.42,0,0,1,1.822-.8,2.306,2.306,0,0,1,2.212,2.539" transform="translate(-130.027 -150.609)" fill="currentColor" class="text-primary" />
  <path id="Path_177" data-name="Path 177" d="M117.032,305.459A6.825,6.825,0,1,1,124,298.723a6.7,6.7,0,0,1-6.967,6.736m2.345-6.823a2.2,2.2,0,0,0-4.4-.047,2.2,2.2,0,1,0,4.4.047" transform="translate(-85.149 -225.178)" fill="currentColor" class="text-primary" />
</svg>